<svg xmlns="http://www.w3.org/2000/svg" width="1550" height="720" viewBox="0 0 1550 720"><style>text{font-family:system-ui,-apple-system,sans-serif;fill:#e8eefc}.muted{fill:#9fb0d0}.small{font-size:11px}.label{font-size:13px}.title{font-size:26px;font-weight:700}.subtitle{font-size:13px}.axis{stroke:#5c6b91;stroke-width:1}.grid{stroke:#27335a;stroke-width:1}.value{font-size:10px;font-weight:700}.legend{font-size:13px}.xlbl{font-size:12px}</style><rect width="1550" height="720" fill="#0b1020"/><text x="100" y="40" class="title">Single-request latency: TTFT p95</text><text x="100" y="64" class="subtitle muted">Lower is better • sequential runs on AWS g5.2xlarge / A10G</text><line x1="100" y1="570.0" x2="1510" y2="570.0" class="grid"/><text x="88" y="574.0" text-anchor="end" class="small muted">0</text><line x1="100" y1="474.0" x2="1510" y2="474.0" class="grid"/><text x="88" y="478.0" text-anchor="end" class="small muted">25</text><line x1="100" y1="378.0" x2="1510" y2="378.0" class="grid"/><text x="88" y="382.0" text-anchor="end" class="small muted">50</text><line x1="100" y1="282.0" x2="1510" y2="282.0" class="grid"/><text x="88" y="286.0" text-anchor="end" class="small muted">75</text><line x1="100" y1="186.0" x2="1510" y2="186.0" class="grid"/><text x="88" y="190.0" text-anchor="end" class="small muted">100</text><line x1="100" y1="90.0" x2="1510" y2="90.0" class="grid"/><text x="88" y="94.0" text-anchor="end" class="small muted">125</text><line x1="100" y1="90" x2="100" y2="570" class="axis"/><line x1="100" y1="570" x2="1510" y2="570" class="axis"/><rect x="116.3" y="483.3" width="32.5" height="86.7" rx="4" fill="#5B8DEF"/><text x="132.5" y="477.3" text-anchor="middle" class="value">22.5</text><rect x="155.3" y="449.0" width="32.5" height="121.0" rx="4" fill="#F5A524"/><text x="171.6" y="443.0" text-anchor="middle" class="value">31.5</text><text x="152.1" y="586" text-anchor="end" transform="rotate(-35 152.1 586)" class="xlbl">Gemma 2 2B</text><rect x="263.8" y="339.9" width="32.5" height="230.1" rx="4" fill="#F5A524"/><text x="280.0" y="333.9" text-anchor="middle" class="value">59.8</text><text x="260.5" y="586" text-anchor="end" transform="rotate(-35 260.5 586)" class="xlbl">SmolLM3 3B</text><rect x="333.2" y="480.6" width="32.5" height="89.4" rx="4" fill="#5B8DEF"/><text x="349.5" y="474.6" text-anchor="middle" class="value">23.3</text><rect x="372.2" y="442.4" width="32.5" height="127.6" rx="4" fill="#F5A524"/><text x="388.5" y="436.4" text-anchor="middle" class="value">33.2</text><text x="369.0" y="586" text-anchor="end" transform="rotate(-35 369.0 586)" class="xlbl">Llama 3.2 3B</text><rect x="441.7" y="472.9" width="32.5" height="97.1" rx="4" fill="#5B8DEF"/><text x="457.9" y="466.9" text-anchor="middle" class="value">25.3</text><rect x="480.7" y="375.7" width="32.5" height="194.3" rx="4" fill="#F5A524"/><text x="497.0" y="369.7" text-anchor="middle" class="value">50.5</text><text x="477.4" y="586" text-anchor="end" transform="rotate(-35 477.4 586)" class="xlbl">Phi-3 mini</text><rect x="550.1" y="441.6" width="32.5" height="128.4" rx="4" fill="#5B8DEF"/><text x="566.4" y="435.6" text-anchor="middle" class="value">33.4</text><rect x="589.2" y="416.8" width="32.5" height="153.2" rx="4" fill="#F5A524"/><text x="605.4" y="410.8" text-anchor="middle" class="value">39.9</text><text x="585.9" y="586" text-anchor="end" transform="rotate(-35 585.9 586)" class="xlbl">Phi-4 mini</text><rect x="658.6" y="328.8" width="32.5" height="241.2" rx="4" fill="#5B8DEF"/><text x="674.8" y="322.8" text-anchor="middle" class="value">62.7</text><rect x="697.6" y="317.3" width="32.5" height="252.7" rx="4" fill="#F5A524"/><text x="713.9" y="311.3" text-anchor="middle" class="value">65.7</text><text x="694.4" y="586" text-anchor="end" transform="rotate(-35 694.4 586)" class="xlbl">Qwen 2.5 7B</text><rect x="767.0" y="328.5" width="32.5" height="241.5" rx="4" fill="#5B8DEF"/><text x="783.3" y="322.5" text-anchor="middle" class="value">62.8</text><rect x="806.1" y="315.2" width="32.5" height="254.8" rx="4" fill="#F5A524"/><text x="822.4" y="309.2" text-anchor="middle" class="value">66.3</text><text x="802.8" y="586" text-anchor="end" transform="rotate(-35 802.8 586)" class="xlbl">DS-R1 Qwen 7B</text><rect x="875.5" y="329.8" width="32.5" height="240.2" rx="4" fill="#5B8DEF"/><text x="891.8" y="323.8" text-anchor="middle" class="value">62.5</text><rect x="914.5" y="328.9" width="32.5" height="241.1" rx="4" fill="#F5A524"/><text x="930.8" y="322.9" text-anchor="middle" class="value">62.7</text><text x="911.3" y="586" text-anchor="end" transform="rotate(-35 911.3 586)" class="xlbl">Mistral 7B</text><rect x="984.0" y="401.6" width="32.5" height="168.4" rx="4" fill="#5B8DEF"/><text x="1000.2" y="395.6" text-anchor="middle" class="value">43.8</text><rect x="1023.0" y="312.5" width="32.5" height="257.5" rx="4" fill="#F5A524"/><text x="1039.3" y="306.5" text-anchor="middle" class="value">67.0</text><text x="1019.8" y="586" text-anchor="end" transform="rotate(-35 1019.8 586)" class="xlbl">Llama 3.1 8B</text><rect x="1092.4" y="398.5" width="32.5" height="171.5" rx="4" fill="#5B8DEF"/><text x="1108.7" y="392.5" text-anchor="middle" class="value">44.6</text><rect x="1131.5" y="295.6" width="32.5" height="274.4" rx="4" fill="#F5A524"/><text x="1147.7" y="289.6" text-anchor="middle" class="value">71.4</text><text x="1128.2" y="586" text-anchor="end" transform="rotate(-35 1128.2 586)" class="xlbl">Qwen3 8B</text><rect x="1239.9" y="276.2" width="32.5" height="293.8" rx="4" fill="#F5A524"/><text x="1256.2" y="270.2" text-anchor="middle" class="value">76.4</text><text x="1236.7" y="586" text-anchor="end" transform="rotate(-35 1236.7 586)" class="xlbl">Granite 8B</text><rect x="1348.4" y="305.2" width="32.5" height="264.8" rx="4" fill="#F5A524"/><text x="1364.7" y="299.2" text-anchor="middle" class="value">68.9</text><text x="1345.1" y="586" text-anchor="end" transform="rotate(-35 1345.1 586)" class="xlbl">DS-R1 Llama 8B</text><rect x="1417.8" y="163.2" width="32.5" height="406.8" rx="4" fill="#5B8DEF"/><text x="1434.1" y="157.2" text-anchor="middle" class="value">106</text><rect x="1456.9" y="249.3" width="32.5" height="320.7" rx="4" fill="#F5A524"/><text x="1473.1" y="243.3" text-anchor="middle" class="value">83.4</text><text x="1453.6" y="586" text-anchor="end" transform="rotate(-35 1453.6 586)" class="xlbl">Gemma 2 9B</text><rect x="1330" y="34" width="14" height="14" rx="3" fill="#5B8DEF"/><text x="1354" y="45" class="legend">vLLM</text><rect x="1330" y="56" width="14" height="14" rx="3" fill="#F5A524"/><text x="1354" y="67" class="legend">SGLang</text><text x="24" y="330.0" transform="rotate(-90 24 330.0)" class="label muted">TTFT p95 (ms)</text><text x="100" y="704" class="small muted">Lower is better ↓ • 13 models with data</text></svg>