<svg xmlns="http://www.w3.org/2000/svg" width="1200" height="650" viewBox="0 0 1200 650"><style>text{font-family:system-ui,-apple-system,sans-serif;fill:#e8eefc}.muted{fill:#9fb0d0}.small{font-size:12px}.label{font-size:14px}.title{font-size:28px;font-weight:700}.subtitle{font-size:14px}.axis{stroke:#5c6b91;stroke-width:1}.grid{stroke:#27335a;stroke-width:1}.value{font-size:12px;font-weight:700}.legend{font-size:13px}</style><rect width="1200" height="650" fill="#0b1020"/><text x="100" y="40" class="title">Single-request latency: TTFT p95</text><text x="100" y="64" class="subtitle muted">Lower is better • sequential runs on AWS g5.2xlarge / A10G</text><line x1="100" y1="540.0" x2="1160" y2="540.0" class="grid"/><text x="88" y="544.0" text-anchor="end" class="small muted">0</text><line x1="100" y1="450.0" x2="1160" y2="450.0" class="grid"/><text x="88" y="454.0" text-anchor="end" class="small muted">28</text><line x1="100" y1="360.0" x2="1160" y2="360.0" class="grid"/><text x="88" y="364.0" text-anchor="end" class="small muted">56</text><line x1="100" y1="270.0" x2="1160" y2="270.0" class="grid"/><text x="88" y="274.0" text-anchor="end" class="small muted">84</text><line x1="100" y1="180.0" x2="1160" y2="180.0" class="grid"/><text x="88" y="184.0" text-anchor="end" class="small muted">112</text><line x1="100" y1="90.0" x2="1160" y2="90.0" class="grid"/><text x="88" y="94.0" text-anchor="end" class="small muted">141</text><line x1="100" y1="90" x2="100" y2="540" class="axis"/><line x1="100" y1="540" x2="1160" y2="540" class="axis"/><rect x="138.2" y="474.9" width="55.1" height="65.1" rx="6" fill="#5B8DEF"/><text x="165.7" y="466.9" text-anchor="middle" class="value">20.3</text><rect x="210.2" y="427.8" width="55.1" height="112.2" rx="6" fill="#F5A524"/><text x="237.8" y="419.8" text-anchor="middle" class="value">35.0</text><text x="197.5" y="568" text-anchor="middle" class="label">Gemma 2B</text><rect x="350.2" y="457.2" width="55.1" height="82.8" rx="6" fill="#5B8DEF"/><text x="377.7" y="449.2" text-anchor="middle" class="value">25.9</text><text x="409.5" y="568" text-anchor="middle" class="label">Phi-3 mini</text><rect x="562.2" y="409.6" width="55.1" height="130.4" rx="6" fill="#5B8DEF"/><text x="589.7" y="401.6" text-anchor="middle" class="value">40.7</text><rect x="634.2" y="321.5" width="55.1" height="218.5" rx="6" fill="#F5A524"/><text x="661.8" y="313.5" text-anchor="middle" class="value">68.2</text><text x="621.5" y="568" text-anchor="middle" class="label">Qwen 7B</text><rect x="774.2" y="406.5" width="55.1" height="133.5" rx="6" fill="#5B8DEF"/><text x="801.7" y="398.5" text-anchor="middle" class="value">41.7</text><rect x="846.2" y="327.5" width="55.1" height="212.5" rx="6" fill="#F5A524"/><text x="873.8" y="319.5" text-anchor="middle" class="value">66.4</text><text x="833.5" y="568" text-anchor="middle" class="label">Mistral 7B</text><rect x="986.2" y="148.7" width="55.1" height="391.3" rx="6" fill="#5B8DEF"/><text x="1013.7" y="140.7" text-anchor="middle" class="value">122.2</text><rect x="1058.2" y="261.7" width="55.1" height="278.3" rx="6" fill="#F5A524"/><text x="1085.8" y="253.7" text-anchor="middle" class="value">86.9</text><text x="1045.5" y="568" text-anchor="middle" class="label">Gemma 9B</text><rect x="980" y="34" width="14" height="14" rx="3" fill="#5B8DEF"/><text x="1004" y="45" class="legend">vLLM</text><rect x="980" y="56" width="14" height="14" rx="3" fill="#F5A524"/><text x="1004" y="67" class="legend">SGLang</text><text x="24" y="315.0" transform="rotate(-90 24 315.0)" class="label muted">TTFT p95 (ms)</text><text x="100" y="630" class="small muted">Lower is better</text></svg>