<?xml version="1.0" encoding="utf-8" standalone="no"?>
<!DOCTYPE svg PUBLIC "-//W3C//DTD SVG 1.1//EN"
  "http://www.w3.org/Graphics/SVG/1.1/DTD/svg11.dtd">
<svg xmlns:xlink="http://www.w3.org/1999/xlink" width="1008pt" height="396pt" viewBox="0 0 1008 396" xmlns="http://www.w3.org/2000/svg" version="1.1">
 <metadata>
  <rdf:RDF xmlns:dc="http://purl.org/dc/elements/1.1/" xmlns:cc="http://creativecommons.org/ns#" xmlns:rdf="http://www.w3.org/1999/02/22-rdf-syntax-ns#">
   <cc:Work>
    <dc:type rdf:resource="http://purl.org/dc/dcmitype/StillImage"/>
    <dc:date>2026-04-21T13:46:40.858154</dc:date>
    <dc:format>image/svg+xml</dc:format>
    <dc:creator>
     <cc:Agent>
      <dc:title>Matplotlib v3.10.0, https://matplotlib.org/</dc:title>
     </cc:Agent>
    </dc:creator>
   </cc:Work>
  </rdf:RDF>
 </metadata>
 <defs>
  <style type="text/css">*{stroke-linejoin: round; stroke-linecap: butt}</style>
 </defs>
 <g id="figure_1">
  <g id="patch_1">
   <path d="M 0 396 
L 1008 396 
L 1008 0 
L 0 0 
z
" style="fill: #0b1020"/>
  </g>
  <g id="axes_1">
   <g id="patch_2">
    <path d="M 44.45 308.3976 
L 492.655492 308.3976 
L 492.655492 88.08 
L 44.45 88.08 
z
" style="fill: #0b1020"/>
   </g>
   <g id="matplotlib.axis_1">
    <g id="xtick_1">
     <g id="line2d_1">
      <defs>
       <path id="mbb31f5ab9d" d="M 0 0 
L 0 3.5 
" style="stroke: #9fb0d0; stroke-width: 0.8"/>
      </defs>
      <g>
       <use xlink:href="#mbb31f5ab9d" x="129.158693" y="308.3976" style="fill: #9fb0d0; stroke: #9fb0d0; stroke-width: 0.8"/>
      </g>
     </g>
     <g id="text_1">
      <!-- Llama 3.1 8B -->
      <g style="fill: #9fb0d0" transform="translate(96.24385 322.996038) scale(0.1 -0.1)">
       <defs>
        <path id="DejaVuSans-4c" d="M 628 4666 
L 1259 4666 
L 1259 531 
L 3531 531 
L 3531 0 
L 628 0 
L 628 4666 
z
" transform="scale(0.015625)"/>
        <path id="DejaVuSans-6c" d="M 603 4863 
L 1178 4863 
L 1178 0 
L 603 0 
L 603 4863 
z
" transform="scale(0.015625)"/>
        <path id="DejaVuSans-61" d="M 2194 1759 
Q 1497 1759 1228 1600 
Q 959 1441 959 1056 
Q 959 750 1161 570 
Q 1363 391 1709 391 
Q 2188 391 2477 730 
Q 2766 1069 2766 1631 
L 2766 1759 
L 2194 1759 
z
M 3341 1997 
L 3341 0 
L 2766 0 
L 2766 531 
Q 2569 213 2275 61 
Q 1981 -91 1556 -91 
Q 1019 -91 701 211 
Q 384 513 384 1019 
Q 384 1609 779 1909 
Q 1175 2209 1959 2209 
L 2766 2209 
L 2766 2266 
Q 2766 2663 2505 2880 
Q 2244 3097 1772 3097 
Q 1472 3097 1187 3025 
Q 903 2953 641 2809 
L 641 3341 
Q 956 3463 1253 3523 
Q 1550 3584 1831 3584 
Q 2591 3584 2966 3190 
Q 3341 2797 3341 1997 
z
" transform="scale(0.015625)"/>
        <path id="DejaVuSans-6d" d="M 3328 2828 
Q 3544 3216 3844 3400 
Q 4144 3584 4550 3584 
Q 5097 3584 5394 3201 
Q 5691 2819 5691 2113 
L 5691 0 
L 5113 0 
L 5113 2094 
Q 5113 2597 4934 2840 
Q 4756 3084 4391 3084 
Q 3944 3084 3684 2787 
Q 3425 2491 3425 1978 
L 3425 0 
L 2847 0 
L 2847 2094 
Q 2847 2600 2669 2842 
Q 2491 3084 2119 3084 
Q 1678 3084 1418 2786 
Q 1159 2488 1159 1978 
L 1159 0 
L 581 0 
L 581 3500 
L 1159 3500 
L 1159 2956 
Q 1356 3278 1631 3431 
Q 1906 3584 2284 3584 
Q 2666 3584 2933 3390 
Q 3200 3197 3328 2828 
z
" transform="scale(0.015625)"/>
        <path id="DejaVuSans-20" transform="scale(0.015625)"/>
        <path id="DejaVuSans-33" d="M 2597 2516 
Q 3050 2419 3304 2112 
Q 3559 1806 3559 1356 
Q 3559 666 3084 287 
Q 2609 -91 1734 -91 
Q 1441 -91 1130 -33 
Q 819 25 488 141 
L 488 750 
Q 750 597 1062 519 
Q 1375 441 1716 441 
Q 2309 441 2620 675 
Q 2931 909 2931 1356 
Q 2931 1769 2642 2001 
Q 2353 2234 1838 2234 
L 1294 2234 
L 1294 2753 
L 1863 2753 
Q 2328 2753 2575 2939 
Q 2822 3125 2822 3475 
Q 2822 3834 2567 4026 
Q 2313 4219 1838 4219 
Q 1578 4219 1281 4162 
Q 984 4106 628 3988 
L 628 4550 
Q 988 4650 1302 4700 
Q 1616 4750 1894 4750 
Q 2613 4750 3031 4423 
Q 3450 4097 3450 3541 
Q 3450 3153 3228 2886 
Q 3006 2619 2597 2516 
z
" transform="scale(0.015625)"/>
        <path id="DejaVuSans-2e" d="M 684 794 
L 1344 794 
L 1344 0 
L 684 0 
L 684 794 
z
" transform="scale(0.015625)"/>
        <path id="DejaVuSans-31" d="M 794 531 
L 1825 531 
L 1825 4091 
L 703 3866 
L 703 4441 
L 1819 4666 
L 2450 4666 
L 2450 531 
L 3481 531 
L 3481 0 
L 794 0 
L 794 531 
z
" transform="scale(0.015625)"/>
        <path id="DejaVuSans-38" d="M 2034 2216 
Q 1584 2216 1326 1975 
Q 1069 1734 1069 1313 
Q 1069 891 1326 650 
Q 1584 409 2034 409 
Q 2484 409 2743 651 
Q 3003 894 3003 1313 
Q 3003 1734 2745 1975 
Q 2488 2216 2034 2216 
z
M 1403 2484 
Q 997 2584 770 2862 
Q 544 3141 544 3541 
Q 544 4100 942 4425 
Q 1341 4750 2034 4750 
Q 2731 4750 3128 4425 
Q 3525 4100 3525 3541 
Q 3525 3141 3298 2862 
Q 3072 2584 2669 2484 
Q 3125 2378 3379 2068 
Q 3634 1759 3634 1313 
Q 3634 634 3220 271 
Q 2806 -91 2034 -91 
Q 1263 -91 848 271 
Q 434 634 434 1313 
Q 434 1759 690 2068 
Q 947 2378 1403 2484 
z
M 1172 3481 
Q 1172 3119 1398 2916 
Q 1625 2713 2034 2713 
Q 2441 2713 2670 2916 
Q 2900 3119 2900 3481 
Q 2900 3844 2670 4047 
Q 2441 4250 2034 4250 
Q 1625 4250 1398 4047 
Q 1172 3844 1172 3481 
z
" transform="scale(0.015625)"/>
        <path id="DejaVuSans-42" d="M 1259 2228 
L 1259 519 
L 2272 519 
Q 2781 519 3026 730 
Q 3272 941 3272 1375 
Q 3272 1813 3026 2020 
Q 2781 2228 2272 2228 
L 1259 2228 
z
M 1259 4147 
L 1259 2741 
L 2194 2741 
Q 2656 2741 2882 2914 
Q 3109 3088 3109 3444 
Q 3109 3797 2882 3972 
Q 2656 4147 2194 4147 
L 1259 4147 
z
M 628 4666 
L 2241 4666 
Q 2963 4666 3353 4366 
Q 3744 4066 3744 3513 
Q 3744 3084 3544 2831 
Q 3344 2578 2956 2516 
Q 3422 2416 3680 2098 
Q 3938 1781 3938 1306 
Q 3938 681 3513 340 
Q 3088 0 2303 0 
L 628 0 
L 628 4666 
z
" transform="scale(0.015625)"/>
       </defs>
       <use xlink:href="#DejaVuSans-4c"/>
       <use xlink:href="#DejaVuSans-6c" transform="translate(55.712891 0)"/>
       <use xlink:href="#DejaVuSans-61" transform="translate(83.496094 0)"/>
       <use xlink:href="#DejaVuSans-6d" transform="translate(144.775391 0)"/>
       <use xlink:href="#DejaVuSans-61" transform="translate(242.1875 0)"/>
       <use xlink:href="#DejaVuSans-20" transform="translate(303.466797 0)"/>
       <use xlink:href="#DejaVuSans-33" transform="translate(335.253906 0)"/>
       <use xlink:href="#DejaVuSans-2e" transform="translate(398.876953 0)"/>
       <use xlink:href="#DejaVuSans-31" transform="translate(430.664062 0)"/>
       <use xlink:href="#DejaVuSans-20" transform="translate(494.287109 0)"/>
       <use xlink:href="#DejaVuSans-38" transform="translate(526.074219 0)"/>
       <use xlink:href="#DejaVuSans-42" transform="translate(589.697266 0)"/>
      </g>
     </g>
    </g>
    <g id="xtick_2">
     <g id="line2d_2">
      <g>
       <use xlink:href="#mbb31f5ab9d" x="289.997985" y="308.3976" style="fill: #9fb0d0; stroke: #9fb0d0; stroke-width: 0.8"/>
      </g>
     </g>
     <g id="text_2">
      <!-- Qwen3 8B -->
      <g style="fill: #9fb0d0" transform="translate(264.345641 322.996038) scale(0.1 -0.1)">
       <defs>
        <path id="DejaVuSans-51" d="M 2522 4238 
Q 1834 4238 1429 3725 
Q 1025 3213 1025 2328 
Q 1025 1447 1429 934 
Q 1834 422 2522 422 
Q 3209 422 3611 934 
Q 4013 1447 4013 2328 
Q 4013 3213 3611 3725 
Q 3209 4238 2522 4238 
z
M 3406 84 
L 4238 -825 
L 3475 -825 
L 2784 -78 
Q 2681 -84 2626 -87 
Q 2572 -91 2522 -91 
Q 1538 -91 948 567 
Q 359 1225 359 2328 
Q 359 3434 948 4092 
Q 1538 4750 2522 4750 
Q 3503 4750 4090 4092 
Q 4678 3434 4678 2328 
Q 4678 1516 4351 937 
Q 4025 359 3406 84 
z
" transform="scale(0.015625)"/>
        <path id="DejaVuSans-77" d="M 269 3500 
L 844 3500 
L 1563 769 
L 2278 3500 
L 2956 3500 
L 3675 769 
L 4391 3500 
L 4966 3500 
L 4050 0 
L 3372 0 
L 2619 2869 
L 1863 0 
L 1184 0 
L 269 3500 
z
" transform="scale(0.015625)"/>
        <path id="DejaVuSans-65" d="M 3597 1894 
L 3597 1613 
L 953 1613 
Q 991 1019 1311 708 
Q 1631 397 2203 397 
Q 2534 397 2845 478 
Q 3156 559 3463 722 
L 3463 178 
Q 3153 47 2828 -22 
Q 2503 -91 2169 -91 
Q 1331 -91 842 396 
Q 353 884 353 1716 
Q 353 2575 817 3079 
Q 1281 3584 2069 3584 
Q 2775 3584 3186 3129 
Q 3597 2675 3597 1894 
z
M 3022 2063 
Q 3016 2534 2758 2815 
Q 2500 3097 2075 3097 
Q 1594 3097 1305 2825 
Q 1016 2553 972 2059 
L 3022 2063 
z
" transform="scale(0.015625)"/>
        <path id="DejaVuSans-6e" d="M 3513 2113 
L 3513 0 
L 2938 0 
L 2938 2094 
Q 2938 2591 2744 2837 
Q 2550 3084 2163 3084 
Q 1697 3084 1428 2787 
Q 1159 2491 1159 1978 
L 1159 0 
L 581 0 
L 581 3500 
L 1159 3500 
L 1159 2956 
Q 1366 3272 1645 3428 
Q 1925 3584 2291 3584 
Q 2894 3584 3203 3211 
Q 3513 2838 3513 2113 
z
" transform="scale(0.015625)"/>
       </defs>
       <use xlink:href="#DejaVuSans-51"/>
       <use xlink:href="#DejaVuSans-77" transform="translate(78.710938 0)"/>
       <use xlink:href="#DejaVuSans-65" transform="translate(160.498047 0)"/>
       <use xlink:href="#DejaVuSans-6e" transform="translate(222.021484 0)"/>
       <use xlink:href="#DejaVuSans-33" transform="translate(285.400391 0)"/>
       <use xlink:href="#DejaVuSans-20" transform="translate(349.023438 0)"/>
       <use xlink:href="#DejaVuSans-38" transform="translate(380.810547 0)"/>
       <use xlink:href="#DejaVuSans-42" transform="translate(444.433594 0)"/>
      </g>
     </g>
    </g>
    <g id="xtick_3">
     <g id="line2d_3">
      <g>
       <use xlink:href="#mbb31f5ab9d" x="450.837276" y="308.3976" style="fill: #9fb0d0; stroke: #9fb0d0; stroke-width: 0.8"/>
      </g>
     </g>
     <g id="text_3">
      <!-- Gemma 4 E4B -->
      <g style="fill: #9fb0d0" transform="translate(414.951338 322.996038) scale(0.1 -0.1)">
       <defs>
        <path id="DejaVuSans-47" d="M 3809 666 
L 3809 1919 
L 2778 1919 
L 2778 2438 
L 4434 2438 
L 4434 434 
Q 4069 175 3628 42 
Q 3188 -91 2688 -91 
Q 1594 -91 976 548 
Q 359 1188 359 2328 
Q 359 3472 976 4111 
Q 1594 4750 2688 4750 
Q 3144 4750 3555 4637 
Q 3966 4525 4313 4306 
L 4313 3634 
Q 3963 3931 3569 4081 
Q 3175 4231 2741 4231 
Q 1884 4231 1454 3753 
Q 1025 3275 1025 2328 
Q 1025 1384 1454 906 
Q 1884 428 2741 428 
Q 3075 428 3337 486 
Q 3600 544 3809 666 
z
" transform="scale(0.015625)"/>
        <path id="DejaVuSans-34" d="M 2419 4116 
L 825 1625 
L 2419 1625 
L 2419 4116 
z
M 2253 4666 
L 3047 4666 
L 3047 1625 
L 3713 1625 
L 3713 1100 
L 3047 1100 
L 3047 0 
L 2419 0 
L 2419 1100 
L 313 1100 
L 313 1709 
L 2253 4666 
z
" transform="scale(0.015625)"/>
        <path id="DejaVuSans-45" d="M 628 4666 
L 3578 4666 
L 3578 4134 
L 1259 4134 
L 1259 2753 
L 3481 2753 
L 3481 2222 
L 1259 2222 
L 1259 531 
L 3634 531 
L 3634 0 
L 628 0 
L 628 4666 
z
" transform="scale(0.015625)"/>
       </defs>
       <use xlink:href="#DejaVuSans-47"/>
       <use xlink:href="#DejaVuSans-65" transform="translate(77.490234 0)"/>
       <use xlink:href="#DejaVuSans-6d" transform="translate(139.013672 0)"/>
       <use xlink:href="#DejaVuSans-6d" transform="translate(236.425781 0)"/>
       <use xlink:href="#DejaVuSans-61" transform="translate(333.837891 0)"/>
       <use xlink:href="#DejaVuSans-20" transform="translate(395.117188 0)"/>
       <use xlink:href="#DejaVuSans-34" transform="translate(426.904297 0)"/>
       <use xlink:href="#DejaVuSans-20" transform="translate(490.527344 0)"/>
       <use xlink:href="#DejaVuSans-45" transform="translate(522.314453 0)"/>
       <use xlink:href="#DejaVuSans-34" transform="translate(585.498047 0)"/>
       <use xlink:href="#DejaVuSans-42" transform="translate(649.121094 0)"/>
      </g>
     </g>
    </g>
   </g>
   <g id="matplotlib.axis_2">
    <g id="ytick_1">
     <g id="line2d_4">
      <path d="M 44.45 308.3976 
L 492.655492 308.3976 
" clip-path="url(#pedc44c0077)" style="fill: none; stroke-dasharray: 2.22,0.96; stroke-dashoffset: 0; stroke: #27335a; stroke-opacity: 0.4; stroke-width: 0.6"/>
     </g>
     <g id="line2d_5">
      <defs>
       <path id="m944b5113c7" d="M 0 0 
L -3.5 0 
" style="stroke: #9fb0d0; stroke-width: 0.8"/>
      </defs>
      <g>
       <use xlink:href="#m944b5113c7" x="44.45" y="308.3976" style="fill: #9fb0d0; stroke: #9fb0d0; stroke-width: 0.8"/>
      </g>
     </g>
     <g id="text_4">
      <!-- 0 -->
      <g style="fill: #9fb0d0" transform="translate(31.0875 312.196819) scale(0.1 -0.1)">
       <defs>
        <path id="DejaVuSans-30" d="M 2034 4250 
Q 1547 4250 1301 3770 
Q 1056 3291 1056 2328 
Q 1056 1369 1301 889 
Q 1547 409 2034 409 
Q 2525 409 2770 889 
Q 3016 1369 3016 2328 
Q 3016 3291 2770 3770 
Q 2525 4250 2034 4250 
z
M 2034 4750 
Q 2819 4750 3233 4129 
Q 3647 3509 3647 2328 
Q 3647 1150 3233 529 
Q 2819 -91 2034 -91 
Q 1250 -91 836 529 
Q 422 1150 422 2328 
Q 422 3509 836 4129 
Q 1250 4750 2034 4750 
z
" transform="scale(0.015625)"/>
       </defs>
       <use xlink:href="#DejaVuSans-30"/>
      </g>
     </g>
    </g>
    <g id="ytick_2">
     <g id="line2d_6">
      <path d="M 44.45 260.026139 
L 492.655492 260.026139 
" clip-path="url(#pedc44c0077)" style="fill: none; stroke-dasharray: 2.22,0.96; stroke-dashoffset: 0; stroke: #27335a; stroke-opacity: 0.4; stroke-width: 0.6"/>
     </g>
     <g id="line2d_7">
      <g>
       <use xlink:href="#m944b5113c7" x="44.45" y="260.026139" style="fill: #9fb0d0; stroke: #9fb0d0; stroke-width: 0.8"/>
      </g>
     </g>
     <g id="text_5">
      <!-- 20 -->
      <g style="fill: #9fb0d0" transform="translate(24.725 263.825358) scale(0.1 -0.1)">
       <defs>
        <path id="DejaVuSans-32" d="M 1228 531 
L 3431 531 
L 3431 0 
L 469 0 
L 469 531 
Q 828 903 1448 1529 
Q 2069 2156 2228 2338 
Q 2531 2678 2651 2914 
Q 2772 3150 2772 3378 
Q 2772 3750 2511 3984 
Q 2250 4219 1831 4219 
Q 1534 4219 1204 4116 
Q 875 4013 500 3803 
L 500 4441 
Q 881 4594 1212 4672 
Q 1544 4750 1819 4750 
Q 2544 4750 2975 4387 
Q 3406 4025 3406 3419 
Q 3406 3131 3298 2873 
Q 3191 2616 2906 2266 
Q 2828 2175 2409 1742 
Q 1991 1309 1228 531 
z
" transform="scale(0.015625)"/>
       </defs>
       <use xlink:href="#DejaVuSans-32"/>
       <use xlink:href="#DejaVuSans-30" transform="translate(63.623047 0)"/>
      </g>
     </g>
    </g>
    <g id="ytick_3">
     <g id="line2d_8">
      <path d="M 44.45 211.654679 
L 492.655492 211.654679 
" clip-path="url(#pedc44c0077)" style="fill: none; stroke-dasharray: 2.22,0.96; stroke-dashoffset: 0; stroke: #27335a; stroke-opacity: 0.4; stroke-width: 0.6"/>
     </g>
     <g id="line2d_9">
      <g>
       <use xlink:href="#m944b5113c7" x="44.45" y="211.654679" style="fill: #9fb0d0; stroke: #9fb0d0; stroke-width: 0.8"/>
      </g>
     </g>
     <g id="text_6">
      <!-- 40 -->
      <g style="fill: #9fb0d0" transform="translate(24.725 215.453897) scale(0.1 -0.1)">
       <use xlink:href="#DejaVuSans-34"/>
       <use xlink:href="#DejaVuSans-30" transform="translate(63.623047 0)"/>
      </g>
     </g>
    </g>
    <g id="ytick_4">
     <g id="line2d_10">
      <path d="M 44.45 163.283218 
L 492.655492 163.283218 
" clip-path="url(#pedc44c0077)" style="fill: none; stroke-dasharray: 2.22,0.96; stroke-dashoffset: 0; stroke: #27335a; stroke-opacity: 0.4; stroke-width: 0.6"/>
     </g>
     <g id="line2d_11">
      <g>
       <use xlink:href="#m944b5113c7" x="44.45" y="163.283218" style="fill: #9fb0d0; stroke: #9fb0d0; stroke-width: 0.8"/>
      </g>
     </g>
     <g id="text_7">
      <!-- 60 -->
      <g style="fill: #9fb0d0" transform="translate(24.725 167.082437) scale(0.1 -0.1)">
       <defs>
        <path id="DejaVuSans-36" d="M 2113 2584 
Q 1688 2584 1439 2293 
Q 1191 2003 1191 1497 
Q 1191 994 1439 701 
Q 1688 409 2113 409 
Q 2538 409 2786 701 
Q 3034 994 3034 1497 
Q 3034 2003 2786 2293 
Q 2538 2584 2113 2584 
z
M 3366 4563 
L 3366 3988 
Q 3128 4100 2886 4159 
Q 2644 4219 2406 4219 
Q 1781 4219 1451 3797 
Q 1122 3375 1075 2522 
Q 1259 2794 1537 2939 
Q 1816 3084 2150 3084 
Q 2853 3084 3261 2657 
Q 3669 2231 3669 1497 
Q 3669 778 3244 343 
Q 2819 -91 2113 -91 
Q 1303 -91 875 529 
Q 447 1150 447 2328 
Q 447 3434 972 4092 
Q 1497 4750 2381 4750 
Q 2619 4750 2861 4703 
Q 3103 4656 3366 4563 
z
" transform="scale(0.015625)"/>
       </defs>
       <use xlink:href="#DejaVuSans-36"/>
       <use xlink:href="#DejaVuSans-30" transform="translate(63.623047 0)"/>
      </g>
     </g>
    </g>
    <g id="ytick_5">
     <g id="line2d_12">
      <path d="M 44.45 114.911757 
L 492.655492 114.911757 
" clip-path="url(#pedc44c0077)" style="fill: none; stroke-dasharray: 2.22,0.96; stroke-dashoffset: 0; stroke: #27335a; stroke-opacity: 0.4; stroke-width: 0.6"/>
     </g>
     <g id="line2d_13">
      <g>
       <use xlink:href="#m944b5113c7" x="44.45" y="114.911757" style="fill: #9fb0d0; stroke: #9fb0d0; stroke-width: 0.8"/>
      </g>
     </g>
     <g id="text_8">
      <!-- 80 -->
      <g style="fill: #9fb0d0" transform="translate(24.725 118.710976) scale(0.1 -0.1)">
       <use xlink:href="#DejaVuSans-38"/>
       <use xlink:href="#DejaVuSans-30" transform="translate(63.623047 0)"/>
      </g>
     </g>
    </g>
    <g id="text_9">
     <!-- TTFT (ms) — lower is better -->
     <g style="fill: #e8eefc" transform="translate(18.645312 267.389581) rotate(-90) scale(0.1 -0.1)">
      <defs>
       <path id="DejaVuSans-54" d="M -19 4666 
L 3928 4666 
L 3928 4134 
L 2272 4134 
L 2272 0 
L 1638 0 
L 1638 4134 
L -19 4134 
L -19 4666 
z
" transform="scale(0.015625)"/>
       <path id="DejaVuSans-46" d="M 628 4666 
L 3309 4666 
L 3309 4134 
L 1259 4134 
L 1259 2759 
L 3109 2759 
L 3109 2228 
L 1259 2228 
L 1259 0 
L 628 0 
L 628 4666 
z
" transform="scale(0.015625)"/>
       <path id="DejaVuSans-28" d="M 1984 4856 
Q 1566 4138 1362 3434 
Q 1159 2731 1159 2009 
Q 1159 1288 1364 580 
Q 1569 -128 1984 -844 
L 1484 -844 
Q 1016 -109 783 600 
Q 550 1309 550 2009 
Q 550 2706 781 3412 
Q 1013 4119 1484 4856 
L 1984 4856 
z
" transform="scale(0.015625)"/>
       <path id="DejaVuSans-73" d="M 2834 3397 
L 2834 2853 
Q 2591 2978 2328 3040 
Q 2066 3103 1784 3103 
Q 1356 3103 1142 2972 
Q 928 2841 928 2578 
Q 928 2378 1081 2264 
Q 1234 2150 1697 2047 
L 1894 2003 
Q 2506 1872 2764 1633 
Q 3022 1394 3022 966 
Q 3022 478 2636 193 
Q 2250 -91 1575 -91 
Q 1294 -91 989 -36 
Q 684 19 347 128 
L 347 722 
Q 666 556 975 473 
Q 1284 391 1588 391 
Q 1994 391 2212 530 
Q 2431 669 2431 922 
Q 2431 1156 2273 1281 
Q 2116 1406 1581 1522 
L 1381 1569 
Q 847 1681 609 1914 
Q 372 2147 372 2553 
Q 372 3047 722 3315 
Q 1072 3584 1716 3584 
Q 2034 3584 2315 3537 
Q 2597 3491 2834 3397 
z
" transform="scale(0.015625)"/>
       <path id="DejaVuSans-29" d="M 513 4856 
L 1013 4856 
Q 1481 4119 1714 3412 
Q 1947 2706 1947 2009 
Q 1947 1309 1714 600 
Q 1481 -109 1013 -844 
L 513 -844 
Q 928 -128 1133 580 
Q 1338 1288 1338 2009 
Q 1338 2731 1133 3434 
Q 928 4138 513 4856 
z
" transform="scale(0.015625)"/>
       <path id="DejaVuSans-2014" d="M 313 1978 
L 6088 1978 
L 6088 1528 
L 313 1528 
L 313 1978 
z
" transform="scale(0.015625)"/>
       <path id="DejaVuSans-6f" d="M 1959 3097 
Q 1497 3097 1228 2736 
Q 959 2375 959 1747 
Q 959 1119 1226 758 
Q 1494 397 1959 397 
Q 2419 397 2687 759 
Q 2956 1122 2956 1747 
Q 2956 2369 2687 2733 
Q 2419 3097 1959 3097 
z
M 1959 3584 
Q 2709 3584 3137 3096 
Q 3566 2609 3566 1747 
Q 3566 888 3137 398 
Q 2709 -91 1959 -91 
Q 1206 -91 779 398 
Q 353 888 353 1747 
Q 353 2609 779 3096 
Q 1206 3584 1959 3584 
z
" transform="scale(0.015625)"/>
       <path id="DejaVuSans-72" d="M 2631 2963 
Q 2534 3019 2420 3045 
Q 2306 3072 2169 3072 
Q 1681 3072 1420 2755 
Q 1159 2438 1159 1844 
L 1159 0 
L 581 0 
L 581 3500 
L 1159 3500 
L 1159 2956 
Q 1341 3275 1631 3429 
Q 1922 3584 2338 3584 
Q 2397 3584 2469 3576 
Q 2541 3569 2628 3553 
L 2631 2963 
z
" transform="scale(0.015625)"/>
       <path id="DejaVuSans-69" d="M 603 3500 
L 1178 3500 
L 1178 0 
L 603 0 
L 603 3500 
z
M 603 4863 
L 1178 4863 
L 1178 4134 
L 603 4134 
L 603 4863 
z
" transform="scale(0.015625)"/>
       <path id="DejaVuSans-62" d="M 3116 1747 
Q 3116 2381 2855 2742 
Q 2594 3103 2138 3103 
Q 1681 3103 1420 2742 
Q 1159 2381 1159 1747 
Q 1159 1113 1420 752 
Q 1681 391 2138 391 
Q 2594 391 2855 752 
Q 3116 1113 3116 1747 
z
M 1159 2969 
Q 1341 3281 1617 3432 
Q 1894 3584 2278 3584 
Q 2916 3584 3314 3078 
Q 3713 2572 3713 1747 
Q 3713 922 3314 415 
Q 2916 -91 2278 -91 
Q 1894 -91 1617 61 
Q 1341 213 1159 525 
L 1159 0 
L 581 0 
L 581 4863 
L 1159 4863 
L 1159 2969 
z
" transform="scale(0.015625)"/>
       <path id="DejaVuSans-74" d="M 1172 4494 
L 1172 3500 
L 2356 3500 
L 2356 3053 
L 1172 3053 
L 1172 1153 
Q 1172 725 1289 603 
Q 1406 481 1766 481 
L 2356 481 
L 2356 0 
L 1766 0 
Q 1100 0 847 248 
Q 594 497 594 1153 
L 594 3053 
L 172 3053 
L 172 3500 
L 594 3500 
L 594 4494 
L 1172 4494 
z
" transform="scale(0.015625)"/>
      </defs>
      <use xlink:href="#DejaVuSans-54"/>
      <use xlink:href="#DejaVuSans-54" transform="translate(59.333984 0)"/>
      <use xlink:href="#DejaVuSans-46" transform="translate(120.417969 0)"/>
      <use xlink:href="#DejaVuSans-54" transform="translate(176.1875 0)"/>
      <use xlink:href="#DejaVuSans-20" transform="translate(237.271484 0)"/>
      <use xlink:href="#DejaVuSans-28" transform="translate(269.058594 0)"/>
      <use xlink:href="#DejaVuSans-6d" transform="translate(308.072266 0)"/>
      <use xlink:href="#DejaVuSans-73" transform="translate(405.484375 0)"/>
      <use xlink:href="#DejaVuSans-29" transform="translate(457.583984 0)"/>
      <use xlink:href="#DejaVuSans-20" transform="translate(496.597656 0)"/>
      <use xlink:href="#DejaVuSans-2014" transform="translate(528.384766 0)"/>
      <use xlink:href="#DejaVuSans-20" transform="translate(628.384766 0)"/>
      <use xlink:href="#DejaVuSans-6c" transform="translate(660.171875 0)"/>
      <use xlink:href="#DejaVuSans-6f" transform="translate(687.955078 0)"/>
      <use xlink:href="#DejaVuSans-77" transform="translate(749.136719 0)"/>
      <use xlink:href="#DejaVuSans-65" transform="translate(830.923828 0)"/>
      <use xlink:href="#DejaVuSans-72" transform="translate(892.447266 0)"/>
      <use xlink:href="#DejaVuSans-20" transform="translate(933.560547 0)"/>
      <use xlink:href="#DejaVuSans-69" transform="translate(965.347656 0)"/>
      <use xlink:href="#DejaVuSans-73" transform="translate(993.130859 0)"/>
      <use xlink:href="#DejaVuSans-20" transform="translate(1045.230469 0)"/>
      <use xlink:href="#DejaVuSans-62" transform="translate(1077.017578 0)"/>
      <use xlink:href="#DejaVuSans-65" transform="translate(1140.494141 0)"/>
      <use xlink:href="#DejaVuSans-74" transform="translate(1202.017578 0)"/>
      <use xlink:href="#DejaVuSans-74" transform="translate(1241.226562 0)"/>
      <use xlink:href="#DejaVuSans-65" transform="translate(1280.435547 0)"/>
      <use xlink:href="#DejaVuSans-72" transform="translate(1341.958984 0)"/>
     </g>
    </g>
   </g>
   <g id="patch_3">
    <path d="M 64.822977 308.3976 
L 86.268216 308.3976 
L 86.268216 205.21202 
L 64.822977 205.21202 
z
" clip-path="url(#pedc44c0077)" style="fill: #5b8def; stroke: #0b1020; stroke-width: 0.5; stroke-linejoin: miter"/>
   </g>
   <g id="patch_4">
    <path d="M 225.662268 308.3976 
L 247.107507 308.3976 
L 247.107507 202.070783 
L 225.662268 202.070783 
z
" clip-path="url(#pedc44c0077)" style="fill: #5b8def; stroke: #0b1020; stroke-width: 0.5; stroke-linejoin: miter"/>
   </g>
   <g id="patch_5">
    <path d="M 386.501559 308.3976 
L 407.946798 308.3976 
L 407.946798 105.229071 
L 386.501559 105.229071 
z
" clip-path="url(#pedc44c0077)" style="fill: #5b8def; stroke: #0b1020; stroke-width: 0.5; stroke-linejoin: miter"/>
   </g>
   <g id="patch_6">
    <path d="M 86.268216 308.3976 
L 107.713455 308.3976 
L 107.713455 141.188876 
L 86.268216 141.188876 
z
" clip-path="url(#pedc44c0077)" style="fill: #f5a524; stroke: #0b1020; stroke-width: 0.5; stroke-linejoin: miter"/>
   </g>
   <g id="patch_7">
    <path d="M 247.107507 308.3976 
L 268.552746 308.3976 
L 268.552746 135.139744 
L 247.107507 135.139744 
z
" clip-path="url(#pedc44c0077)" style="fill: #f5a524; stroke: #0b1020; stroke-width: 0.5; stroke-linejoin: miter"/>
   </g>
   <g id="patch_8">
    <path d="M 407.946798 308.3976 
L 429.392037 308.3976 
L 429.392037 98.571314 
L 407.946798 98.571314 
z
" clip-path="url(#pedc44c0077)" style="fill: #f5a524; stroke: #0b1020; stroke-width: 0.5; stroke-linejoin: miter"/>
   </g>
   <g id="patch_9">
    <path d="M 107.713455 308.3976 
L 129.158693 308.3976 
L 129.158693 206.546858 
L 107.713455 206.546858 
z
" clip-path="url(#pedc44c0077)" style="fill: #7bd389; stroke: #0b1020; stroke-width: 0.5; stroke-linejoin: miter"/>
   </g>
   <g id="patch_10">
    <path d="M 268.552746 308.3976 
L 289.997985 308.3976 
L 289.997985 202.625859 
L 268.552746 202.625859 
z
" clip-path="url(#pedc44c0077)" style="fill: #7bd389; stroke: #0b1020; stroke-width: 0.5; stroke-linejoin: miter"/>
   </g>
   <g id="patch_11">
    <path d="M 429.392037 308.3976 
L 450.837276 308.3976 
L 450.837276 193.937463 
L 429.392037 193.937463 
z
" clip-path="url(#pedc44c0077)" style="fill: #7bd389; stroke: #0b1020; stroke-width: 0.5; stroke-linejoin: miter"/>
   </g>
   <g id="patch_12">
    <path d="M 129.158693 308.3976 
L 150.603932 308.3976 
L 150.603932 213.576815 
L 129.158693 213.576815 
z
" clip-path="url(#pedc44c0077)" style="fill: #c7a8e8; stroke: #0b1020; stroke-width: 0.5; stroke-linejoin: miter"/>
   </g>
   <g id="patch_13">
    <path d="M 289.997985 308.3976 
L 311.443223 308.3976 
L 311.443223 210.942333 
L 289.997985 210.942333 
z
" clip-path="url(#pedc44c0077)" style="fill: #c7a8e8; stroke: #0b1020; stroke-width: 0.5; stroke-linejoin: miter"/>
   </g>
   <g id="patch_14">
    <path d="M 450.837276 308.3976 
L 472.282515 308.3976 
L 472.282515 191.445868 
L 450.837276 191.445868 
z
" clip-path="url(#pedc44c0077)" style="fill: #c7a8e8; stroke: #0b1020; stroke-width: 0.5; stroke-linejoin: miter"/>
   </g>
   <g id="patch_15">
    <path d="M 150.603932 308.3976 
L 172.049171 308.3976 
L 172.049171 191.350128 
L 150.603932 191.350128 
z
" clip-path="url(#pedc44c0077)" style="fill: #e05d78; stroke: #0b1020; stroke-width: 0.5; stroke-linejoin: miter"/>
   </g>
   <g id="patch_16">
    <path d="M 0 0 
z
" clip-path="url(#pedc44c0077)" style="fill: #e05d78; stroke: #0b1020; stroke-width: 0.5; stroke-linejoin: miter"/>
   </g>
   <g id="patch_17">
    <path d="M 0 0 
z
" clip-path="url(#pedc44c0077)" style="fill: #e05d78; stroke: #0b1020; stroke-width: 0.5; stroke-linejoin: miter"/>
   </g>
   <g id="patch_18">
    <path d="M 0 0 
z
" clip-path="url(#pedc44c0077)" style="fill: #e8b8a8; stroke: #0b1020; stroke-width: 0.5; stroke-linejoin: miter"/>
   </g>
   <g id="patch_19">
    <path d="M 0 0 
z
" clip-path="url(#pedc44c0077)" style="fill: #e8b8a8; stroke: #0b1020; stroke-width: 0.5; stroke-linejoin: miter"/>
   </g>
   <g id="patch_20">
    <path d="M 0 0 
z
" clip-path="url(#pedc44c0077)" style="fill: #e8b8a8; stroke: #0b1020; stroke-width: 0.5; stroke-linejoin: miter"/>
   </g>
   <g id="patch_21">
    <path d="M 44.45 308.3976 
L 44.45 88.08 
" style="fill: none; stroke: #5c6b91; stroke-width: 0.8; stroke-linejoin: miter; stroke-linecap: square"/>
   </g>
   <g id="patch_22">
    <path d="M 44.45 308.3976 
L 492.655492 308.3976 
" style="fill: none; stroke: #5c6b91; stroke-width: 0.8; stroke-linejoin: miter; stroke-linecap: square"/>
   </g>
   <g id="text_10">
    <!-- 43 -->
    <g style="fill: #e8eefc" transform="translate(70.455596 199.92041) scale(0.08 -0.08)">
     <use xlink:href="#DejaVuSans-34"/>
     <use xlink:href="#DejaVuSans-33" transform="translate(63.623047 0)"/>
    </g>
   </g>
   <g id="text_11">
    <!-- 44 -->
    <g style="fill: #e8eefc" transform="translate(231.294888 196.779174) scale(0.08 -0.08)">
     <use xlink:href="#DejaVuSans-34"/>
     <use xlink:href="#DejaVuSans-34" transform="translate(63.623047 0)"/>
    </g>
   </g>
   <g id="text_12">
    <!-- 84 -->
    <g style="fill: #e8eefc" transform="translate(392.134179 99.937462) scale(0.08 -0.08)">
     <use xlink:href="#DejaVuSans-38"/>
     <use xlink:href="#DejaVuSans-34" transform="translate(63.623047 0)"/>
    </g>
   </g>
   <g id="text_13">
    <!-- 69 -->
    <g style="fill: #e8eefc" transform="translate(91.900835 135.897266) scale(0.08 -0.08)">
     <defs>
      <path id="DejaVuSans-39" d="M 703 97 
L 703 672 
Q 941 559 1184 500 
Q 1428 441 1663 441 
Q 2288 441 2617 861 
Q 2947 1281 2994 2138 
Q 2813 1869 2534 1725 
Q 2256 1581 1919 1581 
Q 1219 1581 811 2004 
Q 403 2428 403 3163 
Q 403 3881 828 4315 
Q 1253 4750 1959 4750 
Q 2769 4750 3195 4129 
Q 3622 3509 3622 2328 
Q 3622 1225 3098 567 
Q 2575 -91 1691 -91 
Q 1453 -91 1209 -44 
Q 966 3 703 97 
z
M 1959 2075 
Q 2384 2075 2632 2365 
Q 2881 2656 2881 3163 
Q 2881 3666 2632 3958 
Q 2384 4250 1959 4250 
Q 1534 4250 1286 3958 
Q 1038 3666 1038 3163 
Q 1038 2656 1286 2365 
Q 1534 2075 1959 2075 
z
" transform="scale(0.015625)"/>
     </defs>
     <use xlink:href="#DejaVuSans-36"/>
     <use xlink:href="#DejaVuSans-39" transform="translate(63.623047 0)"/>
    </g>
   </g>
   <g id="text_14">
    <!-- 72 -->
    <g style="fill: #e8eefc" transform="translate(252.740126 129.848135) scale(0.08 -0.08)">
     <defs>
      <path id="DejaVuSans-37" d="M 525 4666 
L 3525 4666 
L 3525 4397 
L 1831 0 
L 1172 0 
L 2766 4134 
L 525 4134 
L 525 4666 
z
" transform="scale(0.015625)"/>
     </defs>
     <use xlink:href="#DejaVuSans-37"/>
     <use xlink:href="#DejaVuSans-32" transform="translate(63.623047 0)"/>
    </g>
   </g>
   <g id="text_15">
    <!-- 87 -->
    <g style="fill: #e8eefc" transform="translate(413.579418 93.279705) scale(0.08 -0.08)">
     <use xlink:href="#DejaVuSans-38"/>
     <use xlink:href="#DejaVuSans-37" transform="translate(63.623047 0)"/>
    </g>
   </g>
   <g id="text_16">
    <!-- 42 -->
    <g style="fill: #e8eefc" transform="translate(113.346074 201.255248) scale(0.08 -0.08)">
     <use xlink:href="#DejaVuSans-34"/>
     <use xlink:href="#DejaVuSans-32" transform="translate(63.623047 0)"/>
    </g>
   </g>
   <g id="text_17">
    <!-- 44 -->
    <g style="fill: #e8eefc" transform="translate(274.185365 197.334249) scale(0.08 -0.08)">
     <use xlink:href="#DejaVuSans-34"/>
     <use xlink:href="#DejaVuSans-34" transform="translate(63.623047 0)"/>
    </g>
   </g>
   <g id="text_18">
    <!-- 47 -->
    <g style="fill: #e8eefc" transform="translate(435.024656 188.645853) scale(0.08 -0.08)">
     <use xlink:href="#DejaVuSans-34"/>
     <use xlink:href="#DejaVuSans-37" transform="translate(63.623047 0)"/>
    </g>
   </g>
   <g id="text_19">
    <!-- 39 -->
    <g style="fill: #e8eefc" transform="translate(134.791313 208.285206) scale(0.08 -0.08)">
     <use xlink:href="#DejaVuSans-33"/>
     <use xlink:href="#DejaVuSans-39" transform="translate(63.623047 0)"/>
    </g>
   </g>
   <g id="text_20">
    <!-- 40 -->
    <g style="fill: #e8eefc" transform="translate(295.630604 205.650723) scale(0.08 -0.08)">
     <use xlink:href="#DejaVuSans-34"/>
     <use xlink:href="#DejaVuSans-30" transform="translate(63.623047 0)"/>
    </g>
   </g>
   <g id="text_21">
    <!-- 48 -->
    <g style="fill: #e8eefc" transform="translate(456.469895 186.154259) scale(0.08 -0.08)">
     <use xlink:href="#DejaVuSans-34"/>
     <use xlink:href="#DejaVuSans-38" transform="translate(63.623047 0)"/>
    </g>
   </g>
   <g id="text_22">
    <!-- 48 -->
    <g style="fill: #e8eefc" transform="translate(156.236552 186.058518) scale(0.08 -0.08)">
     <use xlink:href="#DejaVuSans-34"/>
     <use xlink:href="#DejaVuSans-38" transform="translate(63.623047 0)"/>
    </g>
   </g>
   <g id="text_23">
    <!-- TTFT Median (ms) -->
    <g style="fill: #e8eefc" transform="translate(215.028058 76.08) scale(0.12 -0.12)">
     <defs>
      <path id="DejaVuSans-4d" d="M 628 4666 
L 1569 4666 
L 2759 1491 
L 3956 4666 
L 4897 4666 
L 4897 0 
L 4281 0 
L 4281 4097 
L 3078 897 
L 2444 897 
L 1241 4097 
L 1241 0 
L 628 0 
L 628 4666 
z
" transform="scale(0.015625)"/>
      <path id="DejaVuSans-64" d="M 2906 2969 
L 2906 4863 
L 3481 4863 
L 3481 0 
L 2906 0 
L 2906 525 
Q 2725 213 2448 61 
Q 2172 -91 1784 -91 
Q 1150 -91 751 415 
Q 353 922 353 1747 
Q 353 2572 751 3078 
Q 1150 3584 1784 3584 
Q 2172 3584 2448 3432 
Q 2725 3281 2906 2969 
z
M 947 1747 
Q 947 1113 1208 752 
Q 1469 391 1925 391 
Q 2381 391 2643 752 
Q 2906 1113 2906 1747 
Q 2906 2381 2643 2742 
Q 2381 3103 1925 3103 
Q 1469 3103 1208 2742 
Q 947 2381 947 1747 
z
" transform="scale(0.015625)"/>
     </defs>
     <use xlink:href="#DejaVuSans-54"/>
     <use xlink:href="#DejaVuSans-54" transform="translate(59.333984 0)"/>
     <use xlink:href="#DejaVuSans-46" transform="translate(120.417969 0)"/>
     <use xlink:href="#DejaVuSans-54" transform="translate(176.1875 0)"/>
     <use xlink:href="#DejaVuSans-20" transform="translate(237.271484 0)"/>
     <use xlink:href="#DejaVuSans-4d" transform="translate(269.058594 0)"/>
     <use xlink:href="#DejaVuSans-65" transform="translate(355.337891 0)"/>
     <use xlink:href="#DejaVuSans-64" transform="translate(416.861328 0)"/>
     <use xlink:href="#DejaVuSans-69" transform="translate(480.337891 0)"/>
     <use xlink:href="#DejaVuSans-61" transform="translate(508.121094 0)"/>
     <use xlink:href="#DejaVuSans-6e" transform="translate(569.400391 0)"/>
     <use xlink:href="#DejaVuSans-20" transform="translate(632.779297 0)"/>
     <use xlink:href="#DejaVuSans-28" transform="translate(664.566406 0)"/>
     <use xlink:href="#DejaVuSans-6d" transform="translate(703.580078 0)"/>
     <use xlink:href="#DejaVuSans-73" transform="translate(800.992188 0)"/>
     <use xlink:href="#DejaVuSans-29" transform="translate(853.091797 0)"/>
    </g>
   </g>
   <g id="legend_1">
    <g id="patch_23">
     <path d="M 50.05 164.935 
L 142.8975 164.935 
Q 144.4975 164.935 144.4975 163.335 
L 144.4975 93.68 
Q 144.4975 92.08 142.8975 92.08 
L 50.05 92.08 
Q 48.45 92.08 48.45 93.68 
L 48.45 163.335 
Q 48.45 164.935 50.05 164.935 
z
" style="fill: #0b1020; opacity: 0.9; stroke: #cccccc; stroke-linejoin: miter"/>
    </g>
    <g id="patch_24">
     <path d="M 51.65 101.35875 
L 67.65 101.35875 
L 67.65 95.75875 
L 51.65 95.75875 
z
" style="fill: #5b8def; stroke: #0b1020; stroke-width: 0.5; stroke-linejoin: miter"/>
    </g>
    <g id="text_24">
     <!-- Baseline vLLM -->
     <g style="fill: #e8eefc" transform="translate(74.05 101.35875) scale(0.08 -0.08)">
      <defs>
       <path id="DejaVuSans-76" d="M 191 3500 
L 800 3500 
L 1894 563 
L 2988 3500 
L 3597 3500 
L 2284 0 
L 1503 0 
L 191 3500 
z
" transform="scale(0.015625)"/>
      </defs>
      <use xlink:href="#DejaVuSans-42"/>
      <use xlink:href="#DejaVuSans-61" transform="translate(68.603516 0)"/>
      <use xlink:href="#DejaVuSans-73" transform="translate(129.882812 0)"/>
      <use xlink:href="#DejaVuSans-65" transform="translate(181.982422 0)"/>
      <use xlink:href="#DejaVuSans-6c" transform="translate(243.505859 0)"/>
      <use xlink:href="#DejaVuSans-69" transform="translate(271.289062 0)"/>
      <use xlink:href="#DejaVuSans-6e" transform="translate(299.072266 0)"/>
      <use xlink:href="#DejaVuSans-65" transform="translate(362.451172 0)"/>
      <use xlink:href="#DejaVuSans-20" transform="translate(423.974609 0)"/>
      <use xlink:href="#DejaVuSans-76" transform="translate(455.761719 0)"/>
      <use xlink:href="#DejaVuSans-4c" transform="translate(514.941406 0)"/>
      <use xlink:href="#DejaVuSans-4c" transform="translate(570.654297 0)"/>
      <use xlink:href="#DejaVuSans-4d" transform="translate(626.367188 0)"/>
     </g>
    </g>
    <g id="patch_25">
     <path d="M 51.65 113.10125 
L 67.65 113.10125 
L 67.65 107.50125 
L 51.65 107.50125 
z
" style="fill: #f5a524; stroke: #0b1020; stroke-width: 0.5; stroke-linejoin: miter"/>
    </g>
    <g id="text_25">
     <!-- Baseline SGLang -->
     <g style="fill: #e8eefc" transform="translate(74.05 113.10125) scale(0.08 -0.08)">
      <defs>
       <path id="DejaVuSans-53" d="M 3425 4513 
L 3425 3897 
Q 3066 4069 2747 4153 
Q 2428 4238 2131 4238 
Q 1616 4238 1336 4038 
Q 1056 3838 1056 3469 
Q 1056 3159 1242 3001 
Q 1428 2844 1947 2747 
L 2328 2669 
Q 3034 2534 3370 2195 
Q 3706 1856 3706 1288 
Q 3706 609 3251 259 
Q 2797 -91 1919 -91 
Q 1588 -91 1214 -16 
Q 841 59 441 206 
L 441 856 
Q 825 641 1194 531 
Q 1563 422 1919 422 
Q 2459 422 2753 634 
Q 3047 847 3047 1241 
Q 3047 1584 2836 1778 
Q 2625 1972 2144 2069 
L 1759 2144 
Q 1053 2284 737 2584 
Q 422 2884 422 3419 
Q 422 4038 858 4394 
Q 1294 4750 2059 4750 
Q 2388 4750 2728 4690 
Q 3069 4631 3425 4513 
z
" transform="scale(0.015625)"/>
       <path id="DejaVuSans-67" d="M 2906 1791 
Q 2906 2416 2648 2759 
Q 2391 3103 1925 3103 
Q 1463 3103 1205 2759 
Q 947 2416 947 1791 
Q 947 1169 1205 825 
Q 1463 481 1925 481 
Q 2391 481 2648 825 
Q 2906 1169 2906 1791 
z
M 3481 434 
Q 3481 -459 3084 -895 
Q 2688 -1331 1869 -1331 
Q 1566 -1331 1297 -1286 
Q 1028 -1241 775 -1147 
L 775 -588 
Q 1028 -725 1275 -790 
Q 1522 -856 1778 -856 
Q 2344 -856 2625 -561 
Q 2906 -266 2906 331 
L 2906 616 
Q 2728 306 2450 153 
Q 2172 0 1784 0 
Q 1141 0 747 490 
Q 353 981 353 1791 
Q 353 2603 747 3093 
Q 1141 3584 1784 3584 
Q 2172 3584 2450 3431 
Q 2728 3278 2906 2969 
L 2906 3500 
L 3481 3500 
L 3481 434 
z
" transform="scale(0.015625)"/>
      </defs>
      <use xlink:href="#DejaVuSans-42"/>
      <use xlink:href="#DejaVuSans-61" transform="translate(68.603516 0)"/>
      <use xlink:href="#DejaVuSans-73" transform="translate(129.882812 0)"/>
      <use xlink:href="#DejaVuSans-65" transform="translate(181.982422 0)"/>
      <use xlink:href="#DejaVuSans-6c" transform="translate(243.505859 0)"/>
      <use xlink:href="#DejaVuSans-69" transform="translate(271.289062 0)"/>
      <use xlink:href="#DejaVuSans-6e" transform="translate(299.072266 0)"/>
      <use xlink:href="#DejaVuSans-65" transform="translate(362.451172 0)"/>
      <use xlink:href="#DejaVuSans-20" transform="translate(423.974609 0)"/>
      <use xlink:href="#DejaVuSans-53" transform="translate(455.761719 0)"/>
      <use xlink:href="#DejaVuSans-47" transform="translate(519.238281 0)"/>
      <use xlink:href="#DejaVuSans-4c" transform="translate(596.728516 0)"/>
      <use xlink:href="#DejaVuSans-61" transform="translate(652.441406 0)"/>
      <use xlink:href="#DejaVuSans-6e" transform="translate(713.720703 0)"/>
      <use xlink:href="#DejaVuSans-67" transform="translate(777.099609 0)"/>
     </g>
    </g>
    <g id="patch_26">
     <path d="M 51.65 124.84375 
L 67.65 124.84375 
L 67.65 119.24375 
L 51.65 119.24375 
z
" style="fill: #7bd389; stroke: #0b1020; stroke-width: 0.5; stroke-linejoin: miter"/>
    </g>
    <g id="text_26">
     <!-- Ngram vLLM -->
     <g style="fill: #e8eefc" transform="translate(74.05 124.84375) scale(0.08 -0.08)">
      <defs>
       <path id="DejaVuSans-4e" d="M 628 4666 
L 1478 4666 
L 3547 763 
L 3547 4666 
L 4159 4666 
L 4159 0 
L 3309 0 
L 1241 3903 
L 1241 0 
L 628 0 
L 628 4666 
z
" transform="scale(0.015625)"/>
      </defs>
      <use xlink:href="#DejaVuSans-4e"/>
      <use xlink:href="#DejaVuSans-67" transform="translate(74.804688 0)"/>
      <use xlink:href="#DejaVuSans-72" transform="translate(138.28125 0)"/>
      <use xlink:href="#DejaVuSans-61" transform="translate(179.394531 0)"/>
      <use xlink:href="#DejaVuSans-6d" transform="translate(240.673828 0)"/>
      <use xlink:href="#DejaVuSans-20" transform="translate(338.085938 0)"/>
      <use xlink:href="#DejaVuSans-76" transform="translate(369.873047 0)"/>
      <use xlink:href="#DejaVuSans-4c" transform="translate(429.052734 0)"/>
      <use xlink:href="#DejaVuSans-4c" transform="translate(484.765625 0)"/>
      <use xlink:href="#DejaVuSans-4d" transform="translate(540.478516 0)"/>
     </g>
    </g>
    <g id="patch_27">
     <path d="M 51.65 136.58625 
L 67.65 136.58625 
L 67.65 130.98625 
L 51.65 130.98625 
z
" style="fill: #c7a8e8; stroke: #0b1020; stroke-width: 0.5; stroke-linejoin: miter"/>
    </g>
    <g id="text_27">
     <!-- Ngram SGLang -->
     <g style="fill: #e8eefc" transform="translate(74.05 136.58625) scale(0.08 -0.08)">
      <use xlink:href="#DejaVuSans-4e"/>
      <use xlink:href="#DejaVuSans-67" transform="translate(74.804688 0)"/>
      <use xlink:href="#DejaVuSans-72" transform="translate(138.28125 0)"/>
      <use xlink:href="#DejaVuSans-61" transform="translate(179.394531 0)"/>
      <use xlink:href="#DejaVuSans-6d" transform="translate(240.673828 0)"/>
      <use xlink:href="#DejaVuSans-20" transform="translate(338.085938 0)"/>
      <use xlink:href="#DejaVuSans-53" transform="translate(369.873047 0)"/>
      <use xlink:href="#DejaVuSans-47" transform="translate(433.349609 0)"/>
      <use xlink:href="#DejaVuSans-4c" transform="translate(510.839844 0)"/>
      <use xlink:href="#DejaVuSans-61" transform="translate(566.552734 0)"/>
      <use xlink:href="#DejaVuSans-6e" transform="translate(627.832031 0)"/>
      <use xlink:href="#DejaVuSans-67" transform="translate(691.210938 0)"/>
     </g>
    </g>
    <g id="patch_28">
     <path d="M 51.65 148.32875 
L 67.65 148.32875 
L 67.65 142.72875 
L 51.65 142.72875 
z
" style="fill: #e05d78; stroke: #0b1020; stroke-width: 0.5; stroke-linejoin: miter"/>
    </g>
    <g id="text_28">
     <!-- Eagle3 vLLM -->
     <g style="fill: #e8eefc" transform="translate(74.05 148.32875) scale(0.08 -0.08)">
      <use xlink:href="#DejaVuSans-45"/>
      <use xlink:href="#DejaVuSans-61" transform="translate(63.183594 0)"/>
      <use xlink:href="#DejaVuSans-67" transform="translate(124.462891 0)"/>
      <use xlink:href="#DejaVuSans-6c" transform="translate(187.939453 0)"/>
      <use xlink:href="#DejaVuSans-65" transform="translate(215.722656 0)"/>
      <use xlink:href="#DejaVuSans-33" transform="translate(277.246094 0)"/>
      <use xlink:href="#DejaVuSans-20" transform="translate(340.869141 0)"/>
      <use xlink:href="#DejaVuSans-76" transform="translate(372.65625 0)"/>
      <use xlink:href="#DejaVuSans-4c" transform="translate(431.835938 0)"/>
      <use xlink:href="#DejaVuSans-4c" transform="translate(487.548828 0)"/>
      <use xlink:href="#DejaVuSans-4d" transform="translate(543.261719 0)"/>
     </g>
    </g>
    <g id="patch_29">
     <path d="M 51.65 160.07125 
L 67.65 160.07125 
L 67.65 154.47125 
L 51.65 154.47125 
z
" style="fill: #e8b8a8; stroke: #0b1020; stroke-width: 0.5; stroke-linejoin: miter"/>
    </g>
    <g id="text_29">
     <!-- Eagle3 SGLang -->
     <g style="fill: #e8eefc" transform="translate(74.05 160.07125) scale(0.08 -0.08)">
      <use xlink:href="#DejaVuSans-45"/>
      <use xlink:href="#DejaVuSans-61" transform="translate(63.183594 0)"/>
      <use xlink:href="#DejaVuSans-67" transform="translate(124.462891 0)"/>
      <use xlink:href="#DejaVuSans-6c" transform="translate(187.939453 0)"/>
      <use xlink:href="#DejaVuSans-65" transform="translate(215.722656 0)"/>
      <use xlink:href="#DejaVuSans-33" transform="translate(277.246094 0)"/>
      <use xlink:href="#DejaVuSans-20" transform="translate(340.869141 0)"/>
      <use xlink:href="#DejaVuSans-53" transform="translate(372.65625 0)"/>
      <use xlink:href="#DejaVuSans-47" transform="translate(436.132812 0)"/>
      <use xlink:href="#DejaVuSans-4c" transform="translate(513.623047 0)"/>
      <use xlink:href="#DejaVuSans-61" transform="translate(569.335938 0)"/>
      <use xlink:href="#DejaVuSans-6e" transform="translate(630.615234 0)"/>
      <use xlink:href="#DejaVuSans-67" transform="translate(693.994141 0)"/>
     </g>
    </g>
   </g>
  </g>
  <g id="axes_2">
   <g id="patch_30">
    <path d="M 546.2375 308.3976 
L 994.442992 308.3976 
L 994.442992 88.08 
L 546.2375 88.08 
z
" style="fill: #0b1020"/>
   </g>
   <g id="matplotlib.axis_3">
    <g id="xtick_4">
     <g id="line2d_14">
      <g>
       <use xlink:href="#mbb31f5ab9d" x="630.946193" y="308.3976" style="fill: #9fb0d0; stroke: #9fb0d0; stroke-width: 0.8"/>
      </g>
     </g>
     <g id="text_30">
      <!-- Llama 3.1 8B -->
      <g style="fill: #9fb0d0" transform="translate(598.03135 322.996038) scale(0.1 -0.1)">
       <use xlink:href="#DejaVuSans-4c"/>
       <use xlink:href="#DejaVuSans-6c" transform="translate(55.712891 0)"/>
       <use xlink:href="#DejaVuSans-61" transform="translate(83.496094 0)"/>
       <use xlink:href="#DejaVuSans-6d" transform="translate(144.775391 0)"/>
       <use xlink:href="#DejaVuSans-61" transform="translate(242.1875 0)"/>
       <use xlink:href="#DejaVuSans-20" transform="translate(303.466797 0)"/>
       <use xlink:href="#DejaVuSans-33" transform="translate(335.253906 0)"/>
       <use xlink:href="#DejaVuSans-2e" transform="translate(398.876953 0)"/>
       <use xlink:href="#DejaVuSans-31" transform="translate(430.664062 0)"/>
       <use xlink:href="#DejaVuSans-20" transform="translate(494.287109 0)"/>
       <use xlink:href="#DejaVuSans-38" transform="translate(526.074219 0)"/>
       <use xlink:href="#DejaVuSans-42" transform="translate(589.697266 0)"/>
      </g>
     </g>
    </g>
    <g id="xtick_5">
     <g id="line2d_15">
      <g>
       <use xlink:href="#mbb31f5ab9d" x="791.785485" y="308.3976" style="fill: #9fb0d0; stroke: #9fb0d0; stroke-width: 0.8"/>
      </g>
     </g>
     <g id="text_31">
      <!-- Qwen3 8B -->
      <g style="fill: #9fb0d0" transform="translate(766.133141 322.996038) scale(0.1 -0.1)">
       <use xlink:href="#DejaVuSans-51"/>
       <use xlink:href="#DejaVuSans-77" transform="translate(78.710938 0)"/>
       <use xlink:href="#DejaVuSans-65" transform="translate(160.498047 0)"/>
       <use xlink:href="#DejaVuSans-6e" transform="translate(222.021484 0)"/>
       <use xlink:href="#DejaVuSans-33" transform="translate(285.400391 0)"/>
       <use xlink:href="#DejaVuSans-20" transform="translate(349.023438 0)"/>
       <use xlink:href="#DejaVuSans-38" transform="translate(380.810547 0)"/>
       <use xlink:href="#DejaVuSans-42" transform="translate(444.433594 0)"/>
      </g>
     </g>
    </g>
    <g id="xtick_6">
     <g id="line2d_16">
      <g>
       <use xlink:href="#mbb31f5ab9d" x="952.624776" y="308.3976" style="fill: #9fb0d0; stroke: #9fb0d0; stroke-width: 0.8"/>
      </g>
     </g>
     <g id="text_32">
      <!-- Gemma 4 E4B -->
      <g style="fill: #9fb0d0" transform="translate(916.738838 322.996038) scale(0.1 -0.1)">
       <use xlink:href="#DejaVuSans-47"/>
       <use xlink:href="#DejaVuSans-65" transform="translate(77.490234 0)"/>
       <use xlink:href="#DejaVuSans-6d" transform="translate(139.013672 0)"/>
       <use xlink:href="#DejaVuSans-6d" transform="translate(236.425781 0)"/>
       <use xlink:href="#DejaVuSans-61" transform="translate(333.837891 0)"/>
       <use xlink:href="#DejaVuSans-20" transform="translate(395.117188 0)"/>
       <use xlink:href="#DejaVuSans-34" transform="translate(426.904297 0)"/>
       <use xlink:href="#DejaVuSans-20" transform="translate(490.527344 0)"/>
       <use xlink:href="#DejaVuSans-45" transform="translate(522.314453 0)"/>
       <use xlink:href="#DejaVuSans-34" transform="translate(585.498047 0)"/>
       <use xlink:href="#DejaVuSans-42" transform="translate(649.121094 0)"/>
      </g>
     </g>
    </g>
   </g>
   <g id="matplotlib.axis_4">
    <g id="ytick_6">
     <g id="line2d_17">
      <path d="M 546.2375 308.3976 
L 994.442992 308.3976 
" clip-path="url(#pfb2c42eed8)" style="fill: none; stroke-dasharray: 2.22,0.96; stroke-dashoffset: 0; stroke: #27335a; stroke-opacity: 0.4; stroke-width: 0.6"/>
     </g>
     <g id="line2d_18">
      <g>
       <use xlink:href="#m944b5113c7" x="546.2375" y="308.3976" style="fill: #9fb0d0; stroke: #9fb0d0; stroke-width: 0.8"/>
      </g>
     </g>
     <g id="text_33">
      <!-- 0 -->
      <g style="fill: #9fb0d0" transform="translate(532.875 312.196819) scale(0.1 -0.1)">
       <use xlink:href="#DejaVuSans-30"/>
      </g>
     </g>
    </g>
    <g id="ytick_7">
     <g id="line2d_19">
      <path d="M 546.2375 267.28065 
L 994.442992 267.28065 
" clip-path="url(#pfb2c42eed8)" style="fill: none; stroke-dasharray: 2.22,0.96; stroke-dashoffset: 0; stroke: #27335a; stroke-opacity: 0.4; stroke-width: 0.6"/>
     </g>
     <g id="line2d_20">
      <g>
       <use xlink:href="#m944b5113c7" x="546.2375" y="267.28065" style="fill: #9fb0d0; stroke: #9fb0d0; stroke-width: 0.8"/>
      </g>
     </g>
     <g id="text_34">
      <!-- 20 -->
      <g style="fill: #9fb0d0" transform="translate(526.5125 271.079868) scale(0.1 -0.1)">
       <use xlink:href="#DejaVuSans-32"/>
       <use xlink:href="#DejaVuSans-30" transform="translate(63.623047 0)"/>
      </g>
     </g>
    </g>
    <g id="ytick_8">
     <g id="line2d_21">
      <path d="M 546.2375 226.163699 
L 994.442992 226.163699 
" clip-path="url(#pfb2c42eed8)" style="fill: none; stroke-dasharray: 2.22,0.96; stroke-dashoffset: 0; stroke: #27335a; stroke-opacity: 0.4; stroke-width: 0.6"/>
     </g>
     <g id="line2d_22">
      <g>
       <use xlink:href="#m944b5113c7" x="546.2375" y="226.163699" style="fill: #9fb0d0; stroke: #9fb0d0; stroke-width: 0.8"/>
      </g>
     </g>
     <g id="text_35">
      <!-- 40 -->
      <g style="fill: #9fb0d0" transform="translate(526.5125 229.962918) scale(0.1 -0.1)">
       <use xlink:href="#DejaVuSans-34"/>
       <use xlink:href="#DejaVuSans-30" transform="translate(63.623047 0)"/>
      </g>
     </g>
    </g>
    <g id="ytick_9">
     <g id="line2d_23">
      <path d="M 546.2375 185.046749 
L 994.442992 185.046749 
" clip-path="url(#pfb2c42eed8)" style="fill: none; stroke-dasharray: 2.22,0.96; stroke-dashoffset: 0; stroke: #27335a; stroke-opacity: 0.4; stroke-width: 0.6"/>
     </g>
     <g id="line2d_24">
      <g>
       <use xlink:href="#m944b5113c7" x="546.2375" y="185.046749" style="fill: #9fb0d0; stroke: #9fb0d0; stroke-width: 0.8"/>
      </g>
     </g>
     <g id="text_36">
      <!-- 60 -->
      <g style="fill: #9fb0d0" transform="translate(526.5125 188.845968) scale(0.1 -0.1)">
       <use xlink:href="#DejaVuSans-36"/>
       <use xlink:href="#DejaVuSans-30" transform="translate(63.623047 0)"/>
      </g>
     </g>
    </g>
    <g id="ytick_10">
     <g id="line2d_25">
      <path d="M 546.2375 143.929799 
L 994.442992 143.929799 
" clip-path="url(#pfb2c42eed8)" style="fill: none; stroke-dasharray: 2.22,0.96; stroke-dashoffset: 0; stroke: #27335a; stroke-opacity: 0.4; stroke-width: 0.6"/>
     </g>
     <g id="line2d_26">
      <g>
       <use xlink:href="#m944b5113c7" x="546.2375" y="143.929799" style="fill: #9fb0d0; stroke: #9fb0d0; stroke-width: 0.8"/>
      </g>
     </g>
     <g id="text_37">
      <!-- 80 -->
      <g style="fill: #9fb0d0" transform="translate(526.5125 147.729017) scale(0.1 -0.1)">
       <use xlink:href="#DejaVuSans-38"/>
       <use xlink:href="#DejaVuSans-30" transform="translate(63.623047 0)"/>
      </g>
     </g>
    </g>
    <g id="ytick_11">
     <g id="line2d_27">
      <path d="M 546.2375 102.812848 
L 994.442992 102.812848 
" clip-path="url(#pfb2c42eed8)" style="fill: none; stroke-dasharray: 2.22,0.96; stroke-dashoffset: 0; stroke: #27335a; stroke-opacity: 0.4; stroke-width: 0.6"/>
     </g>
     <g id="line2d_28">
      <g>
       <use xlink:href="#m944b5113c7" x="546.2375" y="102.812848" style="fill: #9fb0d0; stroke: #9fb0d0; stroke-width: 0.8"/>
      </g>
     </g>
     <g id="text_38">
      <!-- 100 -->
      <g style="fill: #9fb0d0" transform="translate(520.15 106.612067) scale(0.1 -0.1)">
       <use xlink:href="#DejaVuSans-31"/>
       <use xlink:href="#DejaVuSans-30" transform="translate(63.623047 0)"/>
       <use xlink:href="#DejaVuSans-30" transform="translate(127.246094 0)"/>
      </g>
     </g>
    </g>
    <g id="text_39">
     <!-- Tokens/sec — higher is better -->
     <g style="fill: #e8eefc" transform="translate(514.070312 271.866925) rotate(-90) scale(0.1 -0.1)">
      <defs>
       <path id="DejaVuSans-6b" d="M 581 4863 
L 1159 4863 
L 1159 1991 
L 2875 3500 
L 3609 3500 
L 1753 1863 
L 3688 0 
L 2938 0 
L 1159 1709 
L 1159 0 
L 581 0 
L 581 4863 
z
" transform="scale(0.015625)"/>
       <path id="DejaVuSans-2f" d="M 1625 4666 
L 2156 4666 
L 531 -594 
L 0 -594 
L 1625 4666 
z
" transform="scale(0.015625)"/>
       <path id="DejaVuSans-63" d="M 3122 3366 
L 3122 2828 
Q 2878 2963 2633 3030 
Q 2388 3097 2138 3097 
Q 1578 3097 1268 2742 
Q 959 2388 959 1747 
Q 959 1106 1268 751 
Q 1578 397 2138 397 
Q 2388 397 2633 464 
Q 2878 531 3122 666 
L 3122 134 
Q 2881 22 2623 -34 
Q 2366 -91 2075 -91 
Q 1284 -91 818 406 
Q 353 903 353 1747 
Q 353 2603 823 3093 
Q 1294 3584 2113 3584 
Q 2378 3584 2631 3529 
Q 2884 3475 3122 3366 
z
" transform="scale(0.015625)"/>
       <path id="DejaVuSans-68" d="M 3513 2113 
L 3513 0 
L 2938 0 
L 2938 2094 
Q 2938 2591 2744 2837 
Q 2550 3084 2163 3084 
Q 1697 3084 1428 2787 
Q 1159 2491 1159 1978 
L 1159 0 
L 581 0 
L 581 4863 
L 1159 4863 
L 1159 2956 
Q 1366 3272 1645 3428 
Q 1925 3584 2291 3584 
Q 2894 3584 3203 3211 
Q 3513 2838 3513 2113 
z
" transform="scale(0.015625)"/>
      </defs>
      <use xlink:href="#DejaVuSans-54"/>
      <use xlink:href="#DejaVuSans-6f" transform="translate(44.083984 0)"/>
      <use xlink:href="#DejaVuSans-6b" transform="translate(105.265625 0)"/>
      <use xlink:href="#DejaVuSans-65" transform="translate(159.550781 0)"/>
      <use xlink:href="#DejaVuSans-6e" transform="translate(221.074219 0)"/>
      <use xlink:href="#DejaVuSans-73" transform="translate(284.453125 0)"/>
      <use xlink:href="#DejaVuSans-2f" transform="translate(336.552734 0)"/>
      <use xlink:href="#DejaVuSans-73" transform="translate(370.244141 0)"/>
      <use xlink:href="#DejaVuSans-65" transform="translate(422.34375 0)"/>
      <use xlink:href="#DejaVuSans-63" transform="translate(483.867188 0)"/>
      <use xlink:href="#DejaVuSans-20" transform="translate(538.847656 0)"/>
      <use xlink:href="#DejaVuSans-2014" transform="translate(570.634766 0)"/>
      <use xlink:href="#DejaVuSans-20" transform="translate(670.634766 0)"/>
      <use xlink:href="#DejaVuSans-68" transform="translate(702.421875 0)"/>
      <use xlink:href="#DejaVuSans-69" transform="translate(765.800781 0)"/>
      <use xlink:href="#DejaVuSans-67" transform="translate(793.583984 0)"/>
      <use xlink:href="#DejaVuSans-68" transform="translate(857.060547 0)"/>
      <use xlink:href="#DejaVuSans-65" transform="translate(920.439453 0)"/>
      <use xlink:href="#DejaVuSans-72" transform="translate(981.962891 0)"/>
      <use xlink:href="#DejaVuSans-20" transform="translate(1023.076172 0)"/>
      <use xlink:href="#DejaVuSans-69" transform="translate(1054.863281 0)"/>
      <use xlink:href="#DejaVuSans-73" transform="translate(1082.646484 0)"/>
      <use xlink:href="#DejaVuSans-20" transform="translate(1134.746094 0)"/>
      <use xlink:href="#DejaVuSans-62" transform="translate(1166.533203 0)"/>
      <use xlink:href="#DejaVuSans-65" transform="translate(1230.009766 0)"/>
      <use xlink:href="#DejaVuSans-74" transform="translate(1291.533203 0)"/>
      <use xlink:href="#DejaVuSans-74" transform="translate(1330.742188 0)"/>
      <use xlink:href="#DejaVuSans-65" transform="translate(1369.951172 0)"/>
      <use xlink:href="#DejaVuSans-72" transform="translate(1431.474609 0)"/>
     </g>
    </g>
   </g>
   <g id="patch_31">
    <path d="M 566.610477 308.3976 
L 588.055716 308.3976 
L 588.055716 99.235359 
L 566.610477 99.235359 
z
" clip-path="url(#pfb2c42eed8)" style="fill: #5b8def; stroke: #0b1020; stroke-width: 0.5; stroke-linejoin: miter"/>
   </g>
   <g id="patch_32">
    <path d="M 727.449768 308.3976 
L 748.895007 308.3976 
L 748.895007 106.344644 
L 727.449768 106.344644 
z
" clip-path="url(#pfb2c42eed8)" style="fill: #5b8def; stroke: #0b1020; stroke-width: 0.5; stroke-linejoin: miter"/>
   </g>
   <g id="patch_33">
    <path d="M 888.289059 308.3976 
L 909.734298 308.3976 
L 909.734298 136.090715 
L 888.289059 136.090715 
z
" clip-path="url(#pfb2c42eed8)" style="fill: #5b8def; stroke: #0b1020; stroke-width: 0.5; stroke-linejoin: miter"/>
   </g>
   <g id="patch_34">
    <path d="M 588.055716 308.3976 
L 609.500955 308.3976 
L 609.500955 98.571314 
L 588.055716 98.571314 
z
" clip-path="url(#pfb2c42eed8)" style="fill: #f5a524; stroke: #0b1020; stroke-width: 0.5; stroke-linejoin: miter"/>
   </g>
   <g id="patch_35">
    <path d="M 748.895007 308.3976 
L 770.340246 308.3976 
L 770.340246 105.83755 
L 748.895007 105.83755 
z
" clip-path="url(#pfb2c42eed8)" style="fill: #f5a524; stroke: #0b1020; stroke-width: 0.5; stroke-linejoin: miter"/>
   </g>
   <g id="patch_36">
    <path d="M 909.734298 308.3976 
L 931.179537 308.3976 
L 931.179537 141.349079 
L 909.734298 141.349079 
z
" clip-path="url(#pfb2c42eed8)" style="fill: #f5a524; stroke: #0b1020; stroke-width: 0.5; stroke-linejoin: miter"/>
   </g>
   <g id="patch_37">
    <path d="M 609.500955 308.3976 
L 630.946193 308.3976 
L 630.946193 112.131506 
L 609.500955 112.131506 
z
" clip-path="url(#pfb2c42eed8)" style="fill: #7bd389; stroke: #0b1020; stroke-width: 0.5; stroke-linejoin: miter"/>
   </g>
   <g id="patch_38">
    <path d="M 770.340246 308.3976 
L 791.785485 308.3976 
L 791.785485 120.402005 
L 770.340246 120.402005 
z
" clip-path="url(#pfb2c42eed8)" style="fill: #7bd389; stroke: #0b1020; stroke-width: 0.5; stroke-linejoin: miter"/>
   </g>
   <g id="patch_39">
    <path d="M 931.179537 308.3976 
L 952.624776 308.3976 
L 952.624776 149.888014 
L 931.179537 149.888014 
z
" clip-path="url(#pfb2c42eed8)" style="fill: #7bd389; stroke: #0b1020; stroke-width: 0.5; stroke-linejoin: miter"/>
   </g>
   <g id="patch_40">
    <path d="M 630.946193 308.3976 
L 652.391432 308.3976 
L 652.391432 158.180001 
L 630.946193 158.180001 
z
" clip-path="url(#pfb2c42eed8)" style="fill: #c7a8e8; stroke: #0b1020; stroke-width: 0.5; stroke-linejoin: miter"/>
   </g>
   <g id="patch_41">
    <path d="M 791.785485 308.3976 
L 813.230723 308.3976 
L 813.230723 177.77063 
L 791.785485 177.77063 
z
" clip-path="url(#pfb2c42eed8)" style="fill: #c7a8e8; stroke: #0b1020; stroke-width: 0.5; stroke-linejoin: miter"/>
   </g>
   <g id="patch_42">
    <path d="M 952.624776 308.3976 
L 974.070015 308.3976 
L 974.070015 189.077823 
L 952.624776 189.077823 
z
" clip-path="url(#pfb2c42eed8)" style="fill: #c7a8e8; stroke: #0b1020; stroke-width: 0.5; stroke-linejoin: miter"/>
   </g>
   <g id="patch_43">
    <path d="M 652.391432 308.3976 
L 673.836671 308.3976 
L 673.836671 139.0096 
L 652.391432 139.0096 
z
" clip-path="url(#pfb2c42eed8)" style="fill: #e05d78; stroke: #0b1020; stroke-width: 0.5; stroke-linejoin: miter"/>
   </g>
   <g id="patch_44">
    <path d="M 0 0 
z
" clip-path="url(#pfb2c42eed8)" style="fill: #e05d78; stroke: #0b1020; stroke-width: 0.5; stroke-linejoin: miter"/>
   </g>
   <g id="patch_45">
    <path d="M 0 0 
z
" clip-path="url(#pfb2c42eed8)" style="fill: #e05d78; stroke: #0b1020; stroke-width: 0.5; stroke-linejoin: miter"/>
   </g>
   <g id="patch_46">
    <path d="M 0 0 
z
" clip-path="url(#pfb2c42eed8)" style="fill: #e8b8a8; stroke: #0b1020; stroke-width: 0.5; stroke-linejoin: miter"/>
   </g>
   <g id="patch_47">
    <path d="M 0 0 
z
" clip-path="url(#pfb2c42eed8)" style="fill: #e8b8a8; stroke: #0b1020; stroke-width: 0.5; stroke-linejoin: miter"/>
   </g>
   <g id="patch_48">
    <path d="M 0 0 
z
" clip-path="url(#pfb2c42eed8)" style="fill: #e8b8a8; stroke: #0b1020; stroke-width: 0.5; stroke-linejoin: miter"/>
   </g>
   <g id="patch_49">
    <path d="M 546.2375 308.3976 
L 546.2375 88.08 
" style="fill: none; stroke: #5c6b91; stroke-width: 0.8; stroke-linejoin: miter; stroke-linecap: square"/>
   </g>
   <g id="patch_50">
    <path d="M 546.2375 308.3976 
L 994.442992 308.3976 
" style="fill: none; stroke: #5c6b91; stroke-width: 0.8; stroke-linejoin: miter; stroke-linecap: square"/>
   </g>
   <g id="text_40">
    <!-- 101.7 -->
    <g style="fill: #e8eefc" transform="translate(565.881846 94.487838) scale(0.08 -0.08)">
     <use xlink:href="#DejaVuSans-31"/>
     <use xlink:href="#DejaVuSans-30" transform="translate(63.623047 0)"/>
     <use xlink:href="#DejaVuSans-31" transform="translate(127.246094 0)"/>
     <use xlink:href="#DejaVuSans-2e" transform="translate(190.869141 0)"/>
     <use xlink:href="#DejaVuSans-37" transform="translate(222.65625 0)"/>
    </g>
   </g>
   <g id="text_41">
    <!-- 98.3 -->
    <g style="fill: #e8eefc" transform="translate(729.266138 101.597123) scale(0.08 -0.08)">
     <use xlink:href="#DejaVuSans-39"/>
     <use xlink:href="#DejaVuSans-38" transform="translate(63.623047 0)"/>
     <use xlink:href="#DejaVuSans-2e" transform="translate(127.246094 0)"/>
     <use xlink:href="#DejaVuSans-33" transform="translate(159.033203 0)"/>
    </g>
   </g>
   <g id="text_42">
    <!-- 83.8 -->
    <g style="fill: #e8eefc" transform="translate(890.105429 131.343194) scale(0.08 -0.08)">
     <use xlink:href="#DejaVuSans-38"/>
     <use xlink:href="#DejaVuSans-33" transform="translate(63.623047 0)"/>
     <use xlink:href="#DejaVuSans-2e" transform="translate(127.246094 0)"/>
     <use xlink:href="#DejaVuSans-38" transform="translate(159.033203 0)"/>
    </g>
   </g>
   <g id="text_43">
    <!-- 102.1 -->
    <g style="fill: #e8eefc" transform="translate(587.327085 93.823793) scale(0.08 -0.08)">
     <use xlink:href="#DejaVuSans-31"/>
     <use xlink:href="#DejaVuSans-30" transform="translate(63.623047 0)"/>
     <use xlink:href="#DejaVuSans-32" transform="translate(127.246094 0)"/>
     <use xlink:href="#DejaVuSans-2e" transform="translate(190.869141 0)"/>
     <use xlink:href="#DejaVuSans-31" transform="translate(222.65625 0)"/>
    </g>
   </g>
   <g id="text_44">
    <!-- 98.5 -->
    <g style="fill: #e8eefc" transform="translate(750.711376 101.090029) scale(0.08 -0.08)">
     <defs>
      <path id="DejaVuSans-35" d="M 691 4666 
L 3169 4666 
L 3169 4134 
L 1269 4134 
L 1269 2991 
Q 1406 3038 1543 3061 
Q 1681 3084 1819 3084 
Q 2600 3084 3056 2656 
Q 3513 2228 3513 1497 
Q 3513 744 3044 326 
Q 2575 -91 1722 -91 
Q 1428 -91 1123 -41 
Q 819 9 494 109 
L 494 744 
Q 775 591 1075 516 
Q 1375 441 1709 441 
Q 2250 441 2565 725 
Q 2881 1009 2881 1497 
Q 2881 1984 2565 2268 
Q 2250 2553 1709 2553 
Q 1456 2553 1204 2497 
Q 953 2441 691 2322 
L 691 4666 
z
" transform="scale(0.015625)"/>
     </defs>
     <use xlink:href="#DejaVuSans-39"/>
     <use xlink:href="#DejaVuSans-38" transform="translate(63.623047 0)"/>
     <use xlink:href="#DejaVuSans-2e" transform="translate(127.246094 0)"/>
     <use xlink:href="#DejaVuSans-35" transform="translate(159.033203 0)"/>
    </g>
   </g>
   <g id="text_45">
    <!-- 81.3 -->
    <g style="fill: #e8eefc" transform="translate(911.550668 136.601557) scale(0.08 -0.08)">
     <use xlink:href="#DejaVuSans-38"/>
     <use xlink:href="#DejaVuSans-31" transform="translate(63.623047 0)"/>
     <use xlink:href="#DejaVuSans-2e" transform="translate(127.246094 0)"/>
     <use xlink:href="#DejaVuSans-33" transform="translate(159.033203 0)"/>
    </g>
   </g>
   <g id="text_46">
    <!-- 95.5 -->
    <g style="fill: #e8eefc" transform="translate(611.317324 107.383985) scale(0.08 -0.08)">
     <use xlink:href="#DejaVuSans-39"/>
     <use xlink:href="#DejaVuSans-35" transform="translate(63.623047 0)"/>
     <use xlink:href="#DejaVuSans-2e" transform="translate(127.246094 0)"/>
     <use xlink:href="#DejaVuSans-35" transform="translate(159.033203 0)"/>
    </g>
   </g>
   <g id="text_47">
    <!-- 91.4 -->
    <g style="fill: #e8eefc" transform="translate(772.156615 115.654484) scale(0.08 -0.08)">
     <use xlink:href="#DejaVuSans-39"/>
     <use xlink:href="#DejaVuSans-31" transform="translate(63.623047 0)"/>
     <use xlink:href="#DejaVuSans-2e" transform="translate(127.246094 0)"/>
     <use xlink:href="#DejaVuSans-34" transform="translate(159.033203 0)"/>
    </g>
   </g>
   <g id="text_48">
    <!-- 77.1 -->
    <g style="fill: #e8eefc" transform="translate(932.995906 145.140493) scale(0.08 -0.08)">
     <use xlink:href="#DejaVuSans-37"/>
     <use xlink:href="#DejaVuSans-37" transform="translate(63.623047 0)"/>
     <use xlink:href="#DejaVuSans-2e" transform="translate(127.246094 0)"/>
     <use xlink:href="#DejaVuSans-31" transform="translate(159.033203 0)"/>
    </g>
   </g>
   <g id="text_49">
    <!-- 73.1 -->
    <g style="fill: #e8eefc" transform="translate(632.762563 153.43248) scale(0.08 -0.08)">
     <use xlink:href="#DejaVuSans-37"/>
     <use xlink:href="#DejaVuSans-33" transform="translate(63.623047 0)"/>
     <use xlink:href="#DejaVuSans-2e" transform="translate(127.246094 0)"/>
     <use xlink:href="#DejaVuSans-31" transform="translate(159.033203 0)"/>
    </g>
   </g>
   <g id="text_50">
    <!-- 63.5 -->
    <g style="fill: #e8eefc" transform="translate(793.601854 173.023109) scale(0.08 -0.08)">
     <use xlink:href="#DejaVuSans-36"/>
     <use xlink:href="#DejaVuSans-33" transform="translate(63.623047 0)"/>
     <use xlink:href="#DejaVuSans-2e" transform="translate(127.246094 0)"/>
     <use xlink:href="#DejaVuSans-35" transform="translate(159.033203 0)"/>
    </g>
   </g>
   <g id="text_51">
    <!-- 58.0 -->
    <g style="fill: #e8eefc" transform="translate(954.441145 184.330302) scale(0.08 -0.08)">
     <use xlink:href="#DejaVuSans-35"/>
     <use xlink:href="#DejaVuSans-38" transform="translate(63.623047 0)"/>
     <use xlink:href="#DejaVuSans-2e" transform="translate(127.246094 0)"/>
     <use xlink:href="#DejaVuSans-30" transform="translate(159.033203 0)"/>
    </g>
   </g>
   <g id="text_52">
    <!-- 82.4 -->
    <g style="fill: #e8eefc" transform="translate(654.207802 134.262078) scale(0.08 -0.08)">
     <use xlink:href="#DejaVuSans-38"/>
     <use xlink:href="#DejaVuSans-32" transform="translate(63.623047 0)"/>
     <use xlink:href="#DejaVuSans-2e" transform="translate(127.246094 0)"/>
     <use xlink:href="#DejaVuSans-34" transform="translate(159.033203 0)"/>
    </g>
   </g>
   <g id="text_53">
    <!-- Gemma 4 E2B omitted: single/ramp files emit 0 tokens — rerun pending -->
    <g style="fill: #9fb0d0" transform="translate(625.515246 356.867472) scale(0.08 -0.08)">
     <defs>
      <path id="DejaVuSans-3a" d="M 750 794 
L 1409 794 
L 1409 0 
L 750 0 
L 750 794 
z
M 750 3309 
L 1409 3309 
L 1409 2516 
L 750 2516 
L 750 3309 
z
" transform="scale(0.015625)"/>
      <path id="DejaVuSans-70" d="M 1159 525 
L 1159 -1331 
L 581 -1331 
L 581 3500 
L 1159 3500 
L 1159 2969 
Q 1341 3281 1617 3432 
Q 1894 3584 2278 3584 
Q 2916 3584 3314 3078 
Q 3713 2572 3713 1747 
Q 3713 922 3314 415 
Q 2916 -91 2278 -91 
Q 1894 -91 1617 61 
Q 1341 213 1159 525 
z
M 3116 1747 
Q 3116 2381 2855 2742 
Q 2594 3103 2138 3103 
Q 1681 3103 1420 2742 
Q 1159 2381 1159 1747 
Q 1159 1113 1420 752 
Q 1681 391 2138 391 
Q 2594 391 2855 752 
Q 3116 1113 3116 1747 
z
" transform="scale(0.015625)"/>
      <path id="DejaVuSans-66" d="M 2375 4863 
L 2375 4384 
L 1825 4384 
Q 1516 4384 1395 4259 
Q 1275 4134 1275 3809 
L 1275 3500 
L 2222 3500 
L 2222 3053 
L 1275 3053 
L 1275 0 
L 697 0 
L 697 3053 
L 147 3053 
L 147 3500 
L 697 3500 
L 697 3744 
Q 697 4328 969 4595 
Q 1241 4863 1831 4863 
L 2375 4863 
z
" transform="scale(0.015625)"/>
      <path id="DejaVuSans-75" d="M 544 1381 
L 544 3500 
L 1119 3500 
L 1119 1403 
Q 1119 906 1312 657 
Q 1506 409 1894 409 
Q 2359 409 2629 706 
Q 2900 1003 2900 1516 
L 2900 3500 
L 3475 3500 
L 3475 0 
L 2900 0 
L 2900 538 
Q 2691 219 2414 64 
Q 2138 -91 1772 -91 
Q 1169 -91 856 284 
Q 544 659 544 1381 
z
M 1991 3584 
L 1991 3584 
z
" transform="scale(0.015625)"/>
     </defs>
     <use xlink:href="#DejaVuSans-47"/>
     <use xlink:href="#DejaVuSans-65" transform="translate(77.490234 0)"/>
     <use xlink:href="#DejaVuSans-6d" transform="translate(139.013672 0)"/>
     <use xlink:href="#DejaVuSans-6d" transform="translate(236.425781 0)"/>
     <use xlink:href="#DejaVuSans-61" transform="translate(333.837891 0)"/>
     <use xlink:href="#DejaVuSans-20" transform="translate(395.117188 0)"/>
     <use xlink:href="#DejaVuSans-34" transform="translate(426.904297 0)"/>
     <use xlink:href="#DejaVuSans-20" transform="translate(490.527344 0)"/>
     <use xlink:href="#DejaVuSans-45" transform="translate(522.314453 0)"/>
     <use xlink:href="#DejaVuSans-32" transform="translate(585.498047 0)"/>
     <use xlink:href="#DejaVuSans-42" transform="translate(649.121094 0)"/>
     <use xlink:href="#DejaVuSans-20" transform="translate(717.724609 0)"/>
     <use xlink:href="#DejaVuSans-6f" transform="translate(749.511719 0)"/>
     <use xlink:href="#DejaVuSans-6d" transform="translate(810.693359 0)"/>
     <use xlink:href="#DejaVuSans-69" transform="translate(908.105469 0)"/>
     <use xlink:href="#DejaVuSans-74" transform="translate(935.888672 0)"/>
     <use xlink:href="#DejaVuSans-74" transform="translate(975.097656 0)"/>
     <use xlink:href="#DejaVuSans-65" transform="translate(1014.306641 0)"/>
     <use xlink:href="#DejaVuSans-64" transform="translate(1075.830078 0)"/>
     <use xlink:href="#DejaVuSans-3a" transform="translate(1139.306641 0)"/>
     <use xlink:href="#DejaVuSans-20" transform="translate(1172.998047 0)"/>
     <use xlink:href="#DejaVuSans-73" transform="translate(1204.785156 0)"/>
     <use xlink:href="#DejaVuSans-69" transform="translate(1256.884766 0)"/>
     <use xlink:href="#DejaVuSans-6e" transform="translate(1284.667969 0)"/>
     <use xlink:href="#DejaVuSans-67" transform="translate(1348.046875 0)"/>
     <use xlink:href="#DejaVuSans-6c" transform="translate(1411.523438 0)"/>
     <use xlink:href="#DejaVuSans-65" transform="translate(1439.306641 0)"/>
     <use xlink:href="#DejaVuSans-2f" transform="translate(1500.830078 0)"/>
     <use xlink:href="#DejaVuSans-72" transform="translate(1534.521484 0)"/>
     <use xlink:href="#DejaVuSans-61" transform="translate(1575.634766 0)"/>
     <use xlink:href="#DejaVuSans-6d" transform="translate(1636.914062 0)"/>
     <use xlink:href="#DejaVuSans-70" transform="translate(1734.326172 0)"/>
     <use xlink:href="#DejaVuSans-20" transform="translate(1797.802734 0)"/>
     <use xlink:href="#DejaVuSans-66" transform="translate(1829.589844 0)"/>
     <use xlink:href="#DejaVuSans-69" transform="translate(1864.794922 0)"/>
     <use xlink:href="#DejaVuSans-6c" transform="translate(1892.578125 0)"/>
     <use xlink:href="#DejaVuSans-65" transform="translate(1920.361328 0)"/>
     <use xlink:href="#DejaVuSans-73" transform="translate(1981.884766 0)"/>
     <use xlink:href="#DejaVuSans-20" transform="translate(2033.984375 0)"/>
     <use xlink:href="#DejaVuSans-65" transform="translate(2065.771484 0)"/>
     <use xlink:href="#DejaVuSans-6d" transform="translate(2127.294922 0)"/>
     <use xlink:href="#DejaVuSans-69" transform="translate(2224.707031 0)"/>
     <use xlink:href="#DejaVuSans-74" transform="translate(2252.490234 0)"/>
     <use xlink:href="#DejaVuSans-20" transform="translate(2291.699219 0)"/>
     <use xlink:href="#DejaVuSans-30" transform="translate(2323.486328 0)"/>
     <use xlink:href="#DejaVuSans-20" transform="translate(2387.109375 0)"/>
     <use xlink:href="#DejaVuSans-74" transform="translate(2418.896484 0)"/>
     <use xlink:href="#DejaVuSans-6f" transform="translate(2458.105469 0)"/>
     <use xlink:href="#DejaVuSans-6b" transform="translate(2519.287109 0)"/>
     <use xlink:href="#DejaVuSans-65" transform="translate(2573.572266 0)"/>
     <use xlink:href="#DejaVuSans-6e" transform="translate(2635.095703 0)"/>
     <use xlink:href="#DejaVuSans-73" transform="translate(2698.474609 0)"/>
     <use xlink:href="#DejaVuSans-20" transform="translate(2750.574219 0)"/>
     <use xlink:href="#DejaVuSans-2014" transform="translate(2782.361328 0)"/>
     <use xlink:href="#DejaVuSans-20" transform="translate(2882.361328 0)"/>
     <use xlink:href="#DejaVuSans-72" transform="translate(2914.148438 0)"/>
     <use xlink:href="#DejaVuSans-65" transform="translate(2953.011719 0)"/>
     <use xlink:href="#DejaVuSans-72" transform="translate(3014.535156 0)"/>
     <use xlink:href="#DejaVuSans-75" transform="translate(3055.648438 0)"/>
     <use xlink:href="#DejaVuSans-6e" transform="translate(3119.027344 0)"/>
     <use xlink:href="#DejaVuSans-20" transform="translate(3182.40625 0)"/>
     <use xlink:href="#DejaVuSans-70" transform="translate(3214.193359 0)"/>
     <use xlink:href="#DejaVuSans-65" transform="translate(3277.669922 0)"/>
     <use xlink:href="#DejaVuSans-6e" transform="translate(3339.193359 0)"/>
     <use xlink:href="#DejaVuSans-64" transform="translate(3402.572266 0)"/>
     <use xlink:href="#DejaVuSans-69" transform="translate(3466.048828 0)"/>
     <use xlink:href="#DejaVuSans-6e" transform="translate(3493.832031 0)"/>
     <use xlink:href="#DejaVuSans-67" transform="translate(3557.210938 0)"/>
    </g>
   </g>
   <g id="text_54">
    <!-- Peak Throughput (tok/s) -->
    <g style="fill: #e8eefc" transform="translate(698.108683 76.08) scale(0.12 -0.12)">
     <defs>
      <path id="DejaVuSans-50" d="M 1259 4147 
L 1259 2394 
L 2053 2394 
Q 2494 2394 2734 2622 
Q 2975 2850 2975 3272 
Q 2975 3691 2734 3919 
Q 2494 4147 2053 4147 
L 1259 4147 
z
M 628 4666 
L 2053 4666 
Q 2838 4666 3239 4311 
Q 3641 3956 3641 3272 
Q 3641 2581 3239 2228 
Q 2838 1875 2053 1875 
L 1259 1875 
L 1259 0 
L 628 0 
L 628 4666 
z
" transform="scale(0.015625)"/>
     </defs>
     <use xlink:href="#DejaVuSans-50"/>
     <use xlink:href="#DejaVuSans-65" transform="translate(56.677734 0)"/>
     <use xlink:href="#DejaVuSans-61" transform="translate(118.201172 0)"/>
     <use xlink:href="#DejaVuSans-6b" transform="translate(179.480469 0)"/>
     <use xlink:href="#DejaVuSans-20" transform="translate(237.390625 0)"/>
     <use xlink:href="#DejaVuSans-54" transform="translate(269.177734 0)"/>
     <use xlink:href="#DejaVuSans-68" transform="translate(330.261719 0)"/>
     <use xlink:href="#DejaVuSans-72" transform="translate(393.640625 0)"/>
     <use xlink:href="#DejaVuSans-6f" transform="translate(432.503906 0)"/>
     <use xlink:href="#DejaVuSans-75" transform="translate(493.685547 0)"/>
     <use xlink:href="#DejaVuSans-67" transform="translate(557.064453 0)"/>
     <use xlink:href="#DejaVuSans-68" transform="translate(620.541016 0)"/>
     <use xlink:href="#DejaVuSans-70" transform="translate(683.919922 0)"/>
     <use xlink:href="#DejaVuSans-75" transform="translate(747.396484 0)"/>
     <use xlink:href="#DejaVuSans-74" transform="translate(810.775391 0)"/>
     <use xlink:href="#DejaVuSans-20" transform="translate(849.984375 0)"/>
     <use xlink:href="#DejaVuSans-28" transform="translate(881.771484 0)"/>
     <use xlink:href="#DejaVuSans-74" transform="translate(920.785156 0)"/>
     <use xlink:href="#DejaVuSans-6f" transform="translate(959.994141 0)"/>
     <use xlink:href="#DejaVuSans-6b" transform="translate(1021.175781 0)"/>
     <use xlink:href="#DejaVuSans-2f" transform="translate(1079.085938 0)"/>
     <use xlink:href="#DejaVuSans-73" transform="translate(1112.777344 0)"/>
     <use xlink:href="#DejaVuSans-29" transform="translate(1164.876953 0)"/>
    </g>
   </g>
  </g>
  <g id="text_55">
   <!-- Speculative Decoding: Baseline vs Ngram vs Eagle3 -->
   <g style="fill: #e8eefc" transform="translate(299.710469 14.597812) scale(0.14 -0.14)">
    <defs>
     <path id="DejaVuSans-Bold-53" d="M 3834 4519 
L 3834 3531 
Q 3450 3703 3084 3790 
Q 2719 3878 2394 3878 
Q 1963 3878 1756 3759 
Q 1550 3641 1550 3391 
Q 1550 3203 1689 3098 
Q 1828 2994 2194 2919 
L 2706 2816 
Q 3484 2659 3812 2340 
Q 4141 2022 4141 1434 
Q 4141 663 3683 286 
Q 3225 -91 2284 -91 
Q 1841 -91 1394 -6 
Q 947 78 500 244 
L 500 1259 
Q 947 1022 1364 901 
Q 1781 781 2169 781 
Q 2563 781 2772 912 
Q 2981 1044 2981 1288 
Q 2981 1506 2839 1625 
Q 2697 1744 2272 1838 
L 1806 1941 
Q 1106 2091 782 2419 
Q 459 2747 459 3303 
Q 459 4000 909 4375 
Q 1359 4750 2203 4750 
Q 2588 4750 2994 4692 
Q 3400 4634 3834 4519 
z
" transform="scale(0.015625)"/>
     <path id="DejaVuSans-Bold-70" d="M 1656 506 
L 1656 -1331 
L 538 -1331 
L 538 3500 
L 1656 3500 
L 1656 2988 
Q 1888 3294 2169 3439 
Q 2450 3584 2816 3584 
Q 3463 3584 3878 3070 
Q 4294 2556 4294 1747 
Q 4294 938 3878 423 
Q 3463 -91 2816 -91 
Q 2450 -91 2169 54 
Q 1888 200 1656 506 
z
M 2400 2772 
Q 2041 2772 1848 2508 
Q 1656 2244 1656 1747 
Q 1656 1250 1848 986 
Q 2041 722 2400 722 
Q 2759 722 2948 984 
Q 3138 1247 3138 1747 
Q 3138 2247 2948 2509 
Q 2759 2772 2400 2772 
z
" transform="scale(0.015625)"/>
     <path id="DejaVuSans-Bold-65" d="M 4031 1759 
L 4031 1441 
L 1416 1441 
Q 1456 1047 1700 850 
Q 1944 653 2381 653 
Q 2734 653 3104 758 
Q 3475 863 3866 1075 
L 3866 213 
Q 3469 63 3072 -14 
Q 2675 -91 2278 -91 
Q 1328 -91 801 392 
Q 275 875 275 1747 
Q 275 2603 792 3093 
Q 1309 3584 2216 3584 
Q 3041 3584 3536 3087 
Q 4031 2591 4031 1759 
z
M 2881 2131 
Q 2881 2450 2695 2645 
Q 2509 2841 2209 2841 
Q 1884 2841 1681 2658 
Q 1478 2475 1428 2131 
L 2881 2131 
z
" transform="scale(0.015625)"/>
     <path id="DejaVuSans-Bold-63" d="M 3366 3391 
L 3366 2478 
Q 3138 2634 2908 2709 
Q 2678 2784 2431 2784 
Q 1963 2784 1702 2511 
Q 1441 2238 1441 1747 
Q 1441 1256 1702 982 
Q 1963 709 2431 709 
Q 2694 709 2930 787 
Q 3166 866 3366 1019 
L 3366 103 
Q 3103 6 2833 -42 
Q 2563 -91 2291 -91 
Q 1344 -91 809 395 
Q 275 881 275 1747 
Q 275 2613 809 3098 
Q 1344 3584 2291 3584 
Q 2566 3584 2833 3536 
Q 3100 3488 3366 3391 
z
" transform="scale(0.015625)"/>
     <path id="DejaVuSans-Bold-75" d="M 500 1363 
L 500 3500 
L 1625 3500 
L 1625 3150 
Q 1625 2866 1622 2436 
Q 1619 2006 1619 1863 
Q 1619 1441 1641 1255 
Q 1663 1069 1716 984 
Q 1784 875 1895 815 
Q 2006 756 2150 756 
Q 2500 756 2700 1025 
Q 2900 1294 2900 1772 
L 2900 3500 
L 4019 3500 
L 4019 0 
L 2900 0 
L 2900 506 
Q 2647 200 2364 54 
Q 2081 -91 1741 -91 
Q 1134 -91 817 281 
Q 500 653 500 1363 
z
" transform="scale(0.015625)"/>
     <path id="DejaVuSans-Bold-6c" d="M 538 4863 
L 1656 4863 
L 1656 0 
L 538 0 
L 538 4863 
z
" transform="scale(0.015625)"/>
     <path id="DejaVuSans-Bold-61" d="M 2106 1575 
Q 1756 1575 1579 1456 
Q 1403 1338 1403 1106 
Q 1403 894 1545 773 
Q 1688 653 1941 653 
Q 2256 653 2472 879 
Q 2688 1106 2688 1447 
L 2688 1575 
L 2106 1575 
z
M 3816 1997 
L 3816 0 
L 2688 0 
L 2688 519 
Q 2463 200 2181 54 
Q 1900 -91 1497 -91 
Q 953 -91 614 226 
Q 275 544 275 1050 
Q 275 1666 698 1953 
Q 1122 2241 2028 2241 
L 2688 2241 
L 2688 2328 
Q 2688 2594 2478 2717 
Q 2269 2841 1825 2841 
Q 1466 2841 1156 2769 
Q 847 2697 581 2553 
L 581 3406 
Q 941 3494 1303 3539 
Q 1666 3584 2028 3584 
Q 2975 3584 3395 3211 
Q 3816 2838 3816 1997 
z
" transform="scale(0.015625)"/>
     <path id="DejaVuSans-Bold-74" d="M 1759 4494 
L 1759 3500 
L 2913 3500 
L 2913 2700 
L 1759 2700 
L 1759 1216 
Q 1759 972 1856 886 
Q 1953 800 2241 800 
L 2816 800 
L 2816 0 
L 1856 0 
Q 1194 0 917 276 
Q 641 553 641 1216 
L 641 2700 
L 84 2700 
L 84 3500 
L 641 3500 
L 641 4494 
L 1759 4494 
z
" transform="scale(0.015625)"/>
     <path id="DejaVuSans-Bold-69" d="M 538 3500 
L 1656 3500 
L 1656 0 
L 538 0 
L 538 3500 
z
M 538 4863 
L 1656 4863 
L 1656 3950 
L 538 3950 
L 538 4863 
z
" transform="scale(0.015625)"/>
     <path id="DejaVuSans-Bold-76" d="M 97 3500 
L 1216 3500 
L 2088 1081 
L 2956 3500 
L 4078 3500 
L 2700 0 
L 1472 0 
L 97 3500 
z
" transform="scale(0.015625)"/>
     <path id="DejaVuSans-Bold-20" transform="scale(0.015625)"/>
     <path id="DejaVuSans-Bold-44" d="M 1791 3756 
L 1791 909 
L 2222 909 
Q 2959 909 3348 1275 
Q 3738 1641 3738 2338 
Q 3738 3031 3350 3393 
Q 2963 3756 2222 3756 
L 1791 3756 
z
M 588 4666 
L 1856 4666 
Q 2919 4666 3439 4514 
Q 3959 4363 4331 4000 
Q 4659 3684 4818 3271 
Q 4978 2859 4978 2338 
Q 4978 1809 4818 1395 
Q 4659 981 4331 666 
Q 3956 303 3431 151 
Q 2906 0 1856 0 
L 588 0 
L 588 4666 
z
" transform="scale(0.015625)"/>
     <path id="DejaVuSans-Bold-6f" d="M 2203 2784 
Q 1831 2784 1636 2517 
Q 1441 2250 1441 1747 
Q 1441 1244 1636 976 
Q 1831 709 2203 709 
Q 2569 709 2762 976 
Q 2956 1244 2956 1747 
Q 2956 2250 2762 2517 
Q 2569 2784 2203 2784 
z
M 2203 3584 
Q 3106 3584 3614 3096 
Q 4122 2609 4122 1747 
Q 4122 884 3614 396 
Q 3106 -91 2203 -91 
Q 1297 -91 786 396 
Q 275 884 275 1747 
Q 275 2609 786 3096 
Q 1297 3584 2203 3584 
z
" transform="scale(0.015625)"/>
     <path id="DejaVuSans-Bold-64" d="M 2919 2988 
L 2919 4863 
L 4044 4863 
L 4044 0 
L 2919 0 
L 2919 506 
Q 2688 197 2409 53 
Q 2131 -91 1766 -91 
Q 1119 -91 703 423 
Q 288 938 288 1747 
Q 288 2556 703 3070 
Q 1119 3584 1766 3584 
Q 2128 3584 2408 3439 
Q 2688 3294 2919 2988 
z
M 2181 722 
Q 2541 722 2730 984 
Q 2919 1247 2919 1747 
Q 2919 2247 2730 2509 
Q 2541 2772 2181 2772 
Q 1825 2772 1636 2509 
Q 1447 2247 1447 1747 
Q 1447 1247 1636 984 
Q 1825 722 2181 722 
z
" transform="scale(0.015625)"/>
     <path id="DejaVuSans-Bold-6e" d="M 4056 2131 
L 4056 0 
L 2931 0 
L 2931 347 
L 2931 1631 
Q 2931 2084 2911 2256 
Q 2891 2428 2841 2509 
Q 2775 2619 2662 2680 
Q 2550 2741 2406 2741 
Q 2056 2741 1856 2470 
Q 1656 2200 1656 1722 
L 1656 0 
L 538 0 
L 538 3500 
L 1656 3500 
L 1656 2988 
Q 1909 3294 2193 3439 
Q 2478 3584 2822 3584 
Q 3428 3584 3742 3212 
Q 4056 2841 4056 2131 
z
" transform="scale(0.015625)"/>
     <path id="DejaVuSans-Bold-67" d="M 2919 594 
Q 2688 288 2409 144 
Q 2131 0 1766 0 
Q 1125 0 706 504 
Q 288 1009 288 1791 
Q 288 2575 706 3076 
Q 1125 3578 1766 3578 
Q 2131 3578 2409 3434 
Q 2688 3291 2919 2981 
L 2919 3500 
L 4044 3500 
L 4044 353 
Q 4044 -491 3511 -936 
Q 2978 -1381 1966 -1381 
Q 1638 -1381 1331 -1331 
Q 1025 -1281 716 -1178 
L 716 -306 
Q 1009 -475 1290 -558 
Q 1572 -641 1856 -641 
Q 2406 -641 2662 -400 
Q 2919 -159 2919 353 
L 2919 594 
z
M 2181 2772 
Q 1834 2772 1640 2515 
Q 1447 2259 1447 1791 
Q 1447 1309 1634 1061 
Q 1822 813 2181 813 
Q 2531 813 2725 1069 
Q 2919 1325 2919 1791 
Q 2919 2259 2725 2515 
Q 2531 2772 2181 2772 
z
" transform="scale(0.015625)"/>
     <path id="DejaVuSans-Bold-3a" d="M 716 3500 
L 1844 3500 
L 1844 2291 
L 716 2291 
L 716 3500 
z
M 716 1209 
L 1844 1209 
L 1844 0 
L 716 0 
L 716 1209 
z
" transform="scale(0.015625)"/>
     <path id="DejaVuSans-Bold-42" d="M 2456 2859 
Q 2741 2859 2887 2984 
Q 3034 3109 3034 3353 
Q 3034 3594 2887 3720 
Q 2741 3847 2456 3847 
L 1791 3847 
L 1791 2859 
L 2456 2859 
z
M 2497 819 
Q 2859 819 3042 972 
Q 3225 1125 3225 1434 
Q 3225 1738 3044 1889 
Q 2863 2041 2497 2041 
L 1791 2041 
L 1791 819 
L 2497 819 
z
M 3616 2497 
Q 4003 2384 4215 2081 
Q 4428 1778 4428 1338 
Q 4428 663 3972 331 
Q 3516 0 2584 0 
L 588 0 
L 588 4666 
L 2394 4666 
Q 3366 4666 3802 4372 
Q 4238 4078 4238 3431 
Q 4238 3091 4078 2852 
Q 3919 2613 3616 2497 
z
" transform="scale(0.015625)"/>
     <path id="DejaVuSans-Bold-73" d="M 3272 3391 
L 3272 2541 
Q 2913 2691 2578 2766 
Q 2244 2841 1947 2841 
Q 1628 2841 1473 2761 
Q 1319 2681 1319 2516 
Q 1319 2381 1436 2309 
Q 1553 2238 1856 2203 
L 2053 2175 
Q 2913 2066 3209 1816 
Q 3506 1566 3506 1031 
Q 3506 472 3093 190 
Q 2681 -91 1863 -91 
Q 1516 -91 1145 -36 
Q 775 19 384 128 
L 384 978 
Q 719 816 1070 734 
Q 1422 653 1784 653 
Q 2113 653 2278 743 
Q 2444 834 2444 1013 
Q 2444 1163 2330 1236 
Q 2216 1309 1875 1350 
L 1678 1375 
Q 931 1469 631 1722 
Q 331 1975 331 2491 
Q 331 3047 712 3315 
Q 1094 3584 1881 3584 
Q 2191 3584 2531 3537 
Q 2872 3491 3272 3391 
z
" transform="scale(0.015625)"/>
     <path id="DejaVuSans-Bold-4e" d="M 588 4666 
L 1931 4666 
L 3628 1466 
L 3628 4666 
L 4769 4666 
L 4769 0 
L 3425 0 
L 1728 3200 
L 1728 0 
L 588 0 
L 588 4666 
z
" transform="scale(0.015625)"/>
     <path id="DejaVuSans-Bold-72" d="M 3138 2547 
Q 2991 2616 2845 2648 
Q 2700 2681 2553 2681 
Q 2122 2681 1889 2404 
Q 1656 2128 1656 1613 
L 1656 0 
L 538 0 
L 538 3500 
L 1656 3500 
L 1656 2925 
Q 1872 3269 2151 3426 
Q 2431 3584 2822 3584 
Q 2878 3584 2943 3579 
Q 3009 3575 3134 3559 
L 3138 2547 
z
" transform="scale(0.015625)"/>
     <path id="DejaVuSans-Bold-6d" d="M 3781 2919 
Q 3994 3244 4286 3414 
Q 4578 3584 4928 3584 
Q 5531 3584 5847 3212 
Q 6163 2841 6163 2131 
L 6163 0 
L 5038 0 
L 5038 1825 
Q 5041 1866 5042 1909 
Q 5044 1953 5044 2034 
Q 5044 2406 4934 2573 
Q 4825 2741 4581 2741 
Q 4263 2741 4089 2478 
Q 3916 2216 3909 1719 
L 3909 0 
L 2784 0 
L 2784 1825 
Q 2784 2406 2684 2573 
Q 2584 2741 2328 2741 
Q 2006 2741 1831 2477 
Q 1656 2213 1656 1722 
L 1656 0 
L 531 0 
L 531 3500 
L 1656 3500 
L 1656 2988 
Q 1863 3284 2130 3434 
Q 2397 3584 2719 3584 
Q 3081 3584 3359 3409 
Q 3638 3234 3781 2919 
z
" transform="scale(0.015625)"/>
     <path id="DejaVuSans-Bold-45" d="M 588 4666 
L 3834 4666 
L 3834 3756 
L 1791 3756 
L 1791 2888 
L 3713 2888 
L 3713 1978 
L 1791 1978 
L 1791 909 
L 3903 909 
L 3903 0 
L 588 0 
L 588 4666 
z
" transform="scale(0.015625)"/>
     <path id="DejaVuSans-Bold-33" d="M 2981 2516 
Q 3453 2394 3698 2092 
Q 3944 1791 3944 1325 
Q 3944 631 3412 270 
Q 2881 -91 1863 -91 
Q 1503 -91 1142 -33 
Q 781 25 428 141 
L 428 1069 
Q 766 900 1098 814 
Q 1431 728 1753 728 
Q 2231 728 2486 893 
Q 2741 1059 2741 1369 
Q 2741 1688 2480 1852 
Q 2219 2016 1709 2016 
L 1228 2016 
L 1228 2791 
L 1734 2791 
Q 2188 2791 2409 2933 
Q 2631 3075 2631 3366 
Q 2631 3634 2415 3781 
Q 2200 3928 1806 3928 
Q 1516 3928 1219 3862 
Q 922 3797 628 3669 
L 628 4550 
Q 984 4650 1334 4700 
Q 1684 4750 2022 4750 
Q 2931 4750 3382 4451 
Q 3834 4153 3834 3553 
Q 3834 3144 3618 2883 
Q 3403 2622 2981 2516 
z
" transform="scale(0.015625)"/>
    </defs>
    <use xlink:href="#DejaVuSans-Bold-53"/>
    <use xlink:href="#DejaVuSans-Bold-70" transform="translate(72.021484 0)"/>
    <use xlink:href="#DejaVuSans-Bold-65" transform="translate(143.603516 0)"/>
    <use xlink:href="#DejaVuSans-Bold-63" transform="translate(211.425781 0)"/>
    <use xlink:href="#DejaVuSans-Bold-75" transform="translate(270.703125 0)"/>
    <use xlink:href="#DejaVuSans-Bold-6c" transform="translate(341.894531 0)"/>
    <use xlink:href="#DejaVuSans-Bold-61" transform="translate(376.171875 0)"/>
    <use xlink:href="#DejaVuSans-Bold-74" transform="translate(443.652344 0)"/>
    <use xlink:href="#DejaVuSans-Bold-69" transform="translate(491.455078 0)"/>
    <use xlink:href="#DejaVuSans-Bold-76" transform="translate(525.732422 0)"/>
    <use xlink:href="#DejaVuSans-Bold-65" transform="translate(590.917969 0)"/>
    <use xlink:href="#DejaVuSans-Bold-20" transform="translate(658.740234 0)"/>
    <use xlink:href="#DejaVuSans-Bold-44" transform="translate(693.554688 0)"/>
    <use xlink:href="#DejaVuSans-Bold-65" transform="translate(776.5625 0)"/>
    <use xlink:href="#DejaVuSans-Bold-63" transform="translate(844.384766 0)"/>
    <use xlink:href="#DejaVuSans-Bold-6f" transform="translate(903.662109 0)"/>
    <use xlink:href="#DejaVuSans-Bold-64" transform="translate(972.363281 0)"/>
    <use xlink:href="#DejaVuSans-Bold-69" transform="translate(1043.945312 0)"/>
    <use xlink:href="#DejaVuSans-Bold-6e" transform="translate(1078.222656 0)"/>
    <use xlink:href="#DejaVuSans-Bold-67" transform="translate(1149.414062 0)"/>
    <use xlink:href="#DejaVuSans-Bold-3a" transform="translate(1220.996094 0)"/>
    <use xlink:href="#DejaVuSans-Bold-20" transform="translate(1260.986328 0)"/>
    <use xlink:href="#DejaVuSans-Bold-42" transform="translate(1295.800781 0)"/>
    <use xlink:href="#DejaVuSans-Bold-61" transform="translate(1372.021484 0)"/>
    <use xlink:href="#DejaVuSans-Bold-73" transform="translate(1439.501953 0)"/>
    <use xlink:href="#DejaVuSans-Bold-65" transform="translate(1499.023438 0)"/>
    <use xlink:href="#DejaVuSans-Bold-6c" transform="translate(1566.845703 0)"/>
    <use xlink:href="#DejaVuSans-Bold-69" transform="translate(1601.123047 0)"/>
    <use xlink:href="#DejaVuSans-Bold-6e" transform="translate(1635.400391 0)"/>
    <use xlink:href="#DejaVuSans-Bold-65" transform="translate(1706.591797 0)"/>
    <use xlink:href="#DejaVuSans-Bold-20" transform="translate(1774.414062 0)"/>
    <use xlink:href="#DejaVuSans-Bold-76" transform="translate(1809.228516 0)"/>
    <use xlink:href="#DejaVuSans-Bold-73" transform="translate(1874.414062 0)"/>
    <use xlink:href="#DejaVuSans-Bold-20" transform="translate(1933.935547 0)"/>
    <use xlink:href="#DejaVuSans-Bold-4e" transform="translate(1968.75 0)"/>
    <use xlink:href="#DejaVuSans-Bold-67" transform="translate(2052.441406 0)"/>
    <use xlink:href="#DejaVuSans-Bold-72" transform="translate(2124.023438 0)"/>
    <use xlink:href="#DejaVuSans-Bold-61" transform="translate(2173.339844 0)"/>
    <use xlink:href="#DejaVuSans-Bold-6d" transform="translate(2240.820312 0)"/>
    <use xlink:href="#DejaVuSans-Bold-20" transform="translate(2345.019531 0)"/>
    <use xlink:href="#DejaVuSans-Bold-76" transform="translate(2379.833984 0)"/>
    <use xlink:href="#DejaVuSans-Bold-73" transform="translate(2445.019531 0)"/>
    <use xlink:href="#DejaVuSans-Bold-20" transform="translate(2504.541016 0)"/>
    <use xlink:href="#DejaVuSans-Bold-45" transform="translate(2539.355469 0)"/>
    <use xlink:href="#DejaVuSans-Bold-61" transform="translate(2607.666016 0)"/>
    <use xlink:href="#DejaVuSans-Bold-67" transform="translate(2675.146484 0)"/>
    <use xlink:href="#DejaVuSans-Bold-6c" transform="translate(2746.728516 0)"/>
    <use xlink:href="#DejaVuSans-Bold-65" transform="translate(2781.005859 0)"/>
    <use xlink:href="#DejaVuSans-Bold-33" transform="translate(2848.828125 0)"/>
   </g>
  </g>
  <g id="text_56">
   <!-- AWS g5.2xlarge / A10G 24 GB · single-request latency at concurrency 1, throughput at concurrency ramp 1→32 -->
   <g style="fill: #9fb0d0" transform="translate(252.717188 27.72) scale(0.09 -0.09)">
    <defs>
     <path id="DejaVuSans-41" d="M 2188 4044 
L 1331 1722 
L 3047 1722 
L 2188 4044 
z
M 1831 4666 
L 2547 4666 
L 4325 0 
L 3669 0 
L 3244 1197 
L 1141 1197 
L 716 0 
L 50 0 
L 1831 4666 
z
" transform="scale(0.015625)"/>
     <path id="DejaVuSans-57" d="M 213 4666 
L 850 4666 
L 1831 722 
L 2809 4666 
L 3519 4666 
L 4500 722 
L 5478 4666 
L 6119 4666 
L 4947 0 
L 4153 0 
L 3169 4050 
L 2175 0 
L 1381 0 
L 213 4666 
z
" transform="scale(0.015625)"/>
     <path id="DejaVuSans-78" d="M 3513 3500 
L 2247 1797 
L 3578 0 
L 2900 0 
L 1881 1375 
L 863 0 
L 184 0 
L 1544 1831 
L 300 3500 
L 978 3500 
L 1906 2253 
L 2834 3500 
L 3513 3500 
z
" transform="scale(0.015625)"/>
     <path id="DejaVuSans-b7" d="M 684 2619 
L 1344 2619 
L 1344 1825 
L 684 1825 
L 684 2619 
z
" transform="scale(0.015625)"/>
     <path id="DejaVuSans-2d" d="M 313 2009 
L 1997 2009 
L 1997 1497 
L 313 1497 
L 313 2009 
z
" transform="scale(0.015625)"/>
     <path id="DejaVuSans-71" d="M 947 1747 
Q 947 1113 1208 752 
Q 1469 391 1925 391 
Q 2381 391 2643 752 
Q 2906 1113 2906 1747 
Q 2906 2381 2643 2742 
Q 2381 3103 1925 3103 
Q 1469 3103 1208 2742 
Q 947 2381 947 1747 
z
M 2906 525 
Q 2725 213 2448 61 
Q 2172 -91 1784 -91 
Q 1150 -91 751 415 
Q 353 922 353 1747 
Q 353 2572 751 3078 
Q 1150 3584 1784 3584 
Q 2172 3584 2448 3432 
Q 2725 3281 2906 2969 
L 2906 3500 
L 3481 3500 
L 3481 -1331 
L 2906 -1331 
L 2906 525 
z
" transform="scale(0.015625)"/>
     <path id="DejaVuSans-79" d="M 2059 -325 
Q 1816 -950 1584 -1140 
Q 1353 -1331 966 -1331 
L 506 -1331 
L 506 -850 
L 844 -850 
Q 1081 -850 1212 -737 
Q 1344 -625 1503 -206 
L 1606 56 
L 191 3500 
L 800 3500 
L 1894 763 
L 2988 3500 
L 3597 3500 
L 2059 -325 
z
" transform="scale(0.015625)"/>
     <path id="DejaVuSans-2c" d="M 750 794 
L 1409 794 
L 1409 256 
L 897 -744 
L 494 -744 
L 750 256 
L 750 794 
z
" transform="scale(0.015625)"/>
     <path id="DejaVuSans-2192" d="M 5050 2147 
L 5050 1866 
L 3822 638 
L 3447 1013 
L 4175 1741 
L 366 1741 
L 366 2272 
L 4175 2272 
L 3447 3000 
L 3822 3375 
L 5050 2147 
z
" transform="scale(0.015625)"/>
    </defs>
    <use xlink:href="#DejaVuSans-41"/>
    <use xlink:href="#DejaVuSans-57" transform="translate(62.908203 0)"/>
    <use xlink:href="#DejaVuSans-53" transform="translate(161.785156 0)"/>
    <use xlink:href="#DejaVuSans-20" transform="translate(225.261719 0)"/>
    <use xlink:href="#DejaVuSans-67" transform="translate(257.048828 0)"/>
    <use xlink:href="#DejaVuSans-35" transform="translate(320.525391 0)"/>
    <use xlink:href="#DejaVuSans-2e" transform="translate(384.148438 0)"/>
    <use xlink:href="#DejaVuSans-32" transform="translate(415.935547 0)"/>
    <use xlink:href="#DejaVuSans-78" transform="translate(479.558594 0)"/>
    <use xlink:href="#DejaVuSans-6c" transform="translate(538.738281 0)"/>
    <use xlink:href="#DejaVuSans-61" transform="translate(566.521484 0)"/>
    <use xlink:href="#DejaVuSans-72" transform="translate(627.800781 0)"/>
    <use xlink:href="#DejaVuSans-67" transform="translate(667.164062 0)"/>
    <use xlink:href="#DejaVuSans-65" transform="translate(730.640625 0)"/>
    <use xlink:href="#DejaVuSans-20" transform="translate(792.164062 0)"/>
    <use xlink:href="#DejaVuSans-2f" transform="translate(823.951172 0)"/>
    <use xlink:href="#DejaVuSans-20" transform="translate(857.642578 0)"/>
    <use xlink:href="#DejaVuSans-41" transform="translate(889.429688 0)"/>
    <use xlink:href="#DejaVuSans-31" transform="translate(957.837891 0)"/>
    <use xlink:href="#DejaVuSans-30" transform="translate(1021.460938 0)"/>
    <use xlink:href="#DejaVuSans-47" transform="translate(1085.083984 0)"/>
    <use xlink:href="#DejaVuSans-20" transform="translate(1162.574219 0)"/>
    <use xlink:href="#DejaVuSans-32" transform="translate(1194.361328 0)"/>
    <use xlink:href="#DejaVuSans-34" transform="translate(1257.984375 0)"/>
    <use xlink:href="#DejaVuSans-20" transform="translate(1321.607422 0)"/>
    <use xlink:href="#DejaVuSans-47" transform="translate(1353.394531 0)"/>
    <use xlink:href="#DejaVuSans-42" transform="translate(1430.884766 0)"/>
    <use xlink:href="#DejaVuSans-20" transform="translate(1499.488281 0)"/>
    <use xlink:href="#DejaVuSans-b7" transform="translate(1531.275391 0)"/>
    <use xlink:href="#DejaVuSans-20" transform="translate(1563.0625 0)"/>
    <use xlink:href="#DejaVuSans-73" transform="translate(1594.849609 0)"/>
    <use xlink:href="#DejaVuSans-69" transform="translate(1646.949219 0)"/>
    <use xlink:href="#DejaVuSans-6e" transform="translate(1674.732422 0)"/>
    <use xlink:href="#DejaVuSans-67" transform="translate(1738.111328 0)"/>
    <use xlink:href="#DejaVuSans-6c" transform="translate(1801.587891 0)"/>
    <use xlink:href="#DejaVuSans-65" transform="translate(1829.371094 0)"/>
    <use xlink:href="#DejaVuSans-2d" transform="translate(1890.894531 0)"/>
    <use xlink:href="#DejaVuSans-72" transform="translate(1926.978516 0)"/>
    <use xlink:href="#DejaVuSans-65" transform="translate(1965.841797 0)"/>
    <use xlink:href="#DejaVuSans-71" transform="translate(2027.365234 0)"/>
    <use xlink:href="#DejaVuSans-75" transform="translate(2090.841797 0)"/>
    <use xlink:href="#DejaVuSans-65" transform="translate(2154.220703 0)"/>
    <use xlink:href="#DejaVuSans-73" transform="translate(2215.744141 0)"/>
    <use xlink:href="#DejaVuSans-74" transform="translate(2267.84375 0)"/>
    <use xlink:href="#DejaVuSans-20" transform="translate(2307.052734 0)"/>
    <use xlink:href="#DejaVuSans-6c" transform="translate(2338.839844 0)"/>
    <use xlink:href="#DejaVuSans-61" transform="translate(2366.623047 0)"/>
    <use xlink:href="#DejaVuSans-74" transform="translate(2427.902344 0)"/>
    <use xlink:href="#DejaVuSans-65" transform="translate(2467.111328 0)"/>
    <use xlink:href="#DejaVuSans-6e" transform="translate(2528.634766 0)"/>
    <use xlink:href="#DejaVuSans-63" transform="translate(2592.013672 0)"/>
    <use xlink:href="#DejaVuSans-79" transform="translate(2646.994141 0)"/>
    <use xlink:href="#DejaVuSans-20" transform="translate(2706.173828 0)"/>
    <use xlink:href="#DejaVuSans-61" transform="translate(2737.960938 0)"/>
    <use xlink:href="#DejaVuSans-74" transform="translate(2799.240234 0)"/>
    <use xlink:href="#DejaVuSans-20" transform="translate(2838.449219 0)"/>
    <use xlink:href="#DejaVuSans-63" transform="translate(2870.236328 0)"/>
    <use xlink:href="#DejaVuSans-6f" transform="translate(2925.216797 0)"/>
    <use xlink:href="#DejaVuSans-6e" transform="translate(2986.398438 0)"/>
    <use xlink:href="#DejaVuSans-63" transform="translate(3049.777344 0)"/>
    <use xlink:href="#DejaVuSans-75" transform="translate(3104.757812 0)"/>
    <use xlink:href="#DejaVuSans-72" transform="translate(3168.136719 0)"/>
    <use xlink:href="#DejaVuSans-72" transform="translate(3207.5 0)"/>
    <use xlink:href="#DejaVuSans-65" transform="translate(3246.363281 0)"/>
    <use xlink:href="#DejaVuSans-6e" transform="translate(3307.886719 0)"/>
    <use xlink:href="#DejaVuSans-63" transform="translate(3371.265625 0)"/>
    <use xlink:href="#DejaVuSans-79" transform="translate(3426.246094 0)"/>
    <use xlink:href="#DejaVuSans-20" transform="translate(3485.425781 0)"/>
    <use xlink:href="#DejaVuSans-31" transform="translate(3517.212891 0)"/>
    <use xlink:href="#DejaVuSans-2c" transform="translate(3580.835938 0)"/>
    <use xlink:href="#DejaVuSans-20" transform="translate(3612.623047 0)"/>
    <use xlink:href="#DejaVuSans-74" transform="translate(3644.410156 0)"/>
    <use xlink:href="#DejaVuSans-68" transform="translate(3683.619141 0)"/>
    <use xlink:href="#DejaVuSans-72" transform="translate(3746.998047 0)"/>
    <use xlink:href="#DejaVuSans-6f" transform="translate(3785.861328 0)"/>
    <use xlink:href="#DejaVuSans-75" transform="translate(3847.042969 0)"/>
    <use xlink:href="#DejaVuSans-67" transform="translate(3910.421875 0)"/>
    <use xlink:href="#DejaVuSans-68" transform="translate(3973.898438 0)"/>
    <use xlink:href="#DejaVuSans-70" transform="translate(4037.277344 0)"/>
    <use xlink:href="#DejaVuSans-75" transform="translate(4100.753906 0)"/>
    <use xlink:href="#DejaVuSans-74" transform="translate(4164.132812 0)"/>
    <use xlink:href="#DejaVuSans-20" transform="translate(4203.341797 0)"/>
    <use xlink:href="#DejaVuSans-61" transform="translate(4235.128906 0)"/>
    <use xlink:href="#DejaVuSans-74" transform="translate(4296.408203 0)"/>
    <use xlink:href="#DejaVuSans-20" transform="translate(4335.617188 0)"/>
    <use xlink:href="#DejaVuSans-63" transform="translate(4367.404297 0)"/>
    <use xlink:href="#DejaVuSans-6f" transform="translate(4422.384766 0)"/>
    <use xlink:href="#DejaVuSans-6e" transform="translate(4483.566406 0)"/>
    <use xlink:href="#DejaVuSans-63" transform="translate(4546.945312 0)"/>
    <use xlink:href="#DejaVuSans-75" transform="translate(4601.925781 0)"/>
    <use xlink:href="#DejaVuSans-72" transform="translate(4665.304688 0)"/>
    <use xlink:href="#DejaVuSans-72" transform="translate(4704.667969 0)"/>
    <use xlink:href="#DejaVuSans-65" transform="translate(4743.53125 0)"/>
    <use xlink:href="#DejaVuSans-6e" transform="translate(4805.054688 0)"/>
    <use xlink:href="#DejaVuSans-63" transform="translate(4868.433594 0)"/>
    <use xlink:href="#DejaVuSans-79" transform="translate(4923.414062 0)"/>
    <use xlink:href="#DejaVuSans-20" transform="translate(4982.59375 0)"/>
    <use xlink:href="#DejaVuSans-72" transform="translate(5014.380859 0)"/>
    <use xlink:href="#DejaVuSans-61" transform="translate(5055.494141 0)"/>
    <use xlink:href="#DejaVuSans-6d" transform="translate(5116.773438 0)"/>
    <use xlink:href="#DejaVuSans-70" transform="translate(5214.185547 0)"/>
    <use xlink:href="#DejaVuSans-20" transform="translate(5277.662109 0)"/>
    <use xlink:href="#DejaVuSans-31" transform="translate(5309.449219 0)"/>
    <use xlink:href="#DejaVuSans-2192" transform="translate(5373.072266 0)"/>
    <use xlink:href="#DejaVuSans-33" transform="translate(5456.861328 0)"/>
    <use xlink:href="#DejaVuSans-32" transform="translate(5520.484375 0)"/>
   </g>
  </g>
 </g>
 <defs>
  <clipPath id="pedc44c0077">
   <rect x="44.45" y="88.08" width="448.205492" height="220.3176"/>
  </clipPath>
  <clipPath id="pfb2c42eed8">
   <rect x="546.2375" y="88.08" width="448.205492" height="220.3176"/>
  </clipPath>
 </defs>
</svg>
