<svg xmlns="http://www.w3.org/2000/svg" width="1200" height="650" viewBox="0 0 1200 650"><style>text{font-family:system-ui,-apple-system,sans-serif;fill:#e8eefc}.muted{fill:#9fb0d0}.small{font-size:12px}.label{font-size:14px}.title{font-size:28px;font-weight:700}.subtitle{font-size:14px}.axis{stroke:#5c6b91;stroke-width:1}.grid{stroke:#27335a;stroke-width:1}.value{font-size:12px;font-weight:700}.legend{font-size:13px}</style><rect width="1200" height="650" fill="#0b1020"/><text x="100" y="40" class="title">Throughput ramp: latency p95</text><text x="100" y="64" class="subtitle muted">Lower is better • note the Gemma 9B SGLang tail-latency spike</text><line x1="100" y1="540.0" x2="1160" y2="540.0" class="grid"/><text x="88" y="544.0" text-anchor="end" class="small muted">0</text><line x1="100" y1="450.0" x2="1160" y2="450.0" class="grid"/><text x="88" y="454.0" text-anchor="end" class="small muted">2379</text><line x1="100" y1="360.0" x2="1160" y2="360.0" class="grid"/><text x="88" y="364.0" text-anchor="end" class="small muted">4757</text><line x1="100" y1="270.0" x2="1160" y2="270.0" class="grid"/><text x="88" y="274.0" text-anchor="end" class="small muted">7136</text><line x1="100" y1="180.0" x2="1160" y2="180.0" class="grid"/><text x="88" y="184.0" text-anchor="end" class="small muted">9515</text><line x1="100" y1="90.0" x2="1160" y2="90.0" class="grid"/><text x="88" y="94.0" text-anchor="end" class="small muted">11893</text><line x1="100" y1="90" x2="100" y2="540" class="axis"/><line x1="100" y1="540" x2="1160" y2="540" class="axis"/><rect x="138.2" y="452.9" width="55.1" height="87.1" rx="6" fill="#5B8DEF"/><text x="165.7" y="444.9" text-anchor="middle" class="value">2301.1</text><rect x="210.2" y="354.7" width="55.1" height="185.3" rx="6" fill="#F5A524"/><text x="237.8" y="346.7" text-anchor="middle" class="value">4898.1</text><text x="197.5" y="568" text-anchor="middle" class="label">Gemma 2B</text><rect x="350.2" y="212.9" width="55.1" height="327.1" rx="6" fill="#5B8DEF"/><text x="377.7" y="204.9" text-anchor="middle" class="value">8645.5</text><text x="409.5" y="568" text-anchor="middle" class="label">Phi-3 mini</text><rect x="562.2" y="158.2" width="55.1" height="381.8" rx="6" fill="#5B8DEF"/><text x="589.7" y="150.2" text-anchor="middle" class="value">10091.5</text><rect x="634.2" y="177.5" width="55.1" height="362.5" rx="6" fill="#F5A524"/><text x="661.8" y="169.5" text-anchor="middle" class="value">9581.5</text><text x="621.5" y="568" text-anchor="middle" class="label">Qwen 7B</text><rect x="774.2" y="148.7" width="55.1" height="391.3" rx="6" fill="#5B8DEF"/><text x="801.7" y="140.7" text-anchor="middle" class="value">10342.1</text><rect x="846.2" y="149.1" width="55.1" height="390.9" rx="6" fill="#F5A524"/><text x="873.8" y="141.1" text-anchor="middle" class="value">10332.4</text><text x="833.5" y="568" text-anchor="middle" class="label">Mistral 7B</text><rect x="986.2" y="446.0" width="55.1" height="94.0" rx="6" fill="#5B8DEF"/><text x="1013.7" y="438.0" text-anchor="middle" class="value">2483.7</text><rect x="1058.2" y="340.3" width="55.1" height="199.7" rx="6" fill="#F5A524"/><text x="1085.8" y="332.3" text-anchor="middle" class="value">5277.1</text><text x="1045.5" y="568" text-anchor="middle" class="label">Gemma 9B</text><rect x="980" y="34" width="14" height="14" rx="3" fill="#5B8DEF"/><text x="1004" y="45" class="legend">vLLM</text><rect x="980" y="56" width="14" height="14" rx="3" fill="#F5A524"/><text x="1004" y="67" class="legend">SGLang</text><text x="24" y="315.0" transform="rotate(-90 24 315.0)" class="label muted">Latency p95 (ms)</text><text x="100" y="630" class="small muted">Lower is better</text></svg>