<svg xmlns="http://www.w3.org/2000/svg" width="1200" height="650" viewBox="0 0 1200 650"><style>text{font-family:system-ui,-apple-system,sans-serif;fill:#e8eefc}.muted{fill:#9fb0d0}.small{font-size:12px}.label{font-size:14px}.title{font-size:28px;font-weight:700}.subtitle{font-size:14px}.axis{stroke:#5c6b91;stroke-width:1}.grid{stroke:#27335a;stroke-width:1}.value{font-size:12px;font-weight:700}.legend{font-size:13px}</style><rect width="1200" height="650" fill="#0b1020"/><text x="100" y="40" class="title">Throughput ramp: latency p95</text><text x="100" y="64" class="subtitle muted">Lower is better • note the Gemma 9B SGLang tail-latency spike</text><line x1="100" y1="540.0" x2="1160" y2="540.0" class="grid"/><text x="88" y="544.0" text-anchor="end" class="small muted">0</text><line x1="100" y1="450.0" x2="1160" y2="450.0" class="grid"/><text x="88" y="454.0" text-anchor="end" class="small muted">10586</text><line x1="100" y1="360.0" x2="1160" y2="360.0" class="grid"/><text x="88" y="364.0" text-anchor="end" class="small muted">21173</text><line x1="100" y1="270.0" x2="1160" y2="270.0" class="grid"/><text x="88" y="274.0" text-anchor="end" class="small muted">31759</text><line x1="100" y1="180.0" x2="1160" y2="180.0" class="grid"/><text x="88" y="184.0" text-anchor="end" class="small muted">42345</text><line x1="100" y1="90.0" x2="1160" y2="90.0" class="grid"/><text x="88" y="94.0" text-anchor="end" class="small muted">52932</text><line x1="100" y1="90" x2="100" y2="540" class="axis"/><line x1="100" y1="540" x2="1160" y2="540" class="axis"/><rect x="127.3" y="501.0" width="39.4" height="39.0" rx="6" fill="#5B8DEF"/><text x="146.9" y="493.0" text-anchor="middle" class="value">4588.2</text><rect x="178.7" y="498.8" width="39.4" height="41.2" rx="6" fill="#F5A524"/><text x="198.4" y="490.8" text-anchor="middle" class="value">4844.5</text><text x="169.7" y="568" text-anchor="middle" class="label">Gemma 2B</text><rect x="278.7" y="494.0" width="39.4" height="46.0" rx="6" fill="#5B8DEF"/><text x="298.4" y="486.0" text-anchor="middle" class="value">5415.8</text><rect x="330.2" y="492.9" width="39.4" height="47.1" rx="6" fill="#F5A524"/><text x="349.9" y="484.9" text-anchor="middle" class="value">5544.7</text><text x="321.1" y="568" text-anchor="middle" class="label">Llama 3.2 3B</text><rect x="430.1" y="471.4" width="39.4" height="68.6" rx="6" fill="#5B8DEF"/><text x="449.8" y="463.4" text-anchor="middle" class="value">8063.6</text><rect x="481.6" y="476.0" width="39.4" height="64.0" rx="6" fill="#F5A524"/><text x="501.3" y="468.0" text-anchor="middle" class="value">7523.5</text><text x="472.5" y="568" text-anchor="middle" class="label">Phi-3 mini</text><rect x="581.5" y="456.9" width="39.4" height="83.1" rx="6" fill="#5B8DEF"/><text x="601.2" y="448.9" text-anchor="middle" class="value">9772.7</text><rect x="633.0" y="458.9" width="39.4" height="81.1" rx="6" fill="#F5A524"/><text x="652.7" y="450.9" text-anchor="middle" class="value">9542.9</text><text x="623.9" y="568" text-anchor="middle" class="label">Qwen 7B</text><rect x="733.0" y="453.8" width="39.4" height="86.2" rx="6" fill="#5B8DEF"/><text x="752.7" y="445.8" text-anchor="middle" class="value">10139.1</text><rect x="784.5" y="453.9" width="39.4" height="86.1" rx="6" fill="#F5A524"/><text x="804.1" y="445.9" text-anchor="middle" class="value">10122.3</text><text x="775.4" y="568" text-anchor="middle" class="label">Mistral 7B</text><rect x="884.4" y="450.5" width="39.4" height="89.5" rx="6" fill="#5B8DEF"/><text x="904.1" y="442.5" text-anchor="middle" class="value">10523.5</text><rect x="935.9" y="449.7" width="39.4" height="90.3" rx="6" fill="#F5A524"/><text x="955.6" y="441.7" text-anchor="middle" class="value">10617.4</text><text x="926.8" y="568" text-anchor="middle" class="label">Llama 3.1 8B</text><rect x="1035.8" y="417.6" width="39.4" height="122.4" rx="6" fill="#5B8DEF"/><text x="1055.5" y="409.6" text-anchor="middle" class="value">14399.0</text><rect x="1087.3" y="148.7" width="39.4" height="391.3" rx="6" fill="#F5A524"/><text x="1107.0" y="140.7" text-anchor="middle" class="value">46027.4</text><text x="1078.2" y="568" text-anchor="middle" class="label">Gemma 9B</text><rect x="980" y="34" width="14" height="14" rx="3" fill="#5B8DEF"/><text x="1004" y="45" class="legend">vLLM</text><rect x="980" y="56" width="14" height="14" rx="3" fill="#F5A524"/><text x="1004" y="67" class="legend">SGLang</text><text x="24" y="315.0" transform="rotate(-90 24 315.0)" class="label muted">Latency p95 (ms)</text><text x="100" y="630" class="small muted">Lower is better</text></svg>