<svg xmlns="http://www.w3.org/2000/svg" width="1200" height="650" viewBox="0 0 1200 650"><style>text{font-family:system-ui,-apple-system,sans-serif;fill:#e8eefc}.muted{fill:#9fb0d0}.small{font-size:12px}.label{font-size:14px}.title{font-size:28px;font-weight:700}.subtitle{font-size:14px}.axis{stroke:#5c6b91;stroke-width:1}.grid{stroke:#27335a;stroke-width:1}.value{font-size:12px;font-weight:700}.legend{font-size:13px}</style><rect width="1200" height="650" fill="#0b1020"/><text x="100" y="40" class="title">Throughput ramp: latency p95</text><text x="100" y="64" class="subtitle muted">Lower is better • note the Gemma 9B SGLang tail-latency spike</text><line x1="100" y1="540.0" x2="1160" y2="540.0" class="grid"/><text x="88" y="544.0" text-anchor="end" class="small muted">0</text><line x1="100" y1="450.0" x2="1160" y2="450.0" class="grid"/><text x="88" y="454.0" text-anchor="end" class="small muted">10586</text><line x1="100" y1="360.0" x2="1160" y2="360.0" class="grid"/><text x="88" y="364.0" text-anchor="end" class="small muted">21173</text><line x1="100" y1="270.0" x2="1160" y2="270.0" class="grid"/><text x="88" y="274.0" text-anchor="end" class="small muted">31759</text><line x1="100" y1="180.0" x2="1160" y2="180.0" class="grid"/><text x="88" y="184.0" text-anchor="end" class="small muted">42345</text><line x1="100" y1="90.0" x2="1160" y2="90.0" class="grid"/><text x="88" y="94.0" text-anchor="end" class="small muted">52932</text><line x1="100" y1="90" x2="100" y2="540" class="axis"/><line x1="100" y1="540" x2="1160" y2="540" class="axis"/><rect x="121.2" y="501.0" width="30.6" height="39.0" rx="6" fill="#5B8DEF"/><text x="136.5" y="493.0" text-anchor="middle" class="value">4588.2</text><rect x="161.2" y="498.8" width="30.6" height="41.2" rx="6" fill="#F5A524"/><text x="176.6" y="490.8" text-anchor="middle" class="value">4844.5</text><text x="154.2" y="568" text-anchor="middle" class="label">Gemma 2B</text><rect x="239.0" y="494.0" width="30.6" height="46.0" rx="6" fill="#5B8DEF"/><text x="254.3" y="486.0" text-anchor="middle" class="value">5415.8</text><rect x="279.0" y="492.9" width="30.6" height="47.1" rx="6" fill="#F5A524"/><text x="294.3" y="484.9" text-anchor="middle" class="value">5544.7</text><text x="272.0" y="568" text-anchor="middle" class="label">Llama 3.2 3B</text><rect x="356.8" y="471.4" width="30.6" height="68.6" rx="6" fill="#5B8DEF"/><text x="372.1" y="463.4" text-anchor="middle" class="value">8063.6</text><rect x="396.8" y="475.9" width="30.6" height="64.1" rx="6" fill="#F5A524"/><text x="412.1" y="467.9" text-anchor="middle" class="value">7538.7</text><text x="389.7" y="568" text-anchor="middle" class="label">Phi-3 mini</text><rect x="474.5" y="456.9" width="30.6" height="83.1" rx="6" fill="#5B8DEF"/><text x="489.8" y="448.9" text-anchor="middle" class="value">9772.7</text><rect x="514.6" y="458.9" width="30.6" height="81.1" rx="6" fill="#F5A524"/><text x="529.9" y="450.9" text-anchor="middle" class="value">9542.9</text><text x="507.5" y="568" text-anchor="middle" class="label">Qwen 7B</text><rect x="592.3" y="460.7" width="30.6" height="79.3" rx="6" fill="#5B8DEF"/><text x="607.6" y="452.7" text-anchor="middle" class="value">9322.1</text><rect x="632.4" y="458.4" width="30.6" height="81.6" rx="6" fill="#F5A524"/><text x="647.7" y="450.4" text-anchor="middle" class="value">9603.0</text><text x="625.3" y="568" text-anchor="middle" class="label">DeepSeek-R1 Distill 7B</text><rect x="710.1" y="453.8" width="30.6" height="86.2" rx="6" fill="#5B8DEF"/><text x="725.4" y="445.8" text-anchor="middle" class="value">10139.1</text><rect x="750.1" y="453.9" width="30.6" height="86.1" rx="6" fill="#F5A524"/><text x="765.4" y="445.9" text-anchor="middle" class="value">10122.3</text><text x="743.1" y="568" text-anchor="middle" class="label">Mistral 7B</text><rect x="827.9" y="450.5" width="30.6" height="89.5" rx="6" fill="#5B8DEF"/><text x="843.2" y="442.5" text-anchor="middle" class="value">10523.5</text><rect x="867.9" y="449.7" width="30.6" height="90.3" rx="6" fill="#F5A524"/><text x="883.2" y="441.7" text-anchor="middle" class="value">10617.4</text><text x="860.8" y="568" text-anchor="middle" class="label">Llama 3.1 8B</text><rect x="945.6" y="442.0" width="30.6" height="98.0" rx="6" fill="#5B8DEF"/><text x="961.0" y="434.0" text-anchor="middle" class="value">11529.1</text><rect x="985.7" y="440.1" width="30.6" height="99.9" rx="6" fill="#F5A524"/><text x="1001.0" y="432.1" text-anchor="middle" class="value">11749.9</text><text x="978.6" y="568" text-anchor="middle" class="label">Qwen3 8B</text><rect x="1063.4" y="417.6" width="30.6" height="122.4" rx="6" fill="#5B8DEF"/><text x="1078.7" y="409.6" text-anchor="middle" class="value">14399.0</text><rect x="1103.5" y="148.7" width="30.6" height="391.3" rx="6" fill="#F5A524"/><text x="1118.8" y="140.7" text-anchor="middle" class="value">46027.4</text><text x="1096.4" y="568" text-anchor="middle" class="label">Gemma 9B</text><rect x="980" y="34" width="14" height="14" rx="3" fill="#5B8DEF"/><text x="1004" y="45" class="legend">vLLM</text><rect x="980" y="56" width="14" height="14" rx="3" fill="#F5A524"/><text x="1004" y="67" class="legend">SGLang</text><text x="24" y="315.0" transform="rotate(-90 24 315.0)" class="label muted">Latency p95 (ms)</text><text x="100" y="630" class="small muted">Lower is better</text></svg>