<svg xmlns="http://www.w3.org/2000/svg" width="1480" height="860" viewBox="0 0 1480 860"><style>text{font-family:system-ui,-apple-system,sans-serif;fill:#e8eefc}.muted{fill:#9fb0d0}.title{font-size:28px;font-weight:700}.subtitle{font-size:14px}.axis{stroke:#5c6b91;stroke-width:1}.grid{stroke:#27335a;stroke-width:1}.small{font-size:12px}.label{font-size:14px}.legend-title{font-size:16px;font-weight:700}.legend-row{font-size:12px}.point-id{font-size:11px;font-weight:700;fill:#08101e}.hint{font-size:13px;fill:#9fb0d0}</style><rect width="1480" height="860" fill="#0b1020"/><text x="110" y="40" class="title">Throughput tradeoff map</text><text x="110" y="64" class="subtitle muted">Throughput-ramp runs only. Top-left is ideal: lower latency p95, higher tokens/sec. Numbered points map to the legend on the right.</text><line x1="110.0" y1="96" x2="110.0" y2="770" class="grid"/><text x="110.0" y="794.0" text-anchor="middle" class="small muted">4129</text><line x1="278.3" y1="96" x2="278.3" y2="770" class="grid"/><text x="278.3" y="794.0" text-anchor="middle" class="small muted">11726</text><line x1="446.7" y1="96" x2="446.7" y2="770" class="grid"/><text x="446.7" y="794.0" text-anchor="middle" class="small muted">19323</text><line x1="615.0" y1="96" x2="615.0" y2="770" class="grid"/><text x="615.0" y="794.0" text-anchor="middle" class="small muted">26919</text><line x1="783.3" y1="96" x2="783.3" y2="770" class="grid"/><text x="783.3" y="794.0" text-anchor="middle" class="small muted">34516</text><line x1="951.7" y1="96" x2="951.7" y2="770" class="grid"/><text x="951.7" y="794.0" text-anchor="middle" class="small muted">42113</text><line x1="1120.0" y1="96" x2="1120.0" y2="770" class="grid"/><text x="1120.0" y="794.0" text-anchor="middle" class="small muted">49710</text><line x1="110" y1="770.0" x2="1120" y2="770.0" class="grid"/><text x="98" y="774.0" text-anchor="end" class="small muted">0</text><line x1="110" y1="657.7" x2="1120" y2="657.7" class="grid"/><text x="98" y="661.7" text-anchor="end" class="small muted">49</text><line x1="110" y1="545.3" x2="1120" y2="545.3" class="grid"/><text x="98" y="549.3" text-anchor="end" class="small muted">99</text><line x1="110" y1="433.0" x2="1120" y2="433.0" class="grid"/><text x="98" y="437.0" text-anchor="end" class="small muted">148</text><line x1="110" y1="320.7" x2="1120" y2="320.7" class="grid"/><text x="98" y="324.7" text-anchor="end" class="small muted">198</text><line x1="110" y1="208.3" x2="1120" y2="208.3" class="grid"/><text x="98" y="212.3" text-anchor="end" class="small muted">247</text><line x1="110" y1="96.0" x2="1120" y2="96.0" class="grid"/><text x="98" y="100.0" text-anchor="end" class="small muted">296</text><line x1="110" y1="96" x2="110" y2="770" class="axis"/><line x1="110" y1="770" x2="1120" y2="770" class="axis"/><path d="M 150 166 L 120 136" fill="none" stroke="#9fb0d0" stroke-width="1.5" stroke-dasharray="4 4"/><text x="158" y="170" class="hint">better</text><circle cx="120.2" cy="168.2" r="12" fill="#5B8DEF" stroke="#ffffff" stroke-width="1.8"/><text x="120.2" y="172.2" text-anchor="middle" class="point-id">1</text><circle cx="125.8" cy="183.4" r="12" fill="#F5A524" stroke="#ffffff" stroke-width="1.8"/><text x="125.8" y="187.4" text-anchor="middle" class="point-id">2</text><circle cx="138.5" cy="261.9" r="12" fill="#5B8DEF" stroke="#ffffff" stroke-width="1.8"/><text x="138.5" y="265.9" text-anchor="middle" class="point-id">3</text><circle cx="141.4" cy="256.2" r="12" fill="#F5A524" stroke="#ffffff" stroke-width="1.8"/><text x="141.4" y="260.2" text-anchor="middle" class="point-id">4</text><circle cx="197.2" cy="336.0" r="12" fill="#5B8DEF" stroke="#ffffff" stroke-width="1.8"/><text x="197.2" y="340.0" text-anchor="middle" class="point-id">5</text><circle cx="185.5" cy="344.4" r="12" fill="#F5A524" stroke="#ffffff" stroke-width="1.8"/><text x="185.5" y="348.4" text-anchor="middle" class="point-id">6</text><circle cx="225.1" cy="529.9" r="12" fill="#5B8DEF" stroke="#ffffff" stroke-width="1.8"/><text x="225.1" y="533.9" text-anchor="middle" class="point-id">7</text><circle cx="243.2" cy="527.6" r="12" fill="#5B8DEF" stroke="#ffffff" stroke-width="1.8"/><text x="243.2" y="531.6" text-anchor="middle" class="point-id">8</text><circle cx="235.0" cy="530.6" r="12" fill="#5B8DEF" stroke="#ffffff" stroke-width="1.8"/><text x="235.0" y="534.6" text-anchor="middle" class="point-id">9</text><circle cx="231.3" cy="528.8" r="12" fill="#F5A524" stroke="#ffffff" stroke-width="1.8"/><text x="231.3" y="532.8" text-anchor="middle" class="point-id">10</text><circle cx="242.8" cy="527.2" r="12" fill="#F5A524" stroke="#ffffff" stroke-width="1.8"/><text x="242.8" y="531.2" text-anchor="middle" class="point-id">11</text><circle cx="230.0" cy="528.3" r="12" fill="#F5A524" stroke="#ffffff" stroke-width="1.8"/><text x="230.0" y="532.3" text-anchor="middle" class="point-id">12</text><circle cx="251.7" cy="538.8" r="12" fill="#5B8DEF" stroke="#ffffff" stroke-width="1.8"/><text x="251.7" y="542.8" text-anchor="middle" class="point-id">13</text><circle cx="274.0" cy="546.3" r="12" fill="#5B8DEF" stroke="#ffffff" stroke-width="1.8"/><text x="274.0" y="550.3" text-anchor="middle" class="point-id">14</text><circle cx="253.8" cy="537.9" r="12" fill="#F5A524" stroke="#ffffff" stroke-width="1.8"/><text x="253.8" y="541.9" text-anchor="middle" class="point-id">15</text><circle cx="278.9" cy="545.8" r="12" fill="#F5A524" stroke="#ffffff" stroke-width="1.8"/><text x="278.9" y="549.8" text-anchor="middle" class="point-id">16</text><circle cx="337.6" cy="588.6" r="12" fill="#5B8DEF" stroke="#ffffff" stroke-width="1.8"/><text x="337.6" y="592.6" text-anchor="middle" class="point-id">17</text><circle cx="1038.4" cy="593.8" r="12" fill="#F5A524" stroke="#ffffff" stroke-width="1.8"/><text x="1038.4" y="597.8" text-anchor="middle" class="point-id">18</text><rect x="1130" y="70" width="348" height="710" rx="14" fill="#101933" stroke="#27335a" stroke-width="1"/><text x="1148" y="96" class="legend-title">Legend</text><text x="1148" y="120" class="small muted"># • model • engine • latency p95 • tok/s</text><circle cx="1158" cy="144" r="10" fill="#5B8DEF" stroke="#ffffff" stroke-width="1.3"/><text x="1158" y="148" text-anchor="middle" class="point-id">1</text><text x="1178" y="148" class="legend-row">Gemma 2B • vLLM • 4588 ms • 264.7 tok/s</text><circle cx="1158" cy="172" r="10" fill="#F5A524" stroke="#ffffff" stroke-width="1.3"/><text x="1158" y="176" text-anchor="middle" class="point-id">2</text><text x="1178" y="176" class="legend-row">Gemma 2B • SGLang • 4844 ms • 258.0 tok/s</text><circle cx="1158" cy="200" r="10" fill="#5B8DEF" stroke="#ffffff" stroke-width="1.3"/><text x="1158" y="204" text-anchor="middle" class="point-id">3</text><text x="1178" y="204" class="legend-row">Llama 3.2 3B • vLLM • 5416 ms • 223.5 tok/s</text><circle cx="1158" cy="228" r="10" fill="#F5A524" stroke="#ffffff" stroke-width="1.3"/><text x="1158" y="232" text-anchor="middle" class="point-id">4</text><text x="1178" y="232" class="legend-row">Llama 3.2 3B • SGLang • 5545 ms • 226.0 tok/s</text><circle cx="1158" cy="256" r="10" fill="#5B8DEF" stroke="#ffffff" stroke-width="1.3"/><text x="1158" y="260" text-anchor="middle" class="point-id">5</text><text x="1178" y="260" class="legend-row">Phi-3 mini • vLLM • 8064 ms • 190.9 tok/s</text><circle cx="1158" cy="284" r="10" fill="#F5A524" stroke="#ffffff" stroke-width="1.3"/><text x="1158" y="288" text-anchor="middle" class="point-id">6</text><text x="1178" y="288" class="legend-row">Phi-3 mini • SGLang • 7539 ms • 187.2 tok/s</text><circle cx="1158" cy="312" r="10" fill="#5B8DEF" stroke="#ffffff" stroke-width="1.3"/><text x="1158" y="316" text-anchor="middle" class="point-id">7</text><text x="1178" y="316" class="legend-row">DeepSeek-R1 Distill 7B • vLLM • 9322 ms • 105.6 tok/s</text><circle cx="1158" cy="340" r="10" fill="#5B8DEF" stroke="#ffffff" stroke-width="1.3"/><text x="1158" y="344" text-anchor="middle" class="point-id">8</text><text x="1178" y="344" class="legend-row">Mistral 7B • vLLM • 10139 ms • 106.6 tok/s</text><circle cx="1158" cy="368" r="10" fill="#5B8DEF" stroke="#ffffff" stroke-width="1.3"/><text x="1158" y="372" text-anchor="middle" class="point-id">9</text><text x="1178" y="372" class="legend-row">Qwen 7B • vLLM • 9773 ms • 105.3 tok/s</text><circle cx="1158" cy="396" r="10" fill="#F5A524" stroke="#ffffff" stroke-width="1.3"/><text x="1158" y="400" text-anchor="middle" class="point-id">10</text><text x="1178" y="400" class="legend-row">DeepSeek-R1 Distill 7B • SGLang • 9603 ms • 106.1 tok/s</text><circle cx="1158" cy="424" r="10" fill="#F5A524" stroke="#ffffff" stroke-width="1.3"/><text x="1158" y="428" text-anchor="middle" class="point-id">11</text><text x="1178" y="428" class="legend-row">Mistral 7B • SGLang • 10122 ms • 106.8 tok/s</text><circle cx="1158" cy="452" r="10" fill="#F5A524" stroke="#ffffff" stroke-width="1.3"/><text x="1158" y="456" text-anchor="middle" class="point-id">12</text><text x="1178" y="456" class="legend-row">Qwen 7B • SGLang • 9543 ms • 106.3 tok/s</text><circle cx="1158" cy="480" r="10" fill="#5B8DEF" stroke="#ffffff" stroke-width="1.3"/><text x="1158" y="484" text-anchor="middle" class="point-id">13</text><text x="1178" y="484" class="legend-row">Llama 3.1 8B • vLLM • 10524 ms • 101.7 tok/s</text><circle cx="1158" cy="508" r="10" fill="#5B8DEF" stroke="#ffffff" stroke-width="1.3"/><text x="1158" y="512" text-anchor="middle" class="point-id">14</text><text x="1178" y="512" class="legend-row">Qwen3 8B • vLLM • 11529 ms • 98.4 tok/s</text><circle cx="1158" cy="536" r="10" fill="#F5A524" stroke="#ffffff" stroke-width="1.3"/><text x="1158" y="540" text-anchor="middle" class="point-id">15</text><text x="1178" y="540" class="legend-row">Llama 3.1 8B • SGLang • 10617 ms • 102.1 tok/s</text><circle cx="1158" cy="564" r="10" fill="#F5A524" stroke="#ffffff" stroke-width="1.3"/><text x="1158" y="568" text-anchor="middle" class="point-id">16</text><text x="1178" y="568" class="legend-row">Qwen3 8B • SGLang • 11750 ms • 98.6 tok/s</text><circle cx="1158" cy="592" r="10" fill="#5B8DEF" stroke="#ffffff" stroke-width="1.3"/><text x="1158" y="596" text-anchor="middle" class="point-id">17</text><text x="1178" y="596" class="legend-row">Gemma 9B • vLLM • 14399 ms • 79.8 tok/s</text><circle cx="1158" cy="620" r="10" fill="#F5A524" stroke="#ffffff" stroke-width="1.3"/><text x="1158" y="624" text-anchor="middle" class="point-id">18</text><text x="1178" y="624" class="legend-row">Gemma 9B • SGLang • 46027 ms • 77.5 tok/s</text><rect x="1148" y="717" width="14" height="14" rx="3" fill="#5B8DEF"/><text x="1170" y="728" class="small">vLLM</text><rect x="1148" y="739" width="14" height="14" rx="3" fill="#F5A524"/><text x="1170" y="750" class="small">SGLang</text><text x="615.0" y="842" text-anchor="middle" class="label muted">Latency p95 (ms)</text><text x="26" y="433.0" transform="rotate(-90 26 433.0)" class="label muted">Tokens / sec</text></svg>