<svg xmlns="http://www.w3.org/2000/svg" width="1200" height="650" viewBox="0 0 1200 650"><style>text{font-family:system-ui,-apple-system,sans-serif;fill:#e8eefc}.muted{fill:#9fb0d0}.small{font-size:12px}.label{font-size:14px}.title{font-size:28px;font-weight:700}.subtitle{font-size:14px}.axis{stroke:#5c6b91;stroke-width:1}.grid{stroke:#27335a;stroke-width:1}.value{font-size:12px;font-weight:700}.legend{font-size:13px}</style><rect width="1200" height="650" fill="#0b1020"/><text x="100" y="40" class="title">Throughput ramp: requests/sec</text><text x="100" y="64" class="subtitle muted">Higher is better • completed model/engine pairs only</text><line x1="100" y1="540.0" x2="1160" y2="540.0" class="grid"/><text x="88" y="544.0" text-anchor="end" class="small muted">0</text><line x1="100" y1="450.0" x2="1160" y2="450.0" class="grid"/><text x="88" y="454.0" text-anchor="end" class="small muted">0</text><line x1="100" y1="360.0" x2="1160" y2="360.0" class="grid"/><text x="88" y="364.0" text-anchor="end" class="small muted">1</text><line x1="100" y1="270.0" x2="1160" y2="270.0" class="grid"/><text x="88" y="274.0" text-anchor="end" class="small muted">1</text><line x1="100" y1="180.0" x2="1160" y2="180.0" class="grid"/><text x="88" y="184.0" text-anchor="end" class="small muted">1</text><line x1="100" y1="90.0" x2="1160" y2="90.0" class="grid"/><text x="88" y="94.0" text-anchor="end" class="small muted">1</text><line x1="100" y1="90" x2="100" y2="540" class="axis"/><line x1="100" y1="540" x2="1160" y2="540" class="axis"/><rect x="127.3" y="148.7" width="39.4" height="391.3" rx="6" fill="#5B8DEF"/><text x="146.9" y="140.7" text-anchor="middle" class="value">1.1</text><rect x="178.7" y="179.6" width="39.4" height="360.4" rx="6" fill="#F5A524"/><text x="198.4" y="171.6" text-anchor="middle" class="value">1.1</text><text x="169.7" y="568" text-anchor="middle" class="label">Gemma 2B</text><rect x="278.7" y="241.4" width="39.4" height="298.6" rx="6" fill="#5B8DEF"/><text x="298.4" y="233.4" text-anchor="middle" class="value">0.9</text><rect x="330.2" y="237.9" width="39.4" height="302.1" rx="6" fill="#F5A524"/><text x="349.9" y="229.9" text-anchor="middle" class="value">0.9</text><text x="321.1" y="568" text-anchor="middle" class="label">Llama 3.2 3B</text><rect x="430.1" y="282.6" width="39.4" height="257.4" rx="6" fill="#5B8DEF"/><text x="449.8" y="274.6" text-anchor="middle" class="value">0.8</text><text x="472.5" y="568" text-anchor="middle" class="label">Phi-3 mini</text><rect x="581.5" y="399.3" width="39.4" height="140.7" rx="6" fill="#5B8DEF"/><text x="601.2" y="391.3" text-anchor="middle" class="value">0.4</text><rect x="633.0" y="395.8" width="39.4" height="144.2" rx="6" fill="#F5A524"/><text x="652.7" y="387.8" text-anchor="middle" class="value">0.4</text><text x="623.9" y="568" text-anchor="middle" class="label">Qwen 7B</text><rect x="733.0" y="395.8" width="39.4" height="144.2" rx="6" fill="#5B8DEF"/><text x="752.7" y="387.8" text-anchor="middle" class="value">0.4</text><rect x="784.5" y="395.8" width="39.4" height="144.2" rx="6" fill="#F5A524"/><text x="804.1" y="387.8" text-anchor="middle" class="value">0.4</text><text x="775.4" y="568" text-anchor="middle" class="label">Mistral 7B</text><rect x="884.4" y="402.7" width="39.4" height="137.3" rx="6" fill="#5B8DEF"/><text x="904.1" y="394.7" text-anchor="middle" class="value">0.4</text><rect x="935.9" y="402.7" width="39.4" height="137.3" rx="6" fill="#F5A524"/><text x="955.6" y="394.7" text-anchor="middle" class="value">0.4</text><text x="926.8" y="568" text-anchor="middle" class="label">Llama 3.1 8B</text><rect x="1035.8" y="426.7" width="39.4" height="113.3" rx="6" fill="#5B8DEF"/><text x="1055.5" y="418.7" text-anchor="middle" class="value">0.3</text><rect x="1087.3" y="437.0" width="39.4" height="103.0" rx="6" fill="#F5A524"/><text x="1107.0" y="429.0" text-anchor="middle" class="value">0.3</text><text x="1078.2" y="568" text-anchor="middle" class="label">Gemma 9B</text><rect x="980" y="34" width="14" height="14" rx="3" fill="#5B8DEF"/><text x="1004" y="45" class="legend">vLLM</text><rect x="980" y="56" width="14" height="14" rx="3" fill="#F5A524"/><text x="1004" y="67" class="legend">SGLang</text><text x="24" y="315.0" transform="rotate(-90 24 315.0)" class="label muted">Requests / sec</text><text x="100" y="630" class="small muted">Higher is better</text></svg>