<svg xmlns="http://www.w3.org/2000/svg" width="1660" height="720" viewBox="0 0 1660 720"><style>text{font-family:system-ui,-apple-system,sans-serif;fill:#e8eefc}.muted{fill:#9fb0d0}.small{font-size:11px}.label{font-size:13px}.title{font-size:26px;font-weight:700}.subtitle{font-size:13px}.axis{stroke:#5c6b91;stroke-width:1}.grid{stroke:#27335a;stroke-width:1}.value{font-size:10px;font-weight:700}.legend{font-size:13px}.xlbl{font-size:12px}</style><rect width="1660" height="720" fill="#0b1020"/><text x="100" y="40" class="title">Throughput ramp: requests/sec</text><text x="100" y="64" class="subtitle muted">Higher is better • completed model/engine pairs only</text><line x1="100" y1="570.0" x2="1620" y2="570.0" class="grid"/><text x="88" y="574.0" text-anchor="end" class="small muted">0</text><line x1="100" y1="474.0" x2="1620" y2="474.0" class="grid"/><text x="88" y="478.0" text-anchor="end" class="small muted">0</text><line x1="100" y1="378.0" x2="1620" y2="378.0" class="grid"/><text x="88" y="382.0" text-anchor="end" class="small muted">1</text><line x1="100" y1="282.0" x2="1620" y2="282.0" class="grid"/><text x="88" y="286.0" text-anchor="end" class="small muted">1</text><line x1="100" y1="186.0" x2="1620" y2="186.0" class="grid"/><text x="88" y="190.0" text-anchor="end" class="small muted">1</text><line x1="100" y1="90.0" x2="1620" y2="90.0" class="grid"/><text x="88" y="94.0" text-anchor="end" class="small muted">1</text><line x1="100" y1="90" x2="100" y2="570" class="axis"/><line x1="100" y1="570" x2="1620" y2="570" class="axis"/><rect x="116.3" y="163.2" width="32.6" height="406.8" rx="4" fill="#5B8DEF"/><text x="132.6" y="157.2" text-anchor="middle" class="value">1.1</text><rect x="155.4" y="195.3" width="32.6" height="374.7" rx="4" fill="#F5A524"/><text x="171.7" y="189.3" text-anchor="middle" class="value">1.1</text><text x="152.1" y="586" text-anchor="end" transform="rotate(-35 152.1 586)" class="xlbl">Gemma 2 2B</text><rect x="224.9" y="248.9" width="32.6" height="321.1" rx="4" fill="#5B8DEF"/><text x="241.1" y="242.9" text-anchor="middle" class="value">0.9</text><rect x="263.9" y="284.5" width="32.6" height="285.5" rx="4" fill="#F5A524"/><text x="280.2" y="278.5" text-anchor="middle" class="value">0.8</text><text x="260.7" y="586" text-anchor="end" transform="rotate(-35 260.7 586)" class="xlbl">SmolLM3 3B</text><rect x="333.4" y="259.6" width="32.6" height="310.4" rx="4" fill="#5B8DEF"/><text x="349.7" y="253.6" text-anchor="middle" class="value">0.9</text><rect x="372.5" y="256.0" width="32.6" height="314.0" rx="4" fill="#F5A524"/><text x="388.8" y="250.0" text-anchor="middle" class="value">0.9</text><text x="369.3" y="586" text-anchor="end" transform="rotate(-35 369.3 586)" class="xlbl">Llama 3.2 3B</text><rect x="442.0" y="302.4" width="32.6" height="267.6" rx="4" fill="#5B8DEF"/><text x="458.3" y="296.4" text-anchor="middle" class="value">0.8</text><rect x="481.1" y="309.5" width="32.6" height="260.5" rx="4" fill="#F5A524"/><text x="497.4" y="303.5" text-anchor="middle" class="value">0.7</text><text x="477.8" y="586" text-anchor="end" transform="rotate(-35 477.8 586)" class="xlbl">Phi-3 mini</text><rect x="550.6" y="306.0" width="32.6" height="264.0" rx="4" fill="#5B8DEF"/><text x="566.9" y="300.0" text-anchor="middle" class="value">0.7</text><rect x="589.7" y="288.1" width="32.6" height="281.9" rx="4" fill="#F5A524"/><text x="605.9" y="282.1" text-anchor="middle" class="value">0.8</text><text x="586.4" y="586" text-anchor="end" transform="rotate(-35 586.4 586)" class="xlbl">Phi-4 mini</text><rect x="659.1" y="452.2" width="32.6" height="117.8" rx="4" fill="#5B8DEF"/><text x="675.4" y="446.2" text-anchor="middle" class="value">0.3</text><rect x="698.2" y="363.0" width="32.6" height="207.0" rx="4" fill="#F5A524"/><text x="714.5" y="357.0" text-anchor="middle" class="value">0.6</text><text x="695.0" y="586" text-anchor="end" transform="rotate(-35 695.0 586)" class="xlbl">Gemma 3 4B</text><rect x="767.7" y="423.7" width="32.6" height="146.3" rx="4" fill="#5B8DEF"/><text x="784.0" y="417.7" text-anchor="middle" class="value">0.4</text><rect x="806.8" y="420.1" width="32.6" height="149.9" rx="4" fill="#F5A524"/><text x="823.1" y="414.1" text-anchor="middle" class="value">0.4</text><text x="803.5" y="586" text-anchor="end" transform="rotate(-35 803.5 586)" class="xlbl">Qwen 2.5 7B</text><rect x="876.3" y="423.7" width="32.6" height="146.3" rx="4" fill="#5B8DEF"/><text x="892.6" y="417.7" text-anchor="middle" class="value">0.4</text><rect x="915.4" y="423.7" width="32.6" height="146.3" rx="4" fill="#F5A524"/><text x="931.7" y="417.7" text-anchor="middle" class="value">0.4</text><text x="912.1" y="586" text-anchor="end" transform="rotate(-35 912.1 586)" class="xlbl">DS-R1 Qwen 7B</text><rect x="984.9" y="420.1" width="32.6" height="149.9" rx="4" fill="#5B8DEF"/><text x="1001.1" y="414.1" text-anchor="middle" class="value">0.4</text><rect x="1023.9" y="420.1" width="32.6" height="149.9" rx="4" fill="#F5A524"/><text x="1040.2" y="414.1" text-anchor="middle" class="value">0.4</text><text x="1020.7" y="586" text-anchor="end" transform="rotate(-35 1020.7 586)" class="xlbl">Mistral 7B</text><rect x="1093.4" y="427.3" width="32.6" height="142.7" rx="4" fill="#5B8DEF"/><text x="1109.7" y="421.3" text-anchor="middle" class="value">0.4</text><rect x="1132.5" y="427.3" width="32.6" height="142.7" rx="4" fill="#F5A524"/><text x="1148.8" y="421.3" text-anchor="middle" class="value">0.4</text><text x="1129.3" y="586" text-anchor="end" transform="rotate(-35 1129.3 586)" class="xlbl">Llama 3.1 8B</text><rect x="1202.0" y="434.4" width="32.6" height="135.6" rx="4" fill="#5B8DEF"/><text x="1218.3" y="428.4" text-anchor="middle" class="value">0.4</text><rect x="1241.1" y="434.4" width="32.6" height="135.6" rx="4" fill="#F5A524"/><text x="1257.4" y="428.4" text-anchor="middle" class="value">0.4</text><text x="1237.8" y="586" text-anchor="end" transform="rotate(-35 1237.8 586)" class="xlbl">Qwen3 8B</text><rect x="1310.6" y="441.5" width="32.6" height="128.5" rx="4" fill="#5B8DEF"/><text x="1326.9" y="435.5" text-anchor="middle" class="value">0.4</text><rect x="1349.7" y="441.5" width="32.6" height="128.5" rx="4" fill="#F5A524"/><text x="1365.9" y="435.5" text-anchor="middle" class="value">0.4</text><text x="1346.4" y="586" text-anchor="end" transform="rotate(-35 1346.4 586)" class="xlbl">Granite 8B</text><rect x="1419.1" y="427.3" width="32.6" height="142.7" rx="4" fill="#5B8DEF"/><text x="1435.4" y="421.3" text-anchor="middle" class="value">0.4</text><rect x="1458.2" y="427.3" width="32.6" height="142.7" rx="4" fill="#F5A524"/><text x="1474.5" y="421.3" text-anchor="middle" class="value">0.4</text><text x="1455.0" y="586" text-anchor="end" transform="rotate(-35 1455.0 586)" class="xlbl">DS-R1 Llama 8B</text><rect x="1527.7" y="452.2" width="32.6" height="117.8" rx="4" fill="#5B8DEF"/><text x="1544.0" y="446.2" text-anchor="middle" class="value">0.3</text><rect x="1566.8" y="463.0" width="32.6" height="107.0" rx="4" fill="#F5A524"/><text x="1583.1" y="457.0" text-anchor="middle" class="value">0.3</text><text x="1563.5" y="586" text-anchor="end" transform="rotate(-35 1563.5 586)" class="xlbl">Gemma 2 9B</text><rect x="1440" y="34" width="14" height="14" rx="3" fill="#5B8DEF"/><text x="1464" y="45" class="legend">vLLM</text><rect x="1440" y="56" width="14" height="14" rx="3" fill="#F5A524"/><text x="1464" y="67" class="legend">SGLang</text><text x="24" y="330.0" transform="rotate(-90 24 330.0)" class="label muted">Requests / sec</text><text x="100" y="704" class="small muted">Higher is better ↑ • 14 models with data</text></svg>