<svg xmlns="http://www.w3.org/2000/svg" width="1550" height="720" viewBox="0 0 1550 720"><style>text{font-family:system-ui,-apple-system,sans-serif;fill:#e8eefc}.muted{fill:#9fb0d0}.small{font-size:11px}.label{font-size:13px}.title{font-size:26px;font-weight:700}.subtitle{font-size:13px}.axis{stroke:#5c6b91;stroke-width:1}.grid{stroke:#27335a;stroke-width:1}.value{font-size:10px;font-weight:700}.legend{font-size:13px}.xlbl{font-size:12px}</style><rect width="1550" height="720" fill="#0b1020"/><text x="100" y="40" class="title">Throughput ramp: latency p95</text><text x="100" y="64" class="subtitle muted">Lower is better • note the Gemma 9B SGLang tail-latency spike</text><line x1="100" y1="570.0" x2="1510" y2="570.0" class="grid"/><text x="88" y="574.0" text-anchor="end" class="small muted">0</text><line x1="100" y1="474.0" x2="1510" y2="474.0" class="grid"/><text x="88" y="478.0" text-anchor="end" class="small muted">10862</text><line x1="100" y1="378.0" x2="1510" y2="378.0" class="grid"/><text x="88" y="382.0" text-anchor="end" class="small muted">21725</text><line x1="100" y1="282.0" x2="1510" y2="282.0" class="grid"/><text x="88" y="286.0" text-anchor="end" class="small muted">32587</text><line x1="100" y1="186.0" x2="1510" y2="186.0" class="grid"/><text x="88" y="190.0" text-anchor="end" class="small muted">43450</text><line x1="100" y1="90.0" x2="1510" y2="90.0" class="grid"/><text x="88" y="94.0" text-anchor="end" class="small muted">54312</text><line x1="100" y1="90" x2="100" y2="570" class="axis"/><line x1="100" y1="570" x2="1510" y2="570" class="axis"/><rect x="116.3" y="529.5" width="32.5" height="40.5" rx="4" fill="#5B8DEF"/><text x="132.5" y="523.5" text-anchor="middle" class="value">4588</text><rect x="155.3" y="527.2" width="32.5" height="42.8" rx="4" fill="#F5A524"/><text x="171.6" y="521.2" text-anchor="middle" class="value">4844</text><text x="152.1" y="586" text-anchor="end" transform="rotate(-35 152.1 586)" class="xlbl">Gemma 2 2B</text><rect x="263.8" y="475.2" width="32.5" height="94.8" rx="4" fill="#F5A524"/><text x="280.0" y="469.2" text-anchor="middle" class="value">10724</text><text x="260.5" y="586" text-anchor="end" transform="rotate(-35 260.5 586)" class="xlbl">SmolLM3 3B</text><rect x="333.2" y="522.1" width="32.5" height="47.9" rx="4" fill="#5B8DEF"/><text x="349.5" y="516.1" text-anchor="middle" class="value">5416</text><rect x="372.2" y="521.0" width="32.5" height="49.0" rx="4" fill="#F5A524"/><text x="388.5" y="515.0" text-anchor="middle" class="value">5545</text><text x="369.0" y="586" text-anchor="end" transform="rotate(-35 369.0 586)" class="xlbl">Llama 3.2 3B</text><rect x="441.7" y="498.7" width="32.5" height="71.3" rx="4" fill="#5B8DEF"/><text x="457.9" y="492.7" text-anchor="middle" class="value">8064</text><rect x="480.7" y="503.4" width="32.5" height="66.6" rx="4" fill="#F5A524"/><text x="497.0" y="497.4" text-anchor="middle" class="value">7539</text><text x="477.4" y="586" text-anchor="end" transform="rotate(-35 477.4 586)" class="xlbl">Phi-3 mini</text><rect x="550.1" y="503.6" width="32.5" height="66.4" rx="4" fill="#5B8DEF"/><text x="566.4" y="497.6" text-anchor="middle" class="value">7512</text><rect x="589.2" y="495.7" width="32.5" height="74.3" rx="4" fill="#F5A524"/><text x="605.4" y="489.7" text-anchor="middle" class="value">8411</text><text x="585.9" y="586" text-anchor="end" transform="rotate(-35 585.9 586)" class="xlbl">Phi-4 mini</text><rect x="658.6" y="483.6" width="32.5" height="86.4" rx="4" fill="#5B8DEF"/><text x="674.8" y="477.6" text-anchor="middle" class="value">9773</text><rect x="697.6" y="485.7" width="32.5" height="84.3" rx="4" fill="#F5A524"/><text x="713.9" y="479.7" text-anchor="middle" class="value">9543</text><text x="694.4" y="586" text-anchor="end" transform="rotate(-35 694.4 586)" class="xlbl">Qwen 2.5 7B</text><rect x="767.0" y="487.6" width="32.5" height="82.4" rx="4" fill="#5B8DEF"/><text x="783.3" y="481.6" text-anchor="middle" class="value">9322</text><rect x="806.1" y="485.1" width="32.5" height="84.9" rx="4" fill="#F5A524"/><text x="822.4" y="479.1" text-anchor="middle" class="value">9603</text><text x="802.8" y="586" text-anchor="end" transform="rotate(-35 802.8 586)" class="xlbl">DS-R1 Qwen 7B</text><rect x="875.5" y="480.4" width="32.5" height="89.6" rx="4" fill="#5B8DEF"/><text x="891.8" y="474.4" text-anchor="middle" class="value">10139</text><rect x="914.5" y="480.5" width="32.5" height="89.5" rx="4" fill="#F5A524"/><text x="930.8" y="474.5" text-anchor="middle" class="value">10122</text><text x="911.3" y="586" text-anchor="end" transform="rotate(-35 911.3 586)" class="xlbl">Mistral 7B</text><rect x="984.0" y="477.0" width="32.5" height="93.0" rx="4" fill="#5B8DEF"/><text x="1000.2" y="471.0" text-anchor="middle" class="value">10524</text><rect x="1023.0" y="476.2" width="32.5" height="93.8" rx="4" fill="#F5A524"/><text x="1039.3" y="470.2" text-anchor="middle" class="value">10617</text><text x="1019.8" y="586" text-anchor="end" transform="rotate(-35 1019.8 586)" class="xlbl">Llama 3.1 8B</text><rect x="1092.4" y="468.1" width="32.5" height="101.9" rx="4" fill="#5B8DEF"/><text x="1108.7" y="462.1" text-anchor="middle" class="value">11529</text><rect x="1131.5" y="466.2" width="32.5" height="103.8" rx="4" fill="#F5A524"/><text x="1147.7" y="460.2" text-anchor="middle" class="value">11750</text><text x="1128.2" y="586" text-anchor="end" transform="rotate(-35 1128.2 586)" class="xlbl">Qwen3 8B</text><rect x="1239.9" y="459.8" width="32.5" height="110.2" rx="4" fill="#F5A524"/><text x="1256.2" y="453.8" text-anchor="middle" class="value">12471</text><text x="1236.7" y="586" text-anchor="end" transform="rotate(-35 1236.7 586)" class="xlbl">Granite 8B</text><rect x="1348.4" y="476.2" width="32.5" height="93.8" rx="4" fill="#F5A524"/><text x="1364.7" y="470.2" text-anchor="middle" class="value">10611</text><text x="1345.1" y="586" text-anchor="end" transform="rotate(-35 1345.1 586)" class="xlbl">DS-R1 Llama 8B</text><rect x="1417.8" y="442.7" width="32.5" height="127.3" rx="4" fill="#5B8DEF"/><text x="1434.1" y="436.7" text-anchor="middle" class="value">14399</text><rect x="1456.9" y="163.2" width="32.5" height="406.8" rx="4" fill="#F5A524"/><text x="1473.1" y="157.2" text-anchor="middle" class="value">46027</text><text x="1453.6" y="586" text-anchor="end" transform="rotate(-35 1453.6 586)" class="xlbl">Gemma 2 9B</text><rect x="1330" y="34" width="14" height="14" rx="3" fill="#5B8DEF"/><text x="1354" y="45" class="legend">vLLM</text><rect x="1330" y="56" width="14" height="14" rx="3" fill="#F5A524"/><text x="1354" y="67" class="legend">SGLang</text><text x="24" y="330.0" transform="rotate(-90 24 330.0)" class="label muted">Latency p95 (ms)</text><text x="100" y="704" class="small muted">Lower is better ↓ • 13 models with data</text></svg>