<svg xmlns="http://www.w3.org/2000/svg" width="1200" height="680" viewBox="0 0 1200 680"><style>text{font-family:system-ui,-apple-system,sans-serif;fill:#e8eefc}.muted{fill:#9fb0d0}.title{font-size:28px;font-weight:700}.subtitle{font-size:14px}.axis{stroke:#5c6b91;stroke-width:1}.grid{stroke:#27335a;stroke-width:1}.small{font-size:12px}.label{font-size:14px}</style><rect width="1200" height="680" fill="#0b1020"/><text x="110" y="40" class="title">Throughput tradeoff map</text><text x="110" y="64" class="subtitle muted">Each point is a completed throughput-ramp run. Top-left is ideal: lower latency p95, higher tokens/sec.</text><line x1="110.0" y1="90" x2="110.0" y2="600" class="grid"/><line x1="110" y1="600.0" x2="1150" y2="600.0" class="grid"/><text x="110.0" y="622.0" text-anchor="middle" class="small muted">2301</text><text x="98" y="604.0" text-anchor="end" class="small muted">0</text><line x1="318.0" y1="90" x2="318.0" y2="600" class="grid"/><line x1="110" y1="498.0" x2="1150" y2="498.0" class="grid"/><text x="318.0" y="622.0" text-anchor="middle" class="small muted">3909</text><text x="98" y="502.0" text-anchor="end" class="small muted">57</text><line x1="526.0" y1="90" x2="526.0" y2="600" class="grid"/><line x1="110" y1="396.0" x2="1150" y2="396.0" class="grid"/><text x="526.0" y="622.0" text-anchor="middle" class="small muted">5517</text><text x="98" y="400.0" text-anchor="end" class="small muted">115</text><line x1="734.0" y1="90" x2="734.0" y2="600" class="grid"/><line x1="110" y1="294.0" x2="1150" y2="294.0" class="grid"/><text x="734.0" y="622.0" text-anchor="middle" class="small muted">7126</text><text x="98" y="298.0" text-anchor="end" class="small muted">172</text><line x1="942.0" y1="90" x2="942.0" y2="600" class="grid"/><line x1="110" y1="192.0" x2="1150" y2="192.0" class="grid"/><text x="942.0" y="622.0" text-anchor="middle" class="small muted">8734</text><text x="98" y="196.0" text-anchor="end" class="small muted">230</text><line x1="1150.0" y1="90" x2="1150.0" y2="600" class="grid"/><line x1="110" y1="90.0" x2="1150" y2="90.0" class="grid"/><text x="1150.0" y="622.0" text-anchor="middle" class="small muted">10342</text><text x="98" y="94.0" text-anchor="end" class="small muted">287</text><line x1="110" y1="90" x2="110" y2="600" class="axis"/><line x1="110" y1="600" x2="1150" y2="600" class="axis"/><circle cx="110.0" cy="136.4" r="8" fill="#5B8DEF" stroke="#ffffff" stroke-width="1.5"/><text x="122.0" y="126.4" class="small">Gemma 2B • vLLM</text><circle cx="445.9" cy="141.5" r="8" fill="#F5A524" stroke="#ffffff" stroke-width="1.5"/><text x="457.9" y="131.5" class="small">Gemma 2B • SGLang</text><circle cx="930.6" cy="265.1" r="8" fill="#5B8DEF" stroke="#ffffff" stroke-width="1.5"/><text x="942.6" y="255.1" class="small">Phi-3 mini • vLLM</text><circle cx="1117.6" cy="425.3" r="8" fill="#5B8DEF" stroke="#ffffff" stroke-width="1.5"/><text x="1129.6" y="415.3" class="small">Qwen 7B • vLLM</text><circle cx="1150.0" cy="411.1" r="8" fill="#5B8DEF" stroke="#ffffff" stroke-width="1.5"/><text x="1162.0" y="401.1" class="small">Mistral 7B • vLLM</text><circle cx="1051.6" cy="411.5" r="8" fill="#F5A524" stroke="#ffffff" stroke-width="1.5"/><text x="1063.6" y="401.5" class="small">Qwen 7B • SGLang</text><circle cx="1148.7" cy="410.4" r="8" fill="#F5A524" stroke="#ffffff" stroke-width="1.5"/><text x="1160.7" y="400.4" class="small">Mistral 7B • SGLang</text><circle cx="133.6" cy="466.7" r="8" fill="#5B8DEF" stroke="#ffffff" stroke-width="1.5"/><text x="145.6" y="456.7" class="small">Gemma 9B • vLLM</text><circle cx="494.9" cy="470.2" r="8" fill="#F5A524" stroke="#ffffff" stroke-width="1.5"/><text x="506.9" y="460.2" class="small">Gemma 9B • SGLang</text><text x="630.0" y="662" text-anchor="middle" class="label muted">Latency p95 (ms)</text><text x="26" y="345.0" transform="rotate(-90 26 345.0)" class="label muted">Tokens / sec</text></svg>