<svg xmlns="http://www.w3.org/2000/svg" width="1520" height="922" viewBox="0 0 1520 922"><style>text{font-family:system-ui,-apple-system,sans-serif;fill:#e8eefc}.muted{fill:#9fb0d0}.title{font-size:28px;font-weight:700}.subtitle{font-size:14px}.axis{stroke:#5c6b91;stroke-width:1}.grid{stroke:#27335a;stroke-width:1}.small{font-size:12px}.label{font-size:14px}.legend-title{font-size:16px;font-weight:700}.legend-row{font-size:12px}.point-id{font-size:11px;font-weight:700;fill:#08101e}.hint{font-size:13px;fill:#9fb0d0}</style><rect width="1520" height="922" fill="#0b1020"/><text x="110" y="40" class="title">Throughput tradeoff map</text><text x="110" y="64" class="subtitle muted">Throughput-ramp runs only. Top-left is ideal: lower latency p95, higher tokens/sec. Numbered points map to the legend on the right.</text><line x1="110.0" y1="96" x2="110.0" y2="832" class="grid"/><text x="110.0" y="856.0" text-anchor="middle" class="small muted">4129</text><line x1="281.7" y1="96" x2="281.7" y2="832" class="grid"/><text x="281.7" y="856.0" text-anchor="middle" class="small muted">11726</text><line x1="453.3" y1="96" x2="453.3" y2="832" class="grid"/><text x="453.3" y="856.0" text-anchor="middle" class="small muted">19323</text><line x1="625.0" y1="96" x2="625.0" y2="832" class="grid"/><text x="625.0" y="856.0" text-anchor="middle" class="small muted">26919</text><line x1="796.7" y1="96" x2="796.7" y2="832" class="grid"/><text x="796.7" y="856.0" text-anchor="middle" class="small muted">34516</text><line x1="968.3" y1="96" x2="968.3" y2="832" class="grid"/><text x="968.3" y="856.0" text-anchor="middle" class="small muted">42113</text><line x1="1140.0" y1="96" x2="1140.0" y2="832" class="grid"/><text x="1140.0" y="856.0" text-anchor="middle" class="small muted">49710</text><line x1="110" y1="832.0" x2="1140" y2="832.0" class="grid"/><text x="98" y="836.0" text-anchor="end" class="small muted">0</text><line x1="110" y1="709.3" x2="1140" y2="709.3" class="grid"/><text x="98" y="713.3" text-anchor="end" class="small muted">49</text><line x1="110" y1="586.7" x2="1140" y2="586.7" class="grid"/><text x="98" y="590.7" text-anchor="end" class="small muted">99</text><line x1="110" y1="464.0" x2="1140" y2="464.0" class="grid"/><text x="98" y="468.0" text-anchor="end" class="small muted">148</text><line x1="110" y1="341.3" x2="1140" y2="341.3" class="grid"/><text x="98" y="345.3" text-anchor="end" class="small muted">198</text><line x1="110" y1="218.7" x2="1140" y2="218.7" class="grid"/><text x="98" y="222.7" text-anchor="end" class="small muted">247</text><line x1="110" y1="96.0" x2="1140" y2="96.0" class="grid"/><text x="98" y="100.0" text-anchor="end" class="small muted">296</text><line x1="110" y1="96" x2="110" y2="832" class="axis"/><line x1="110" y1="832" x2="1140" y2="832" class="axis"/><path d="M 150 166 L 120 136" fill="none" stroke="#9fb0d0" stroke-width="1.5" stroke-dasharray="4 4"/><text x="158" y="170" class="hint">better</text><circle cx="120.4" cy="174.9" r="12" fill="#5B8DEF" stroke="#ffffff" stroke-width="1.8"/><text x="120.4" y="178.9" text-anchor="middle" class="point-id">1</text><circle cx="126.2" cy="191.5" r="12" fill="#F5A524" stroke="#ffffff" stroke-width="1.8"/><text x="126.2" y="195.5" text-anchor="middle" class="point-id">2</text><circle cx="139.1" cy="277.1" r="12" fill="#5B8DEF" stroke="#ffffff" stroke-width="1.8"/><text x="139.1" y="281.1" text-anchor="middle" class="point-id">3</text><circle cx="141.5" cy="262.2" r="12" fill="#5B8DEF" stroke="#ffffff" stroke-width="1.8"/><text x="141.5" y="266.2" text-anchor="middle" class="point-id">4</text><circle cx="142.0" cy="270.9" r="12" fill="#F5A524" stroke="#ffffff" stroke-width="1.8"/><text x="142.0" y="274.9" text-anchor="middle" class="point-id">5</text><circle cx="259.0" cy="324.1" r="12" fill="#F5A524" stroke="#ffffff" stroke-width="1.8"/><text x="259.0" y="328.1" text-anchor="middle" class="point-id">6</text><circle cx="277.4" cy="623.7" r="12" fill="#5B8DEF" stroke="#ffffff" stroke-width="1.8"/><text x="277.4" y="627.7" text-anchor="middle" class="point-id">7</text><circle cx="198.9" cy="358.1" r="12" fill="#5B8DEF" stroke="#ffffff" stroke-width="1.8"/><text x="198.9" y="362.1" text-anchor="middle" class="point-id">8</text><circle cx="186.4" cy="363.8" r="12" fill="#5B8DEF" stroke="#ffffff" stroke-width="1.8"/><text x="186.4" y="367.8" text-anchor="middle" class="point-id">9</text><circle cx="349.6" cy="461.6" r="12" fill="#F5A524" stroke="#ffffff" stroke-width="1.8"/><text x="349.6" y="465.6" text-anchor="middle" class="point-id">10</text><circle cx="187.0" cy="367.3" r="12" fill="#F5A524" stroke="#ffffff" stroke-width="1.8"/><text x="187.0" y="371.3" text-anchor="middle" class="point-id">11</text><circle cx="206.8" cy="395.3" r="12" fill="#F5A524" stroke="#ffffff" stroke-width="1.8"/><text x="206.8" y="399.3" text-anchor="middle" class="point-id">12</text><circle cx="227.3" cy="569.8" r="12" fill="#5B8DEF" stroke="#ffffff" stroke-width="1.8"/><text x="227.3" y="573.8" text-anchor="middle" class="point-id">13</text><circle cx="245.8" cy="567.4" r="12" fill="#5B8DEF" stroke="#ffffff" stroke-width="1.8"/><text x="245.8" y="571.4" text-anchor="middle" class="point-id">14</text><circle cx="237.5" cy="570.6" r="12" fill="#5B8DEF" stroke="#ffffff" stroke-width="1.8"/><text x="237.5" y="574.6" text-anchor="middle" class="point-id">15</text><circle cx="233.7" cy="568.6" r="12" fill="#F5A524" stroke="#ffffff" stroke-width="1.8"/><text x="233.7" y="572.6" text-anchor="middle" class="point-id">16</text><circle cx="245.4" cy="566.9" r="12" fill="#F5A524" stroke="#ffffff" stroke-width="1.8"/><text x="245.4" y="570.9" text-anchor="middle" class="point-id">17</text><circle cx="232.3" cy="568.1" r="12" fill="#F5A524" stroke="#ffffff" stroke-width="1.8"/><text x="232.3" y="572.1" text-anchor="middle" class="point-id">18</text><circle cx="255.0" cy="579.3" r="12" fill="#5B8DEF" stroke="#ffffff" stroke-width="1.8"/><text x="255.0" y="583.3" text-anchor="middle" class="point-id">19</text><circle cx="294.6" cy="601.6" r="12" fill="#5B8DEF" stroke="#ffffff" stroke-width="1.8"/><text x="294.6" y="605.6" text-anchor="middle" class="point-id">20</text><circle cx="254.5" cy="579.5" r="12" fill="#5B8DEF" stroke="#ffffff" stroke-width="1.8"/><text x="254.5" y="583.5" text-anchor="middle" class="point-id">21</text><circle cx="279.9" cy="588.0" r="12" fill="#5B8DEF" stroke="#ffffff" stroke-width="1.8"/><text x="279.9" y="592.0" text-anchor="middle" class="point-id">22</text><circle cx="256.5" cy="578.8" r="12" fill="#F5A524" stroke="#ffffff" stroke-width="1.8"/><text x="256.5" y="582.8" text-anchor="middle" class="point-id">23</text><circle cx="299.6" cy="601.6" r="12" fill="#F5A524" stroke="#ffffff" stroke-width="1.8"/><text x="299.6" y="605.6" text-anchor="middle" class="point-id">24</text><circle cx="255.9" cy="578.5" r="12" fill="#F5A524" stroke="#ffffff" stroke-width="1.8"/><text x="255.9" y="582.5" text-anchor="middle" class="point-id">25</text><circle cx="280.9" cy="587.5" r="12" fill="#F5A524" stroke="#ffffff" stroke-width="1.8"/><text x="280.9" y="591.5" text-anchor="middle" class="point-id">26</text><circle cx="342.1" cy="633.9" r="12" fill="#5B8DEF" stroke="#ffffff" stroke-width="1.8"/><text x="342.1" y="637.9" text-anchor="middle" class="point-id">27</text><circle cx="1056.8" cy="639.6" r="12" fill="#F5A524" stroke="#ffffff" stroke-width="1.8"/><text x="1056.8" y="643.6" text-anchor="middle" class="point-id">28</text><rect x="1150" y="70" width="368" height="772" rx="14" fill="#101933" stroke="#27335a" stroke-width="1"/><text x="1168" y="96" class="legend-title">Legend</text><text x="1168" y="120" class="small muted"># • model • engine • latency p95 • tok/s</text><circle cx="1178" cy="144" r="10" fill="#5B8DEF" stroke="#ffffff" stroke-width="1.3"/><text x="1178" y="148" text-anchor="middle" class="point-id">1</text><text x="1198" y="148" class="legend-row">Gemma 2 2B • vLLM • 4588 ms • 264.7 tok/s</text><circle cx="1178" cy="172" r="10" fill="#F5A524" stroke="#ffffff" stroke-width="1.3"/><text x="1178" y="176" text-anchor="middle" class="point-id">2</text><text x="1198" y="176" class="legend-row">Gemma 2 2B • SGLang • 4844 ms • 258.0 tok/s</text><circle cx="1178" cy="200" r="10" fill="#5B8DEF" stroke="#ffffff" stroke-width="1.3"/><text x="1178" y="204" text-anchor="middle" class="point-id">3</text><text x="1198" y="204" class="legend-row">Llama 3.2 3B • vLLM • 5416 ms • 223.5 tok/s</text><circle cx="1178" cy="228" r="10" fill="#5B8DEF" stroke="#ffffff" stroke-width="1.3"/><text x="1178" y="232" text-anchor="middle" class="point-id">4</text><text x="1198" y="232" class="legend-row">SmolLM3 3B • vLLM • 5522 ms • 229.5 tok/s</text><circle cx="1178" cy="256" r="10" fill="#F5A524" stroke="#ffffff" stroke-width="1.3"/><text x="1178" y="260" text-anchor="middle" class="point-id">5</text><text x="1198" y="260" class="legend-row">Llama 3.2 3B • SGLang • 5545 ms • 226.0 tok/s</text><circle cx="1178" cy="284" r="10" fill="#F5A524" stroke="#ffffff" stroke-width="1.3"/><text x="1178" y="288" text-anchor="middle" class="point-id">6</text><text x="1198" y="288" class="legend-row">SmolLM3 3B • SGLang • 10724 ms • 204.6 tok/s</text><circle cx="1178" cy="312" r="10" fill="#5B8DEF" stroke="#ffffff" stroke-width="1.3"/><text x="1178" y="316" text-anchor="middle" class="point-id">7</text><text x="1198" y="316" class="legend-row">Gemma 3 4B • vLLM • 11539 ms • 83.9 tok/s</text><circle cx="1178" cy="340" r="10" fill="#5B8DEF" stroke="#ffffff" stroke-width="1.3"/><text x="1178" y="344" text-anchor="middle" class="point-id">8</text><text x="1198" y="344" class="legend-row">Phi-3 mini • vLLM • 8064 ms • 190.9 tok/s</text><circle cx="1178" cy="368" r="10" fill="#5B8DEF" stroke="#ffffff" stroke-width="1.3"/><text x="1178" y="372" text-anchor="middle" class="point-id">9</text><text x="1198" y="372" class="legend-row">Phi-4 mini • vLLM • 7512 ms • 188.6 tok/s</text><circle cx="1178" cy="396" r="10" fill="#F5A524" stroke="#ffffff" stroke-width="1.3"/><text x="1178" y="400" text-anchor="middle" class="point-id">10</text><text x="1198" y="400" class="legend-row">Gemma 3 4B • SGLang • 14731 ms • 149.2 tok/s</text><circle cx="1178" cy="424" r="10" fill="#F5A524" stroke="#ffffff" stroke-width="1.3"/><text x="1178" y="428" text-anchor="middle" class="point-id">11</text><text x="1198" y="428" class="legend-row">Phi-3 mini • SGLang • 7539 ms • 187.2 tok/s</text><circle cx="1178" cy="452" r="10" fill="#F5A524" stroke="#ffffff" stroke-width="1.3"/><text x="1178" y="456" text-anchor="middle" class="point-id">12</text><text x="1198" y="456" class="legend-row">Phi-4 mini • SGLang • 8411 ms • 175.9 tok/s</text><circle cx="1178" cy="480" r="10" fill="#5B8DEF" stroke="#ffffff" stroke-width="1.3"/><text x="1178" y="484" text-anchor="middle" class="point-id">13</text><text x="1198" y="484" class="legend-row">DS-R1 Qwen 7B • vLLM • 9322 ms • 105.6 tok/s</text><circle cx="1178" cy="508" r="10" fill="#5B8DEF" stroke="#ffffff" stroke-width="1.3"/><text x="1178" y="512" text-anchor="middle" class="point-id">14</text><text x="1198" y="512" class="legend-row">Mistral 7B • vLLM • 10139 ms • 106.6 tok/s</text><circle cx="1178" cy="536" r="10" fill="#5B8DEF" stroke="#ffffff" stroke-width="1.3"/><text x="1178" y="540" text-anchor="middle" class="point-id">15</text><text x="1198" y="540" class="legend-row">Qwen 2.5 7B • vLLM • 9773 ms • 105.3 tok/s</text><circle cx="1178" cy="564" r="10" fill="#F5A524" stroke="#ffffff" stroke-width="1.3"/><text x="1178" y="568" text-anchor="middle" class="point-id">16</text><text x="1198" y="568" class="legend-row">DS-R1 Qwen 7B • SGLang • 9603 ms • 106.1 tok/s</text><circle cx="1178" cy="592" r="10" fill="#F5A524" stroke="#ffffff" stroke-width="1.3"/><text x="1178" y="596" text-anchor="middle" class="point-id">17</text><text x="1198" y="596" class="legend-row">Mistral 7B • SGLang • 10122 ms • 106.8 tok/s</text><circle cx="1178" cy="620" r="10" fill="#F5A524" stroke="#ffffff" stroke-width="1.3"/><text x="1178" y="624" text-anchor="middle" class="point-id">18</text><text x="1198" y="624" class="legend-row">Qwen 2.5 7B • SGLang • 9543 ms • 106.3 tok/s</text><circle cx="1178" cy="648" r="10" fill="#5B8DEF" stroke="#ffffff" stroke-width="1.3"/><text x="1178" y="652" text-anchor="middle" class="point-id">19</text><text x="1198" y="652" class="legend-row">DS-R1 Llama 8B • vLLM • 10548 ms • 101.8 tok/s</text><circle cx="1178" cy="676" r="10" fill="#5B8DEF" stroke="#ffffff" stroke-width="1.3"/><text x="1178" y="680" text-anchor="middle" class="point-id">20</text><text x="1198" y="680" class="legend-row">Granite 8B • vLLM • 12299 ms • 92.8 tok/s</text><circle cx="1178" cy="704" r="10" fill="#5B8DEF" stroke="#ffffff" stroke-width="1.3"/><text x="1178" y="708" text-anchor="middle" class="point-id">21</text><text x="1198" y="708" class="legend-row">Llama 3.1 8B • vLLM • 10524 ms • 101.7 tok/s</text><circle cx="1178" cy="732" r="10" fill="#5B8DEF" stroke="#ffffff" stroke-width="1.3"/><text x="1178" y="736" text-anchor="middle" class="point-id">22</text><text x="1198" y="736" class="legend-row">Qwen3 8B • vLLM • 11646 ms • 98.3 tok/s</text><circle cx="1178" cy="760" r="10" fill="#F5A524" stroke="#ffffff" stroke-width="1.3"/><text x="1178" y="764" text-anchor="middle" class="point-id">23</text><text x="1198" y="764" class="legend-row">DS-R1 Llama 8B • SGLang • 10611 ms • 102.0 tok/s</text><circle cx="1178" cy="788" r="10" fill="#F5A524" stroke="#ffffff" stroke-width="1.3"/><text x="1178" y="792" text-anchor="middle" class="point-id">24</text><text x="1198" y="792" class="legend-row">Granite 8B • SGLang • 12522 ms • 92.8 tok/s</text><circle cx="1178" cy="816" r="10" fill="#F5A524" stroke="#ffffff" stroke-width="1.3"/><text x="1178" y="820" text-anchor="middle" class="point-id">25</text><text x="1198" y="820" class="legend-row">Llama 3.1 8B • SGLang • 10585 ms • 102.1 tok/s</text><circle cx="1178" cy="844" r="10" fill="#F5A524" stroke="#ffffff" stroke-width="1.3"/><text x="1178" y="848" text-anchor="middle" class="point-id">26</text><text x="1198" y="848" class="legend-row">Qwen3 8B • SGLang • 11692 ms • 98.5 tok/s</text><circle cx="1178" cy="872" r="10" fill="#5B8DEF" stroke="#ffffff" stroke-width="1.3"/><text x="1178" y="876" text-anchor="middle" class="point-id">27</text><text x="1198" y="876" class="legend-row">Gemma 2 9B • vLLM • 14399 ms • 79.8 tok/s</text><circle cx="1178" cy="900" r="10" fill="#F5A524" stroke="#ffffff" stroke-width="1.3"/><text x="1178" y="904" text-anchor="middle" class="point-id">28</text><text x="1198" y="904" class="legend-row">Gemma 2 9B • SGLang • 46027 ms • 77.5 tok/s</text><rect x="1168" y="779" width="14" height="14" rx="3" fill="#5B8DEF"/><text x="1190" y="790" class="small">vLLM</text><rect x="1168" y="801" width="14" height="14" rx="3" fill="#F5A524"/><text x="1190" y="812" class="small">SGLang</text><text x="625.0" y="904" text-anchor="middle" class="label muted">Latency p95 (ms)</text><text x="26" y="464.0" transform="rotate(-90 26 464.0)" class="label muted">Tokens / sec</text></svg>