<svg xmlns="http://www.w3.org/2000/svg" width="1200" height="680" viewBox="0 0 1200 680"><style>text{font-family:system-ui,-apple-system,sans-serif;fill:#e8eefc}.muted{fill:#9fb0d0}.title{font-size:28px;font-weight:700}.subtitle{font-size:14px}.axis{stroke:#5c6b91;stroke-width:1}.grid{stroke:#27335a;stroke-width:1}.small{font-size:12px}.label{font-size:14px}</style><rect width="1200" height="680" fill="#0b1020"/><text x="110" y="40" class="title">Throughput tradeoff map</text><text x="110" y="64" class="subtitle muted">Each point is a completed throughput-ramp run. Top-left is ideal: lower latency p95, higher tokens/sec.</text><line x1="110.0" y1="90" x2="110.0" y2="600" class="grid"/><line x1="110" y1="600.0" x2="1150" y2="600.0" class="grid"/><text x="110.0" y="622.0" text-anchor="middle" class="small muted">4588</text><text x="98" y="604.0" text-anchor="end" class="small muted">0</text><line x1="318.0" y1="90" x2="318.0" y2="600" class="grid"/><line x1="110" y1="498.0" x2="1150" y2="498.0" class="grid"/><text x="318.0" y="622.0" text-anchor="middle" class="small muted">12876</text><text x="98" y="502.0" text-anchor="end" class="small muted">58</text><line x1="526.0" y1="90" x2="526.0" y2="600" class="grid"/><line x1="110" y1="396.0" x2="1150" y2="396.0" class="grid"/><text x="526.0" y="622.0" text-anchor="middle" class="small muted">21164</text><text x="98" y="400.0" text-anchor="end" class="small muted">116</text><line x1="734.0" y1="90" x2="734.0" y2="600" class="grid"/><line x1="110" y1="294.0" x2="1150" y2="294.0" class="grid"/><text x="734.0" y="622.0" text-anchor="middle" class="small muted">29452</text><text x="98" y="298.0" text-anchor="end" class="small muted">175</text><line x1="942.0" y1="90" x2="942.0" y2="600" class="grid"/><line x1="110" y1="192.0" x2="1150" y2="192.0" class="grid"/><text x="942.0" y="622.0" text-anchor="middle" class="small muted">37740</text><text x="98" y="196.0" text-anchor="end" class="small muted">233</text><line x1="1150.0" y1="90" x2="1150.0" y2="600" class="grid"/><line x1="110" y1="90.0" x2="1150" y2="90.0" class="grid"/><text x="1150.0" y="622.0" text-anchor="middle" class="small muted">46027</text><text x="98" y="94.0" text-anchor="end" class="small muted">291</text><line x1="110" y1="90" x2="110" y2="600" class="axis"/><line x1="110" y1="600" x2="1150" y2="600" class="axis"/><circle cx="110.0" cy="136.4" r="8" fill="#5B8DEF" stroke="#ffffff" stroke-width="1.5"/><text x="122.0" y="126.4" class="small">Gemma 2B • vLLM</text><circle cx="116.4" cy="148.1" r="8" fill="#F5A524" stroke="#ffffff" stroke-width="1.5"/><text x="128.4" y="138.1" class="small">Gemma 2B • SGLang</text><circle cx="130.8" cy="208.5" r="8" fill="#5B8DEF" stroke="#ffffff" stroke-width="1.5"/><text x="142.8" y="198.5" class="small">Llama 3.2 3B • vLLM</text><circle cx="134.0" cy="204.1" r="8" fill="#F5A524" stroke="#ffffff" stroke-width="1.5"/><text x="146.0" y="194.1" class="small">Llama 3.2 3B • SGLang</text><circle cx="197.2" cy="265.6" r="8" fill="#5B8DEF" stroke="#ffffff" stroke-width="1.5"/><text x="209.2" y="255.6" class="small">Phi-3 mini • vLLM</text><circle cx="183.7" cy="271.9" r="8" fill="#F5A524" stroke="#ffffff" stroke-width="1.5"/><text x="195.7" y="261.9" class="small">Phi-3 mini • SGLang</text><circle cx="249.3" cy="413.3" r="8" fill="#5B8DEF" stroke="#ffffff" stroke-width="1.5"/><text x="261.3" y="403.3" class="small">Mistral 7B • vLLM</text><circle cx="240.1" cy="415.6" r="8" fill="#5B8DEF" stroke="#ffffff" stroke-width="1.5"/><text x="252.1" y="405.6" class="small">Qwen 7B • vLLM</text><circle cx="248.9" cy="412.9" r="8" fill="#F5A524" stroke="#ffffff" stroke-width="1.5"/><text x="260.9" y="402.9" class="small">Mistral 7B • SGLang</text><circle cx="234.3" cy="413.8" r="8" fill="#F5A524" stroke="#ffffff" stroke-width="1.5"/><text x="246.3" y="403.8" class="small">Qwen 7B • SGLang</text><circle cx="259.0" cy="421.9" r="8" fill="#5B8DEF" stroke="#ffffff" stroke-width="1.5"/><text x="271.0" y="411.9" class="small">Llama 3.1 8B • vLLM</text><circle cx="261.3" cy="421.2" r="8" fill="#F5A524" stroke="#ffffff" stroke-width="1.5"/><text x="273.3" y="411.2" class="small">Llama 3.1 8B • SGLang</text><circle cx="356.2" cy="460.2" r="8" fill="#5B8DEF" stroke="#ffffff" stroke-width="1.5"/><text x="368.2" y="450.2" class="small">Gemma 9B • vLLM</text><circle cx="1150.0" cy="464.3" r="8" fill="#F5A524" stroke="#ffffff" stroke-width="1.5"/><text x="1162.0" y="454.3" class="small">Gemma 9B • SGLang</text><text x="630.0" y="662" text-anchor="middle" class="label muted">Latency p95 (ms)</text><text x="26" y="345.0" transform="rotate(-90 26 345.0)" class="label muted">Tokens / sec</text></svg>