<svg xmlns="http://www.w3.org/2000/svg" width="1550" height="720" viewBox="0 0 1550 720"><style>text{font-family:system-ui,-apple-system,sans-serif;fill:#e8eefc}.muted{fill:#9fb0d0}.small{font-size:11px}.label{font-size:13px}.title{font-size:26px;font-weight:700}.subtitle{font-size:13px}.axis{stroke:#5c6b91;stroke-width:1}.grid{stroke:#27335a;stroke-width:1}.value{font-size:10px;font-weight:700}.legend{font-size:13px}.xlbl{font-size:12px}</style><rect width="1550" height="720" fill="#0b1020"/><text x="100" y="40" class="title">Throughput ramp: tokens/sec</text><text x="100" y="64" class="subtitle muted">Higher is better • completed model/engine pairs only</text><line x1="100" y1="570.0" x2="1510" y2="570.0" class="grid"/><text x="88" y="574.0" text-anchor="end" class="small muted">0</text><line x1="100" y1="474.0" x2="1510" y2="474.0" class="grid"/><text x="88" y="478.0" text-anchor="end" class="small muted">62</text><line x1="100" y1="378.0" x2="1510" y2="378.0" class="grid"/><text x="88" y="382.0" text-anchor="end" class="small muted">125</text><line x1="100" y1="282.0" x2="1510" y2="282.0" class="grid"/><text x="88" y="286.0" text-anchor="end" class="small muted">187</text><line x1="100" y1="186.0" x2="1510" y2="186.0" class="grid"/><text x="88" y="190.0" text-anchor="end" class="small muted">250</text><line x1="100" y1="90.0" x2="1510" y2="90.0" class="grid"/><text x="88" y="94.0" text-anchor="end" class="small muted">312</text><line x1="100" y1="90" x2="100" y2="570" class="axis"/><line x1="100" y1="570" x2="1510" y2="570" class="axis"/><rect x="116.3" y="163.2" width="32.5" height="406.8" rx="4" fill="#5B8DEF"/><text x="132.5" y="157.2" text-anchor="middle" class="value">265</text><rect x="155.3" y="173.5" width="32.5" height="396.5" rx="4" fill="#F5A524"/><text x="171.6" y="167.5" text-anchor="middle" class="value">258</text><text x="152.1" y="586" text-anchor="end" transform="rotate(-35 152.1 586)" class="xlbl">Gemma 2 2B</text><rect x="263.8" y="255.6" width="32.5" height="314.4" rx="4" fill="#F5A524"/><text x="280.0" y="249.6" text-anchor="middle" class="value">205</text><text x="260.5" y="586" text-anchor="end" transform="rotate(-35 260.5 586)" class="xlbl">SmolLM3 3B</text><rect x="333.2" y="226.5" width="32.5" height="343.5" rx="4" fill="#5B8DEF"/><text x="349.5" y="220.5" text-anchor="middle" class="value">224</text><rect x="372.2" y="222.7" width="32.5" height="347.3" rx="4" fill="#F5A524"/><text x="388.5" y="216.7" text-anchor="middle" class="value">226</text><text x="369.0" y="586" text-anchor="end" transform="rotate(-35 369.0 586)" class="xlbl">Llama 3.2 3B</text><rect x="441.7" y="276.6" width="32.5" height="293.4" rx="4" fill="#5B8DEF"/><text x="457.9" y="270.6" text-anchor="middle" class="value">191</text><rect x="480.7" y="282.3" width="32.5" height="287.7" rx="4" fill="#F5A524"/><text x="497.0" y="276.3" text-anchor="middle" class="value">187</text><text x="477.4" y="586" text-anchor="end" transform="rotate(-35 477.4 586)" class="xlbl">Phi-3 mini</text><rect x="550.1" y="280.2" width="32.5" height="289.8" rx="4" fill="#5B8DEF"/><text x="566.4" y="274.2" text-anchor="middle" class="value">189</text><rect x="589.2" y="299.7" width="32.5" height="270.3" rx="4" fill="#F5A524"/><text x="605.4" y="293.7" text-anchor="middle" class="value">176</text><text x="585.9" y="586" text-anchor="end" transform="rotate(-35 585.9 586)" class="xlbl">Phi-4 mini</text><rect x="658.6" y="408.2" width="32.5" height="161.8" rx="4" fill="#5B8DEF"/><text x="674.8" y="402.2" text-anchor="middle" class="value">105</text><rect x="697.6" y="406.6" width="32.5" height="163.4" rx="4" fill="#F5A524"/><text x="713.9" y="400.6" text-anchor="middle" class="value">106</text><text x="694.4" y="586" text-anchor="end" transform="rotate(-35 694.4 586)" class="xlbl">Qwen 2.5 7B</text><rect x="767.0" y="407.7" width="32.5" height="162.3" rx="4" fill="#5B8DEF"/><text x="783.3" y="401.7" text-anchor="middle" class="value">106</text><rect x="806.1" y="407.0" width="32.5" height="163.0" rx="4" fill="#F5A524"/><text x="822.4" y="401.0" text-anchor="middle" class="value">106</text><text x="802.8" y="586" text-anchor="end" transform="rotate(-35 802.8 586)" class="xlbl">DS-R1 Qwen 7B</text><rect x="875.5" y="406.2" width="32.5" height="163.8" rx="4" fill="#5B8DEF"/><text x="891.8" y="400.2" text-anchor="middle" class="value">107</text><rect x="914.5" y="405.9" width="32.5" height="164.1" rx="4" fill="#F5A524"/><text x="930.8" y="399.9" text-anchor="middle" class="value">107</text><text x="911.3" y="586" text-anchor="end" transform="rotate(-35 911.3 586)" class="xlbl">Mistral 7B</text><rect x="984.0" y="413.7" width="32.5" height="156.3" rx="4" fill="#5B8DEF"/><text x="1000.2" y="407.7" text-anchor="middle" class="value">102</text><rect x="1023.0" y="413.1" width="32.5" height="156.9" rx="4" fill="#F5A524"/><text x="1039.3" y="407.1" text-anchor="middle" class="value">102</text><text x="1019.8" y="586" text-anchor="end" transform="rotate(-35 1019.8 586)" class="xlbl">Llama 3.1 8B</text><rect x="1092.4" y="418.8" width="32.5" height="151.2" rx="4" fill="#5B8DEF"/><text x="1108.7" y="412.8" text-anchor="middle" class="value">98.4</text><rect x="1131.5" y="418.5" width="32.5" height="151.5" rx="4" fill="#F5A524"/><text x="1147.7" y="412.5" text-anchor="middle" class="value">98.6</text><text x="1128.2" y="586" text-anchor="end" transform="rotate(-35 1128.2 586)" class="xlbl">Qwen3 8B</text><rect x="1239.9" y="427.4" width="32.5" height="142.6" rx="4" fill="#F5A524"/><text x="1256.2" y="421.4" text-anchor="middle" class="value">92.8</text><text x="1236.7" y="586" text-anchor="end" transform="rotate(-35 1236.7 586)" class="xlbl">Granite 8B</text><rect x="1348.4" y="413.3" width="32.5" height="156.7" rx="4" fill="#F5A524"/><text x="1364.7" y="407.3" text-anchor="middle" class="value">102</text><text x="1345.1" y="586" text-anchor="end" transform="rotate(-35 1345.1 586)" class="xlbl">DS-R1 Llama 8B</text><rect x="1417.8" y="447.4" width="32.5" height="122.6" rx="4" fill="#5B8DEF"/><text x="1434.1" y="441.4" text-anchor="middle" class="value">79.8</text><rect x="1456.9" y="450.9" width="32.5" height="119.1" rx="4" fill="#F5A524"/><text x="1473.1" y="444.9" text-anchor="middle" class="value">77.5</text><text x="1453.6" y="586" text-anchor="end" transform="rotate(-35 1453.6 586)" class="xlbl">Gemma 2 9B</text><rect x="1330" y="34" width="14" height="14" rx="3" fill="#5B8DEF"/><text x="1354" y="45" class="legend">vLLM</text><rect x="1330" y="56" width="14" height="14" rx="3" fill="#F5A524"/><text x="1354" y="67" class="legend">SGLang</text><text x="24" y="330.0" transform="rotate(-90 24 330.0)" class="label muted">Tokens / sec</text><text x="100" y="704" class="small muted">Higher is better ↑ • 13 models with data</text></svg>