<svg xmlns="http://www.w3.org/2000/svg" width="1200" height="650" viewBox="0 0 1200 650"><style>text{font-family:system-ui,-apple-system,sans-serif;fill:#e8eefc}.muted{fill:#9fb0d0}.small{font-size:12px}.label{font-size:14px}.title{font-size:28px;font-weight:700}.subtitle{font-size:14px}.axis{stroke:#5c6b91;stroke-width:1}.grid{stroke:#27335a;stroke-width:1}.value{font-size:12px;font-weight:700}.legend{font-size:13px}</style><rect width="1200" height="650" fill="#0b1020"/><text x="100" y="40" class="title">Throughput ramp: tokens/sec</text><text x="100" y="64" class="subtitle muted">Higher is better • completed model/engine pairs only</text><line x1="100" y1="540.0" x2="1160" y2="540.0" class="grid"/><text x="88" y="544.0" text-anchor="end" class="small muted">0</text><line x1="100" y1="450.0" x2="1160" y2="450.0" class="grid"/><text x="88" y="454.0" text-anchor="end" class="small muted">8386</text><line x1="100" y1="360.0" x2="1160" y2="360.0" class="grid"/><text x="88" y="364.0" text-anchor="end" class="small muted">16771</text><line x1="100" y1="270.0" x2="1160" y2="270.0" class="grid"/><text x="88" y="274.0" text-anchor="end" class="small muted">25157</text><line x1="100" y1="180.0" x2="1160" y2="180.0" class="grid"/><text x="88" y="184.0" text-anchor="end" class="small muted">33542</text><line x1="100" y1="90.0" x2="1160" y2="90.0" class="grid"/><text x="88" y="94.0" text-anchor="end" class="small muted">41928</text><line x1="100" y1="90" x2="100" y2="540" class="axis"/><line x1="100" y1="540" x2="1160" y2="540" class="axis"/><rect x="138.2" y="176.4" width="55.1" height="363.6" rx="6" fill="#5B8DEF"/><text x="165.7" y="168.4" text-anchor="middle" class="value">33875.2</text><rect x="210.2" y="148.7" width="55.1" height="391.3" rx="6" fill="#F5A524"/><text x="237.8" y="140.7" text-anchor="middle" class="value">36459.2</text><text x="197.5" y="568" text-anchor="middle" class="label">Gemma 2B</text><rect x="350.2" y="319.6" width="55.1" height="220.4" rx="6" fill="#5B8DEF"/><text x="377.7" y="311.6" text-anchor="middle" class="value">20533.9</text><text x="409.5" y="568" text-anchor="middle" class="label">Phi-3 mini</text><rect x="562.2" y="377.5" width="55.1" height="162.5" rx="6" fill="#5B8DEF"/><text x="589.7" y="369.5" text-anchor="middle" class="value">15140.9</text><rect x="634.2" y="339.6" width="55.1" height="200.4" rx="6" fill="#F5A524"/><text x="661.8" y="331.6" text-anchor="middle" class="value">18667.3</text><text x="621.5" y="568" text-anchor="middle" class="label">Qwen 7B</text><rect x="774.2" y="355.7" width="55.1" height="184.3" rx="6" fill="#5B8DEF"/><text x="801.7" y="347.7" text-anchor="middle" class="value">17175.6</text><rect x="846.2" y="354.4" width="55.1" height="185.6" rx="6" fill="#F5A524"/><text x="873.8" y="346.4" text-anchor="middle" class="value">17294.3</text><text x="833.5" y="568" text-anchor="middle" class="label">Mistral 7B</text><rect x="986.2" y="436.8" width="55.1" height="103.2" rx="6" fill="#5B8DEF"/><text x="1013.7" y="428.8" text-anchor="middle" class="value">9619.6</text><rect x="1058.2" y="501.4" width="55.1" height="38.6" rx="6" fill="#F5A524"/><text x="1085.8" y="493.4" text-anchor="middle" class="value">3595.1</text><text x="1045.5" y="568" text-anchor="middle" class="label">Gemma 9B</text><rect x="980" y="34" width="14" height="14" rx="3" fill="#5B8DEF"/><text x="1004" y="45" class="legend">vLLM</text><rect x="980" y="56" width="14" height="14" rx="3" fill="#F5A524"/><text x="1004" y="67" class="legend">SGLang</text><text x="24" y="315.0" transform="rotate(-90 24 315.0)" class="label muted">Tokens / sec</text><text x="100" y="630" class="small muted">Higher is better</text></svg>