<svg xmlns="http://www.w3.org/2000/svg" width="1520" height="860" viewBox="0 0 1520 860"><style>text{font-family:system-ui,-apple-system,sans-serif;fill:#e8eefc}.muted{fill:#9fb0d0}.title{font-size:28px;font-weight:700}.subtitle{font-size:14px}.axis{stroke:#5c6b91;stroke-width:1}.grid{stroke:#27335a;stroke-width:1}.small{font-size:12px}.label{font-size:14px}.legend-title{font-size:16px;font-weight:700}.legend-row{font-size:12px}.point-id{font-size:11px;font-weight:700;fill:#08101e}.hint{font-size:13px;fill:#9fb0d0}</style><rect width="1520" height="860" fill="#0b1020"/><text x="110" y="40" class="title">Throughput tradeoff map</text><text x="110" y="64" class="subtitle muted">Throughput-ramp runs only. Top-left is ideal: lower latency p95, higher tokens/sec. Numbered points map to the legend on the right.</text><line x1="110.0" y1="96" x2="110.0" y2="770" class="grid"/><text x="110.0" y="794.0" text-anchor="middle" class="small muted">4129</text><line x1="281.7" y1="96" x2="281.7" y2="770" class="grid"/><text x="281.7" y="794.0" text-anchor="middle" class="small muted">11726</text><line x1="453.3" y1="96" x2="453.3" y2="770" class="grid"/><text x="453.3" y="794.0" text-anchor="middle" class="small muted">19323</text><line x1="625.0" y1="96" x2="625.0" y2="770" class="grid"/><text x="625.0" y="794.0" text-anchor="middle" class="small muted">26919</text><line x1="796.7" y1="96" x2="796.7" y2="770" class="grid"/><text x="796.7" y="794.0" text-anchor="middle" class="small muted">34516</text><line x1="968.3" y1="96" x2="968.3" y2="770" class="grid"/><text x="968.3" y="794.0" text-anchor="middle" class="small muted">42113</text><line x1="1140.0" y1="96" x2="1140.0" y2="770" class="grid"/><text x="1140.0" y="794.0" text-anchor="middle" class="small muted">49710</text><line x1="110" y1="770.0" x2="1140" y2="770.0" class="grid"/><text x="98" y="774.0" text-anchor="end" class="small muted">0</text><line x1="110" y1="657.7" x2="1140" y2="657.7" class="grid"/><text x="98" y="661.7" text-anchor="end" class="small muted">49</text><line x1="110" y1="545.3" x2="1140" y2="545.3" class="grid"/><text x="98" y="549.3" text-anchor="end" class="small muted">99</text><line x1="110" y1="433.0" x2="1140" y2="433.0" class="grid"/><text x="98" y="437.0" text-anchor="end" class="small muted">148</text><line x1="110" y1="320.7" x2="1140" y2="320.7" class="grid"/><text x="98" y="324.7" text-anchor="end" class="small muted">198</text><line x1="110" y1="208.3" x2="1140" y2="208.3" class="grid"/><text x="98" y="212.3" text-anchor="end" class="small muted">247</text><line x1="110" y1="96.0" x2="1140" y2="96.0" class="grid"/><text x="98" y="100.0" text-anchor="end" class="small muted">296</text><line x1="110" y1="96" x2="110" y2="770" class="axis"/><line x1="110" y1="770" x2="1140" y2="770" class="axis"/><path d="M 150 166 L 120 136" fill="none" stroke="#9fb0d0" stroke-width="1.5" stroke-dasharray="4 4"/><text x="158" y="170" class="hint">better</text><circle cx="120.4" cy="168.2" r="12" fill="#5B8DEF" stroke="#ffffff" stroke-width="1.8"/><text x="120.4" y="172.2" text-anchor="middle" class="point-id">1</text><circle cx="126.2" cy="183.4" r="12" fill="#F5A524" stroke="#ffffff" stroke-width="1.8"/><text x="126.2" y="187.4" text-anchor="middle" class="point-id">2</text><circle cx="139.1" cy="261.9" r="12" fill="#5B8DEF" stroke="#ffffff" stroke-width="1.8"/><text x="139.1" y="265.9" text-anchor="middle" class="point-id">3</text><circle cx="142.0" cy="256.2" r="12" fill="#F5A524" stroke="#ffffff" stroke-width="1.8"/><text x="142.0" y="260.2" text-anchor="middle" class="point-id">4</text><circle cx="259.0" cy="304.8" r="12" fill="#F5A524" stroke="#ffffff" stroke-width="1.8"/><text x="259.0" y="308.8" text-anchor="middle" class="point-id">5</text><circle cx="198.9" cy="336.0" r="12" fill="#5B8DEF" stroke="#ffffff" stroke-width="1.8"/><text x="198.9" y="340.0" text-anchor="middle" class="point-id">6</text><circle cx="186.4" cy="341.2" r="12" fill="#5B8DEF" stroke="#ffffff" stroke-width="1.8"/><text x="186.4" y="345.2" text-anchor="middle" class="point-id">7</text><circle cx="187.0" cy="344.4" r="12" fill="#F5A524" stroke="#ffffff" stroke-width="1.8"/><text x="187.0" y="348.4" text-anchor="middle" class="point-id">8</text><circle cx="206.8" cy="370.1" r="12" fill="#F5A524" stroke="#ffffff" stroke-width="1.8"/><text x="206.8" y="374.1" text-anchor="middle" class="point-id">9</text><circle cx="227.3" cy="529.9" r="12" fill="#5B8DEF" stroke="#ffffff" stroke-width="1.8"/><text x="227.3" y="533.9" text-anchor="middle" class="point-id">10</text><circle cx="245.8" cy="527.6" r="12" fill="#5B8DEF" stroke="#ffffff" stroke-width="1.8"/><text x="245.8" y="531.6" text-anchor="middle" class="point-id">11</text><circle cx="237.5" cy="530.6" r="12" fill="#5B8DEF" stroke="#ffffff" stroke-width="1.8"/><text x="237.5" y="534.6" text-anchor="middle" class="point-id">12</text><circle cx="233.7" cy="528.8" r="12" fill="#F5A524" stroke="#ffffff" stroke-width="1.8"/><text x="233.7" y="532.8" text-anchor="middle" class="point-id">13</text><circle cx="245.4" cy="527.2" r="12" fill="#F5A524" stroke="#ffffff" stroke-width="1.8"/><text x="245.4" y="531.2" text-anchor="middle" class="point-id">14</text><circle cx="232.3" cy="528.3" r="12" fill="#F5A524" stroke="#ffffff" stroke-width="1.8"/><text x="232.3" y="532.3" text-anchor="middle" class="point-id">15</text><circle cx="254.5" cy="538.8" r="12" fill="#5B8DEF" stroke="#ffffff" stroke-width="1.8"/><text x="254.5" y="542.8" text-anchor="middle" class="point-id">16</text><circle cx="277.2" cy="546.3" r="12" fill="#5B8DEF" stroke="#ffffff" stroke-width="1.8"/><text x="277.2" y="550.3" text-anchor="middle" class="point-id">17</text><circle cx="256.5" cy="538.1" r="12" fill="#F5A524" stroke="#ffffff" stroke-width="1.8"/><text x="256.5" y="542.1" text-anchor="middle" class="point-id">18</text><circle cx="298.5" cy="559.0" r="12" fill="#F5A524" stroke="#ffffff" stroke-width="1.8"/><text x="298.5" y="563.0" text-anchor="middle" class="point-id">19</text><circle cx="256.6" cy="537.9" r="12" fill="#F5A524" stroke="#ffffff" stroke-width="1.8"/><text x="256.6" y="541.9" text-anchor="middle" class="point-id">20</text><circle cx="282.2" cy="545.8" r="12" fill="#F5A524" stroke="#ffffff" stroke-width="1.8"/><text x="282.2" y="549.8" text-anchor="middle" class="point-id">21</text><circle cx="342.1" cy="588.6" r="12" fill="#5B8DEF" stroke="#ffffff" stroke-width="1.8"/><text x="342.1" y="592.6" text-anchor="middle" class="point-id">22</text><circle cx="1056.8" cy="593.8" r="12" fill="#F5A524" stroke="#ffffff" stroke-width="1.8"/><text x="1056.8" y="597.8" text-anchor="middle" class="point-id">23</text><rect x="1150" y="70" width="368" height="710" rx="14" fill="#101933" stroke="#27335a" stroke-width="1"/><text x="1168" y="96" class="legend-title">Legend</text><text x="1168" y="120" class="small muted"># • model • engine • latency p95 • tok/s</text><circle cx="1178" cy="144" r="10" fill="#5B8DEF" stroke="#ffffff" stroke-width="1.3"/><text x="1178" y="148" text-anchor="middle" class="point-id">1</text><text x="1198" y="148" class="legend-row">Gemma 2 2B • vLLM • 4588 ms • 264.7 tok/s</text><circle cx="1178" cy="172" r="10" fill="#F5A524" stroke="#ffffff" stroke-width="1.3"/><text x="1178" y="176" text-anchor="middle" class="point-id">2</text><text x="1198" y="176" class="legend-row">Gemma 2 2B • SGLang • 4844 ms • 258.0 tok/s</text><circle cx="1178" cy="200" r="10" fill="#5B8DEF" stroke="#ffffff" stroke-width="1.3"/><text x="1178" y="204" text-anchor="middle" class="point-id">3</text><text x="1198" y="204" class="legend-row">Llama 3.2 3B • vLLM • 5416 ms • 223.5 tok/s</text><circle cx="1178" cy="228" r="10" fill="#F5A524" stroke="#ffffff" stroke-width="1.3"/><text x="1178" y="232" text-anchor="middle" class="point-id">4</text><text x="1198" y="232" class="legend-row">Llama 3.2 3B • SGLang • 5545 ms • 226.0 tok/s</text><circle cx="1178" cy="256" r="10" fill="#F5A524" stroke="#ffffff" stroke-width="1.3"/><text x="1178" y="260" text-anchor="middle" class="point-id">5</text><text x="1198" y="260" class="legend-row">SmolLM3 3B • SGLang • 10724 ms • 204.6 tok/s</text><circle cx="1178" cy="284" r="10" fill="#5B8DEF" stroke="#ffffff" stroke-width="1.3"/><text x="1178" y="288" text-anchor="middle" class="point-id">6</text><text x="1198" y="288" class="legend-row">Phi-3 mini • vLLM • 8064 ms • 190.9 tok/s</text><circle cx="1178" cy="312" r="10" fill="#5B8DEF" stroke="#ffffff" stroke-width="1.3"/><text x="1178" y="316" text-anchor="middle" class="point-id">7</text><text x="1198" y="316" class="legend-row">Phi-4 mini • vLLM • 7512 ms • 188.6 tok/s</text><circle cx="1178" cy="340" r="10" fill="#F5A524" stroke="#ffffff" stroke-width="1.3"/><text x="1178" y="344" text-anchor="middle" class="point-id">8</text><text x="1198" y="344" class="legend-row">Phi-3 mini • SGLang • 7539 ms • 187.2 tok/s</text><circle cx="1178" cy="368" r="10" fill="#F5A524" stroke="#ffffff" stroke-width="1.3"/><text x="1178" y="372" text-anchor="middle" class="point-id">9</text><text x="1198" y="372" class="legend-row">Phi-4 mini • SGLang • 8411 ms • 175.9 tok/s</text><circle cx="1178" cy="396" r="10" fill="#5B8DEF" stroke="#ffffff" stroke-width="1.3"/><text x="1178" y="400" text-anchor="middle" class="point-id">10</text><text x="1198" y="400" class="legend-row">DS-R1 Qwen 7B • vLLM • 9322 ms • 105.6 tok/s</text><circle cx="1178" cy="424" r="10" fill="#5B8DEF" stroke="#ffffff" stroke-width="1.3"/><text x="1178" y="428" text-anchor="middle" class="point-id">11</text><text x="1198" y="428" class="legend-row">Mistral 7B • vLLM • 10139 ms • 106.6 tok/s</text><circle cx="1178" cy="452" r="10" fill="#5B8DEF" stroke="#ffffff" stroke-width="1.3"/><text x="1178" y="456" text-anchor="middle" class="point-id">12</text><text x="1198" y="456" class="legend-row">Qwen 2.5 7B • vLLM • 9773 ms • 105.3 tok/s</text><circle cx="1178" cy="480" r="10" fill="#F5A524" stroke="#ffffff" stroke-width="1.3"/><text x="1178" y="484" text-anchor="middle" class="point-id">13</text><text x="1198" y="484" class="legend-row">DS-R1 Qwen 7B • SGLang • 9603 ms • 106.1 tok/s</text><circle cx="1178" cy="508" r="10" fill="#F5A524" stroke="#ffffff" stroke-width="1.3"/><text x="1178" y="512" text-anchor="middle" class="point-id">14</text><text x="1198" y="512" class="legend-row">Mistral 7B • SGLang • 10122 ms • 106.8 tok/s</text><circle cx="1178" cy="536" r="10" fill="#F5A524" stroke="#ffffff" stroke-width="1.3"/><text x="1178" y="540" text-anchor="middle" class="point-id">15</text><text x="1198" y="540" class="legend-row">Qwen 2.5 7B • SGLang • 9543 ms • 106.3 tok/s</text><circle cx="1178" cy="564" r="10" fill="#5B8DEF" stroke="#ffffff" stroke-width="1.3"/><text x="1178" y="568" text-anchor="middle" class="point-id">16</text><text x="1198" y="568" class="legend-row">Llama 3.1 8B • vLLM • 10524 ms • 101.7 tok/s</text><circle cx="1178" cy="592" r="10" fill="#5B8DEF" stroke="#ffffff" stroke-width="1.3"/><text x="1178" y="596" text-anchor="middle" class="point-id">17</text><text x="1198" y="596" class="legend-row">Qwen3 8B • vLLM • 11529 ms • 98.4 tok/s</text><circle cx="1178" cy="620" r="10" fill="#F5A524" stroke="#ffffff" stroke-width="1.3"/><text x="1178" y="624" text-anchor="middle" class="point-id">18</text><text x="1198" y="624" class="legend-row">DS-R1 Llama 8B • SGLang • 10611 ms • 102.0 tok/s</text><circle cx="1178" cy="648" r="10" fill="#F5A524" stroke="#ffffff" stroke-width="1.3"/><text x="1178" y="652" text-anchor="middle" class="point-id">19</text><text x="1198" y="652" class="legend-row">Granite 8B • SGLang • 12471 ms • 92.8 tok/s</text><circle cx="1178" cy="676" r="10" fill="#F5A524" stroke="#ffffff" stroke-width="1.3"/><text x="1178" y="680" text-anchor="middle" class="point-id">20</text><text x="1198" y="680" class="legend-row">Llama 3.1 8B • SGLang • 10617 ms • 102.1 tok/s</text><circle cx="1178" cy="704" r="10" fill="#F5A524" stroke="#ffffff" stroke-width="1.3"/><text x="1178" y="708" text-anchor="middle" class="point-id">21</text><text x="1198" y="708" class="legend-row">Qwen3 8B • SGLang • 11750 ms • 98.6 tok/s</text><circle cx="1178" cy="732" r="10" fill="#5B8DEF" stroke="#ffffff" stroke-width="1.3"/><text x="1178" y="736" text-anchor="middle" class="point-id">22</text><text x="1198" y="736" class="legend-row">Gemma 2 9B • vLLM • 14399 ms • 79.8 tok/s</text><circle cx="1178" cy="760" r="10" fill="#F5A524" stroke="#ffffff" stroke-width="1.3"/><text x="1178" y="764" text-anchor="middle" class="point-id">23</text><text x="1198" y="764" class="legend-row">Gemma 2 9B • SGLang • 46027 ms • 77.5 tok/s</text><rect x="1168" y="717" width="14" height="14" rx="3" fill="#5B8DEF"/><text x="1190" y="728" class="small">vLLM</text><rect x="1168" y="739" width="14" height="14" rx="3" fill="#F5A524"/><text x="1190" y="750" class="small">SGLang</text><text x="625.0" y="842" text-anchor="middle" class="label muted">Latency p95 (ms)</text><text x="26" y="433.0" transform="rotate(-90 26 433.0)" class="label muted">Tokens / sec</text></svg>