<svg xmlns="http://www.w3.org/2000/svg" width="1200" height="640" viewBox="0 0 1200 640"><style>text{font-family:system-ui,-apple-system,sans-serif;fill:#e8eefc}.muted{fill:#9fb0d0}.small{font-size:12px}.label{font-size:14px}.title{font-size:28px;font-weight:700}.subtitle{font-size:14px}.axis{stroke:#5c6b91;stroke-width:1}.grid{stroke:#27335a;stroke-width:1}.value{font-size:12px;font-weight:700}.legend{font-size:13px}</style><rect width="1200" height="640" fill="#0b1020"/><text x="100" y="40" class="title">Throughput ramp: requests/sec</text><text x="100" y="64" class="subtitle muted">Higher is better • completed model/engine pairs only</text><line x1="100" y1="530.0" x2="1160" y2="530.0" class="grid"/><text x="88" y="534.0" text-anchor="end" class="small muted">0</text><line x1="100" y1="442.0" x2="1160" y2="442.0" class="grid"/><text x="88" y="446.0" text-anchor="end" class="small muted">67</text><line x1="100" y1="354.0" x2="1160" y2="354.0" class="grid"/><text x="88" y="358.0" text-anchor="end" class="small muted">133</text><line x1="100" y1="266.0" x2="1160" y2="266.0" class="grid"/><text x="88" y="270.0" text-anchor="end" class="small muted">200</text><line x1="100" y1="178.0" x2="1160" y2="178.0" class="grid"/><text x="88" y="182.0" text-anchor="end" class="small muted">266</text><line x1="100" y1="90.0" x2="1160" y2="90.0" class="grid"/><text x="88" y="94.0" text-anchor="end" class="small muted">333</text><line x1="100" y1="90" x2="100" y2="530" class="axis"/><line x1="100" y1="530" x2="1160" y2="530" class="axis"/><rect x="138.2" y="147.4" width="55.1" height="382.6" rx="6" fill="#5B8DEF"/><text x="165.7" y="139.4" text-anchor="middle" class="value">289.2</text><rect x="210.2" y="341.5" width="55.1" height="188.5" rx="6" fill="#F5A524"/><text x="237.8" y="333.5" text-anchor="middle" class="value">142.4</text><text x="197.5" y="558" text-anchor="middle" class="label">Gemma 2B</text><rect x="350.2" y="423.9" width="55.1" height="106.1" rx="6" fill="#5B8DEF"/><text x="377.7" y="415.9" text-anchor="middle" class="value">80.2</text><text x="409.5" y="558" text-anchor="middle" class="label">Phi-3 mini</text><rect x="562.2" y="438.7" width="55.1" height="91.3" rx="6" fill="#5B8DEF"/><text x="589.7" y="430.7" text-anchor="middle" class="value">69.0</text><rect x="634.2" y="433.5" width="55.1" height="96.5" rx="6" fill="#F5A524"/><text x="661.8" y="425.5" text-anchor="middle" class="value">72.9</text><text x="621.5" y="558" text-anchor="middle" class="label">Qwen 7B</text><rect x="774.2" y="441.2" width="55.1" height="88.8" rx="6" fill="#5B8DEF"/><text x="801.7" y="433.2" text-anchor="middle" class="value">67.1</text><rect x="846.2" y="440.6" width="55.1" height="89.4" rx="6" fill="#F5A524"/><text x="873.8" y="432.6" text-anchor="middle" class="value">67.6</text><text x="833.5" y="558" text-anchor="middle" class="label">Mistral 7B</text><rect x="986.2" y="176.4" width="55.1" height="353.6" rx="6" fill="#5B8DEF"/><text x="1013.7" y="168.4" text-anchor="middle" class="value">267.2</text><rect x="1058.2" y="397.9" width="55.1" height="132.1" rx="6" fill="#F5A524"/><text x="1085.8" y="389.9" text-anchor="middle" class="value">99.9</text><text x="1045.5" y="558" text-anchor="middle" class="label">Gemma 9B</text><rect x="980" y="34" width="14" height="14" rx="3" fill="#5B8DEF"/><text x="1004" y="45" class="legend">vLLM</text><rect x="980" y="56" width="14" height="14" rx="3" fill="#F5A524"/><text x="1004" y="67" class="legend">SGLang</text><text x="24" y="310.0" transform="rotate(-90 24 310.0)" class="label muted">Requests / sec</text><text x="100" y="620" class="small muted">Higher is better</text></svg>